<?xml version="1.0" encoding="UTF-8"?>
<!DOCTYPE svg PUBLIC "-//W3C//DTD SVG 1.1//EN" "http://www.w3.org/Graphics/SVG/1.1/DTD/svg11.dtd">
<svg version="1.1" xmlns="http://www.w3.org/2000/svg" xmlns:xlink="http://www.w3.org/1999/xlink" x="0" y="0" width="492" height="444" viewBox="0, 0, 492, 444">
  <g id="Layer_1">
    <path d="M0,0 L492,0 L492,444 L0,444 z" fill="#404040"/>
    <path d="M45.336,343.112 Q45.696,343.784 45.96,344.552 Q46.104,344.192 46.272,343.808 Q46.44,343.424 46.632,343.088 L59.952,319.496 Q60.144,319.184 60.348,319.112 Q60.552,319.04 60.888,319.04 L62.568,319.04 L62.568,353 L60.432,353 L60.432,324.056 Q60.432,323.768 60.444,323.432 Q60.456,323.096 60.48,322.76 L47.136,346.472 Q46.8,347.096 46.176,347.096 L45.792,347.096 Q45.168,347.096 44.832,346.472 L31.104,322.712 Q31.176,323.408 31.176,324.056 L31.176,353 L29.016,353 L29.016,319.04 L30.72,319.04 Q31.056,319.04 31.248,319.112 Q31.44,319.184 31.632,319.496 z" fill="#FFFFFF"/>
    <path d="M85.368,353 Q84.648,353 84.48,352.328 L84.144,349.28 Q83.16,350.24 82.188,351.008 Q81.216,351.776 80.16,352.304 Q79.104,352.832 77.88,353.108 Q76.656,353.384 75.192,353.384 Q73.968,353.384 72.816,353.024 Q71.664,352.664 70.764,351.92 Q69.864,351.176 69.324,350.012 Q68.784,348.848 68.784,347.216 Q68.784,345.704 69.648,344.408 Q70.512,343.112 72.36,342.152 Q74.208,341.192 77.1,340.616 Q79.992,340.04 84.048,339.944 L84.048,337.448 Q84.048,334.136 82.62,332.348 Q81.192,330.56 78.384,330.56 Q76.656,330.56 75.444,331.04 Q74.232,331.52 73.392,332.096 Q72.552,332.672 72.024,333.152 Q71.496,333.632 71.136,333.632 Q70.872,333.632 70.704,333.512 Q70.536,333.392 70.416,333.2 L70.008,332.504 Q71.88,330.632 73.944,329.672 Q76.008,328.712 78.624,328.712 Q80.544,328.712 81.984,329.324 Q83.424,329.936 84.372,331.076 Q85.32,332.216 85.8,333.836 Q86.28,335.456 86.28,337.448 L86.28,353 z M75.768,351.728 Q77.16,351.728 78.324,351.428 Q79.488,351.128 80.484,350.588 Q81.48,350.048 82.344,349.304 Q83.208,348.56 84.048,347.696 L84.048,341.48 Q80.64,341.576 78.168,341.996 Q75.696,342.416 74.1,343.136 Q72.504,343.856 71.748,344.852 Q70.992,345.848 70.992,347.12 Q70.992,348.32 71.388,349.196 Q71.784,350.072 72.444,350.636 Q73.104,351.2 73.968,351.464 Q74.832,351.728 75.768,351.728 z" fill="#FFFFFF"/>
    <path d="M99.672,340.784 L91.344,329.12 L93.528,329.12 Q93.864,329.12 94.032,329.264 Q94.2,329.408 94.32,329.6 L101.328,339.704 Q101.448,339.248 101.712,338.864 L108.264,329.624 Q108.408,329.408 108.576,329.264 Q108.744,329.12 109.008,329.12 L111.096,329.12 L102.768,340.664 L111.432,353 L109.248,353 Q108.912,353 108.72,352.796 Q108.528,352.592 108.408,352.4 L101.16,341.816 Q101.04,342.296 100.8,342.656 L93.888,352.4 Q93.72,352.616 93.54,352.808 Q93.36,353 93.072,353 L91.008,353 z" fill="#FFFFFF"/>
    <text transform="matrix(1, 0, 0, 1, 174, 324)"/>
    <g>
      <path d="M138.92,354.404 Q136.232,354.404 134.012,353.684 Q131.792,352.964 130.208,351.644 Q128.624,350.324 127.748,348.452 Q126.872,346.58 126.872,344.276 Q126.872,341.204 128.384,339.08 Q129.896,336.956 133.088,335.924 Q130.544,334.868 129.284,332.924 Q128.024,330.98 128.024,328.244 Q128.024,326.276 128.828,324.572 Q129.632,322.868 131.072,321.608 Q132.512,320.348 134.516,319.64 Q136.52,318.932 138.92,318.932 Q141.32,318.932 143.324,319.64 Q145.328,320.348 146.768,321.608 Q148.208,322.868 149.012,324.572 Q149.816,326.276 149.816,328.244 Q149.816,330.98 148.544,332.924 Q147.272,334.868 144.752,335.924 Q147.944,336.956 149.456,339.08 Q150.968,341.204 150.968,344.276 Q150.968,346.58 150.092,348.452 Q149.216,350.324 147.632,351.644 Q146.048,352.964 143.828,353.684 Q141.608,354.404 138.92,354.404 z M138.92,349.772 Q140.384,349.772 141.488,349.352 Q142.592,348.932 143.348,348.188 Q144.104,347.444 144.488,346.412 Q144.872,345.38 144.872,344.18 Q144.872,341.324 143.288,339.86 Q141.704,338.396 138.92,338.396 Q136.136,338.396 134.552,339.86 Q132.968,341.324 132.968,344.18 Q132.968,345.38 133.352,346.412 Q133.736,347.444 134.492,348.188 Q135.248,348.932 136.352,349.352 Q137.456,349.772 138.92,349.772 z M138.92,333.74 Q140.36,333.74 141.344,333.284 Q142.328,332.828 142.928,332.072 Q143.528,331.316 143.78,330.344 Q144.032,329.372 144.032,328.34 Q144.032,327.356 143.72,326.468 Q143.408,325.58 142.784,324.896 Q142.16,324.212 141.2,323.804 Q140.24,323.396 138.92,323.396 Q137.6,323.396 136.64,323.804 Q135.68,324.212 135.044,324.896 Q134.408,325.58 134.108,326.468 Q133.808,327.356 133.808,328.34 Q133.808,329.372 134.06,330.344 Q134.312,331.316 134.912,332.072 Q135.512,332.828 136.496,333.284 Q137.48,333.74 138.92,333.74 z" fill="#FFFFFF"/>
      <path d="M138.92,354.404 Q136.232,354.404 134.012,353.684 Q131.792,352.964 130.208,351.644 Q128.624,350.324 127.748,348.452 Q126.872,346.58 126.872,344.276 Q126.872,341.204 128.384,339.08 Q129.896,336.956 133.088,335.924 Q130.544,334.868 129.284,332.924 Q128.024,330.98 128.024,328.244 Q128.024,326.276 128.828,324.572 Q129.632,322.868 131.072,321.608 Q132.512,320.348 134.516,319.64 Q136.52,318.932 138.92,318.932 Q141.32,318.932 143.324,319.64 Q145.328,320.348 146.768,321.608 Q148.208,322.868 149.012,324.572 Q149.816,326.276 149.816,328.244 Q149.816,330.98 148.544,332.924 Q147.272,334.868 144.752,335.924 Q147.944,336.956 149.456,339.08 Q150.968,341.204 150.968,344.276 Q150.968,346.58 150.092,348.452 Q149.216,350.324 147.632,351.644 Q146.048,352.964 143.828,353.684 Q141.608,354.404 138.92,354.404 z M138.92,349.772 Q140.384,349.772 141.488,349.352 Q142.592,348.932 143.348,348.188 Q144.104,347.444 144.488,346.412 Q144.872,345.38 144.872,344.18 Q144.872,341.324 143.288,339.86 Q141.704,338.396 138.92,338.396 Q136.136,338.396 134.552,339.86 Q132.968,341.324 132.968,344.18 Q132.968,345.38 133.352,346.412 Q133.736,347.444 134.492,348.188 Q135.248,348.932 136.352,349.352 Q137.456,349.772 138.92,349.772 z M138.92,333.74 Q140.36,333.74 141.344,333.284 Q142.328,332.828 142.928,332.072 Q143.528,331.316 143.78,330.344 Q144.032,329.372 144.032,328.34 Q144.032,327.356 143.72,326.468 Q143.408,325.58 142.784,324.896 Q142.16,324.212 141.2,323.804 Q140.24,323.396 138.92,323.396 Q137.6,323.396 136.64,323.804 Q135.68,324.212 135.044,324.896 Q134.408,325.58 134.108,326.468 Q133.808,327.356 133.808,328.34 Q133.808,329.372 134.06,330.344 Q134.312,331.316 134.912,332.072 Q135.512,332.828 136.496,333.284 Q137.48,333.74 138.92,333.74 z" fill-opacity="0" stroke="#FFFFFF" stroke-width="1"/>
    </g>
    <path d="M138.076,24 L346.788,24 C361.503,24 373.432,35.929 373.432,50.644 L373.432,259.356 C373.432,274.071 361.503,286 346.788,286 L138.076,286 C123.361,286 111.432,274.071 111.432,259.356 L111.432,50.644 C111.432,35.929 123.361,24 138.076,24 z" fill="#404040"/>
    <path d="M242.432,240.268 C224.368,240.268 209.724,225.624 209.724,207.56 C209.724,189.496 224.368,174.852 242.432,174.852 C260.496,174.852 275.14,189.496 275.14,207.56 C275.14,225.624 260.496,240.268 242.432,240.268 z" fill="#B0DCDC"/>
    <path d="M242.432,284.194 C200.108,284.194 165.798,249.884 165.798,207.56 C165.798,165.237 200.108,130.927 242.432,130.927 C284.756,130.927 319.066,165.237 319.066,207.56 C319.066,249.884 284.756,284.194 242.432,284.194 z" fill-opacity="0" stroke="#BFBFBF" stroke-width="14"/>
    <path d="M270.665,132.54 C246.162,132.54 226.299,112.676 226.299,88.173 C226.299,63.67 246.162,43.806 270.665,43.806 C295.169,43.806 315.032,63.67 315.032,88.173 C315.032,112.676 295.169,132.54 270.665,132.54 z" fill-opacity="0" stroke="#BFBFBF" stroke-width="14"/>
  </g>
</svg>
