<?xml version="1.0" encoding="UTF-8"?>
<!DOCTYPE svg PUBLIC "-//W3C//DTD SVG 1.1//EN" "http://www.w3.org/Graphics/SVG/1.1/DTD/svg11.dtd">
<svg version="1.1" xmlns="http://www.w3.org/2000/svg" xmlns:xlink="http://www.w3.org/1999/xlink" x="0" y="0" width="2180.5" height="2185.462" viewBox="0, 0, 2180.5, 2185.462">
  <g id="g3039" transform="translate(-527.435, 176.5)">
    <path d="M1927.435,1733.962 Q1927.435,1850.962 1848.435,1929.962 Q1769.435,2008.962 1652.435,2008.962 Q1517.435,2008.962 1417.435,1908.962 L640.435,1132.962 Q527.435,1017.962 527.435,861.962 Q527.435,702.962 637.435,591.962 Q747.435,480.962 906.435,480.962 Q1064.435,480.962 1179.435,593.962 L1784.435,1199.962 Q1794.435,1209.962 1794.435,1221.962 Q1794.435,1237.962 1763.935,1268.462 Q1733.435,1298.962 1717.435,1298.962 Q1704.435,1298.962 1694.435,1288.962 L1088.435,681.962 Q1009.435,604.962 907.435,604.962 Q801.435,604.962 728.435,679.962 Q655.435,754.962 655.435,860.962 Q655.435,965.962 731.435,1041.962 L1507.435,1818.962 Q1570.435,1881.962 1652.435,1881.962 Q1716.435,1881.962 1758.435,1839.962 Q1800.435,1797.962 1800.435,1733.962 Q1800.435,1651.962 1737.435,1588.962 L1156.435,1007.962 Q1130.435,983.962 1096.435,983.962 Q1067.435,983.962 1048.435,1002.962 Q1029.435,1021.962 1029.435,1050.962 Q1029.435,1082.962 1054.435,1109.962 L1464.435,1519.962 Q1474.435,1529.962 1474.435,1541.962 Q1474.435,1557.962 1443.435,1588.962 Q1412.435,1619.962 1396.435,1619.962 Q1384.435,1619.962 1374.435,1609.962 L964.435,1199.962 Q901.435,1138.962 901.435,1050.962 Q901.435,968.962 958.435,911.962 Q1015.435,854.962 1097.435,854.962 Q1185.435,854.962 1246.435,917.962 L1827.435,1498.962 Q1927.435,1596.962 1927.435,1733.962 z" fill="#000000"/>
    <path d="M1927.435,184.5 L1924.435,1026.5" fill-opacity="0" stroke="#000000" stroke-width="180"/>
    <path d="M2346.935,607 L1504.935,604" fill-opacity="0" stroke="#000000" stroke-width="180"/>
  </g>
</svg>
