<?xml version="1.0" encoding="UTF-8"?>
<!DOCTYPE svg PUBLIC "-//W3C//DTD SVG 1.1//EN" "http://www.w3.org/Graphics/SVG/1.1/DTD/svg11.dtd">
<svg version="1.1" xmlns="http://www.w3.org/2000/svg" xmlns:xlink="http://www.w3.org/1999/xlink" x="0px" y="0px" width="612" height="792" viewBox="0, 0, 612, 792">
  <g id="Layer 1">
    <path d="M215.654,131.096 L217.166,124.904 L215.198,124.904 L214.814,126.2 Q214.406,125.264 213.59,124.892 Q212.774,124.52 212.006,124.52 Q210.83,124.52 209.858,125.048 Q208.886,125.576 208.202,126.44 Q207.518,127.304 207.146,128.408 Q206.774,129.512 206.774,130.64 Q206.774,131.48 207.074,132.224 Q207.374,132.968 207.89,133.532 Q208.406,134.096 209.09,134.42 Q209.774,134.744 210.542,134.744 Q211.31,134.744 212.006,134.408 Q212.702,134.072 213.134,133.352 L213.182,133.352 Q213.23,133.952 213.698,134.336 Q214.166,134.72 214.934,134.72 Q215.51,134.72 216.458,134.324 Q217.406,133.928 218.33,133.088 Q219.254,132.248 219.914,130.928 Q220.574,129.608 220.574,127.76 Q220.574,126.104 219.878,124.748 Q219.182,123.392 218.03,122.444 Q216.878,121.496 215.366,120.968 Q213.854,120.44 212.222,120.44 Q210.35,120.44 208.694,121.136 Q207.038,121.832 205.79,123.032 Q204.542,124.232 203.822,125.876 Q203.102,127.52 203.102,129.416 Q203.102,131.336 203.822,132.98 Q204.542,134.624 205.802,135.824 Q207.062,137.024 208.742,137.696 Q210.422,138.368 212.342,138.368 Q214.598,138.368 216.518,137.372 Q218.438,136.376 219.662,134.504 L217.646,134.504 Q216.71,135.44 215.354,135.956 Q213.998,136.472 212.486,136.472 Q210.95,136.472 209.642,135.968 Q208.334,135.464 207.398,134.54 Q206.462,133.616 205.934,132.332 Q205.406,131.048 205.406,129.464 Q205.406,127.952 205.886,126.644 Q206.366,125.336 207.254,124.388 Q208.142,123.44 209.402,122.9 Q210.662,122.36 212.198,122.36 Q213.566,122.36 214.754,122.744 Q215.942,123.128 216.818,123.884 Q217.694,124.64 218.198,125.732 Q218.702,126.824 218.702,128.264 Q218.702,129.224 218.45,130.04 Q218.198,130.856 217.802,131.444 Q217.406,132.032 216.89,132.356 Q216.374,132.68 215.87,132.68 Q215.654,132.68 215.558,132.524 Q215.462,132.368 215.462,132.128 Q215.462,131.888 215.522,131.612 Q215.582,131.336 215.654,131.096 z M209.222,130.328 Q209.222,129.728 209.438,129.104 Q209.654,128.48 210.05,127.964 Q210.446,127.448 210.998,127.124 Q211.55,126.8 212.198,126.8 Q212.966,126.8 213.506,127.376 Q214.046,127.952 214.046,128.84 Q214.046,129.464 213.83,130.112 Q213.614,130.76 213.218,131.276 Q212.822,131.792 212.282,132.128 Q211.742,132.464 211.094,132.464 Q210.254,132.464 209.738,131.876 Q209.222,131.288 209.222,130.328 z" fill="#000000"/>
  </g>
  <defs/>
</svg>
