<?xml version="1.0" encoding="utf-8"?>
<!-- Generator: Adobe Illustrator 13.0.2, SVG Export Plug-In . SVG Version: 6.00 Build 14948)  -->
<!DOCTYPE svg PUBLIC "-//W3C//DTD SVG 1.1//EN" "http://www.w3.org/Graphics/SVG/1.1/DTD/svg11.dtd">
<svg version="1.1" id="Layer_3" xmlns="http://www.w3.org/2000/svg" xmlns:xlink="http://www.w3.org/1999/xlink" x="0px" y="0px"
	 width="128px" height="128px" viewBox="0 0 128 128" enable-background="new 0 0 128 128" xml:space="preserve">
<path fill="#3C3C3C" d="M128,117.199c0,5.965-4.835,10.801-10.8,10.801H10.8C4.835,128,0,123.164,0,117.199V10.8
	C0,4.835,4.835,0,10.8,0h106.4c5.965,0,10.8,4.835,10.8,10.8V117.199z"/>
<g>
	<path fill="#C5FF5C" d="M88.301,44.766l-8.398,30.2c-0.135,0.8-0.201,1.435-0.201,1.9c0,1,0.184,1.917,0.551,2.75
		c0.365,0.834,0.9,1.45,1.6,1.85c0.699,0.4,1.516,0.601,2.449,0.601c0.666,0,1.434-0.116,2.301-0.351
		c0.865-0.232,1.633-0.55,2.301-0.95c1.799-0.8,3.582-2.25,5.35-4.35c1.766-2.1,2.949-3.916,3.549-5.45
		c1.934-3.665,2.9-7.865,2.9-12.6c0-2.6-0.334-4.9-1-6.9c-0.533-2.465-2.15-5.333-4.85-8.6c-2.699-3.266-5.518-5.866-8.449-7.8
		c-2.936-1.933-6.268-3.35-10-4.25c-3.734-0.9-7.5-1.35-11.301-1.35c-2.934,0-5.967,0.334-9.1,1c-3.135,0.667-6.668,2.5-10.6,5.5
		c-3.936,3-7.201,6.25-9.801,9.75s-4.617,7.25-6.051,11.25s-2.148,8.367-2.148,13.101c0,3.667,0.766,7.25,2.299,10.75
		s3.383,6.399,5.551,8.699c2.166,2.301,4.814,4.317,7.949,6.051c3.133,1.732,6.434,3.032,9.9,3.899c3.465,0.866,7,1.3,10.6,1.3
		c3.201,0,6.566-0.35,10.1-1.05s6.934-1.649,10.201-2.85l2.9,7.899c-3.135,1.601-6.785,2.766-10.951,3.5
		c-4.166,0.733-8.518,1.101-13.049,1.101c-2.867,0-6.168-0.234-9.9-0.7c-3.734-0.467-7.967-1.75-12.701-3.85
		c-4.734-2.101-8.867-5.234-12.398-9.4c-3.535-4.166-6.118-8.315-7.751-12.45c-1.634-4.133-2.45-7.933-2.45-11.399
		c0-5.866,0.732-11.033,2.2-15.5c1.466-4.465,3.782-8.9,6.95-13.3c3.166-4.4,7.033-8.433,11.6-12.1
		c4.566-3.666,9.266-6.183,14.1-7.55c4.834-1.366,9.551-2.05,14.15-2.05c3.934,0,7.816,0.484,11.65,1.45
		c3.832,0.967,7.85,2.684,12.051,5.15c4.199,2.467,8.049,5.767,11.549,9.9c3.5,4.134,5.584,7.734,6.25,10.8
		c0.666,3.067,1.084,5.3,1.25,6.7s0.25,2.967,0.25,4.7c0,2.334-0.217,4.617-0.65,6.85c-0.434,2.234-1.367,4.817-2.799,7.75
		c-1.436,2.935-3.318,5.617-5.65,8.05c-2.334,2.435-4.4,4.084-6.199,4.95c-1.801,0.867-3.418,1.517-4.852,1.95
		s-3.016,0.649-4.75,0.649c-1.799,0-3.633-0.266-5.5-0.8c-1.867-0.533-3.334-1.3-4.398-2.3c-1.068-1-2.035-2.233-2.9-3.7
		c-3.334,2.734-6.084,4.6-8.25,5.6c-2.168,1-4.385,1.5-6.65,1.5c-1.867,0-4.168-0.6-6.9-1.8c-2.734-1.2-4.768-2.85-6.1-4.95
		c-1.334-2.1-2.234-3.982-2.699-5.649c-0.469-1.666-0.701-3.4-0.701-5.2c0-1.065,0.217-2.783,0.65-5.15
		c0.434-2.365,1.365-5.1,2.801-8.2c1.432-3.1,3.633-5.9,6.6-8.4c2.965-2.5,5.715-4.315,8.25-5.45c2.533-1.133,5-1.7,7.4-1.7
		c1.064,0,1.85,0.067,2.35,0.2c0.5,0.135,1.4,0.385,2.699,0.75c1.301,0.367,2.551,1.117,3.75,2.25c1.201,1.135,2.066,2.367,2.6,3.7
		l1.5-5.9H88.301z M66.201,79.275c2.4-1.927,4.365-4.817,5.9-8.672c1.533-3.854,2.301-7.376,2.301-10.567
		c0-1.859-0.5-3.587-1.5-5.183c-1-1.594-2.268-2.641-3.801-3.139c-1.535-0.499-2.668-0.749-3.4-0.749c-3.4,0-6.566,1.695-9.5,5.084
		c-1.533,1.528-2.9,3.655-4.1,6.38s-1.801,5.316-1.801,7.773c0,3.059,0.684,5.65,2.051,7.777c1.365,2.126,2.666,3.339,3.9,3.637
		c1.232,0.301,2.182,0.449,2.85,0.449C61.701,82.066,64.066,81.137,66.201,79.275z"/>
</g>
</svg>
