<?xml version="1.0" encoding="UTF-8"?>
<!DOCTYPE svg PUBLIC "-//W3C//DTD SVG 1.1//EN" "http://www.w3.org/Graphics/SVG/1.1/DTD/svg11.dtd">
<svg version="1.1" xmlns="http://www.w3.org/2000/svg" xmlns:xlink="http://www.w3.org/1999/xlink" x="0" y="0" width="102.529" height="102.529" viewBox="0, 0, 102.529, 102.529">
  <g id="Layer_1" transform="translate(-259.805, -251.736)">
    <path d="M292.743,317.471 L292.743,289.634 L297.333,289.634 Q298.737,289.634 299.196,290.93 L299.628,292.739 Q300.357,291.983 301.126,291.335 Q301.896,290.687 302.787,290.215 Q303.678,289.742 304.717,289.472 Q305.757,289.202 306.972,289.202 Q309.537,289.202 311.211,290.566 Q312.885,291.929 313.749,294.197 Q314.424,292.874 315.409,291.916 Q316.395,290.957 317.569,290.363 Q318.744,289.769 320.053,289.486 Q321.363,289.202 322.686,289.202 Q325.035,289.202 326.844,289.904 Q328.653,290.606 329.881,291.97 Q331.11,293.333 331.758,295.304 Q332.406,297.275 332.406,299.786 L332.406,317.471 L324.954,317.471 L324.954,299.786 Q324.954,294.899 320.769,294.899 Q319.824,294.899 319.027,295.21 Q318.231,295.52 317.623,296.141 Q317.016,296.762 316.678,297.68 Q316.341,298.598 316.341,299.786 L316.341,317.471 L308.889,317.471 L308.889,299.786 Q308.889,297.14 307.849,296.02 Q306.81,294.899 304.785,294.899 Q303.489,294.899 302.341,295.507 Q301.194,296.114 300.195,297.194 L300.195,317.471 z" fill="#000000"/>
    <path d="M311.569,337.764 C292.645,337.764 277.305,322.424 277.305,303.5 C277.305,284.576 292.645,269.236 311.569,269.236 C330.493,269.236 345.833,284.576 345.833,303.5 C345.833,322.424 330.493,337.764 311.569,337.764 z" fill-opacity="0" stroke="#000000" stroke-width="9"/>
  </g>
</svg>
