<?xml version="1.0" encoding="UTF-8"?>
<!DOCTYPE svg PUBLIC "-//W3C//DTD SVG 1.1//EN" "http://www.w3.org/Graphics/SVG/1.1/DTD/svg11.dtd">
<svg version="1.1" xmlns="http://www.w3.org/2000/svg" xmlns:xlink="http://www.w3.org/1999/xlink" x="0" y="0" width="102.529" height="102.529" viewBox="0, 0, 102.529, 102.529">
  <g id="Layer_1" transform="translate(-419.805, -219.736)">
    <path d="M471.569,305.764 C452.645,305.764 437.305,290.424 437.305,271.5 C437.305,252.576 452.645,237.236 471.569,237.236 C490.493,237.236 505.833,252.576 505.833,271.5 C505.833,290.424 490.493,305.764 471.569,305.764 z" fill-opacity="0" stroke="#000000" stroke-width="9"/>
    <path d="M480.216,263.554 Q479.919,264.013 479.609,264.215 Q479.298,264.418 478.758,264.418 Q478.218,264.418 477.651,264.148 Q477.084,263.878 476.382,263.567 Q475.68,263.257 474.776,262.987 Q473.871,262.717 472.683,262.717 Q470.874,262.717 469.875,263.459 Q468.876,264.202 468.876,265.417 Q468.876,266.254 469.443,266.821 Q470.01,267.388 470.942,267.806 Q471.873,268.225 473.061,268.589 Q474.249,268.954 475.505,269.386 Q476.76,269.818 477.948,270.385 Q479.136,270.952 480.068,271.802 Q480.999,272.653 481.566,273.854 Q482.133,275.056 482.133,276.757 Q482.133,278.782 481.391,280.496 Q480.648,282.211 479.217,283.453 Q477.786,284.695 475.653,285.397 Q473.52,286.099 470.739,286.099 Q469.308,286.099 467.904,285.842 Q466.5,285.586 465.231,285.113 Q463.962,284.641 462.855,284.02 Q461.748,283.399 460.938,282.67 L462.666,279.889 Q462.963,279.403 463.409,279.133 Q463.854,278.863 464.556,278.863 Q465.231,278.863 465.798,279.2 Q466.365,279.538 467.067,279.929 Q467.769,280.321 468.728,280.658 Q469.686,280.996 471.117,280.996 Q472.197,280.996 472.98,280.753 Q473.763,280.51 474.249,280.091 Q474.735,279.673 474.965,279.146 Q475.194,278.62 475.194,278.053 Q475.194,277.135 474.614,276.554 Q474.033,275.974 473.102,275.542 Q472.17,275.11 470.955,274.759 Q469.74,274.408 468.485,273.976 Q467.229,273.544 466.028,272.95 Q464.826,272.356 463.895,271.451 Q462.963,270.547 462.383,269.224 Q461.802,267.901 461.802,266.011 Q461.802,264.283 462.477,262.73 Q463.152,261.178 464.502,259.99 Q465.852,258.802 467.864,258.1 Q469.875,257.398 472.521,257.398 Q475.491,257.398 477.921,258.37 Q480.351,259.342 481.917,260.908 z" fill="#000000"/>
  </g>
</svg>
