<?xml version="1.0" encoding="UTF-8"?>
<!DOCTYPE svg PUBLIC "-//W3C//DTD SVG 1.1//EN" "http://www.w3.org/Graphics/SVG/1.1/DTD/svg11.dtd">
<svg version="1.1" xmlns="http://www.w3.org/2000/svg" xmlns:xlink="http://www.w3.org/1999/xlink" x="0px" y="0px" width="368.844" height="334.562" viewBox="0, 0, 368.844, 334.562">
  <g id="Layer 1">
    <path d="M185.25,304.781 C109.311,304.781 47.75,243.22 47.75,167.281 C47.75,91.342 109.311,29.781 185.25,29.781 C261.189,29.781 322.75,91.342 322.75,167.281 C322.75,243.22 261.189,304.781 185.25,304.781 z" fill-opacity="0" stroke="#000000" stroke-width="26"/>
    <path d="M185.25,182.781 C176.69,182.781 169.75,175.842 169.75,167.281 C169.75,158.721 176.69,151.781 185.25,151.781 C193.81,151.781 200.75,158.721 200.75,167.281 C200.75,175.842 193.81,182.781 185.25,182.781 z" fill="#000000"/>
    <path d="M185.996,167 L185.25,29.781 L252,42 L294,81" fill="#000000"/>
    <path d="M47.75,155.281 L91.754,155.281 L91.754,179.281 L47.75,179.281 z" fill="#000000"/>
    <path d="M278.746,155.281 L322.75,155.281 L322.75,179.281 L278.746,179.281 z" fill="#000000"/>
    <path d="M173.25,304.781 L173.25,260.777 L197.25,260.777 L197.25,304.781 z" fill="#000000"/>
  </g>
  <defs/>
</svg>
