<?xml version="1.0"?>
<!DOCTYPE svg PUBLIC "-//W3C//DTD SVG 1.1//EN" "http://www.w3.org/Graphics/SVG/1.1/DTD/svg11.dtd">
<svg xmlns="http://www.w3.org/2000/svg" xmlns:xl="http://www.w3.org/1999/xlink" version="1.1" viewBox="398 1786 145 145" width="145pt" height="145pt"><metadata xmlns:dc="http://purl.org/dc/elements/1.1/"><dc:date>2011-09-30 20:25Z</dc:date><!-- Produced by OmniGraffle Professional 5.3.2 --></metadata><defs></defs><g stroke="none" stroke-opacity="1" stroke-dasharray="none" fill="none" fill-opacity="1"><title>Canvas 1</title><g><title>Layer 1</title><path d="M 418.94962 1786.1123 L 522.9496 1786.1123 C 533.9953 1786.1123 542.9496 1795.0667 542.9496 1806.1123 L 542.9496 1910.1123 C 542.9496 1921.158 533.9953 1930.1123 522.9496 1930.1123 L 418.94962 1930.1123 C 407.90393 1930.1123 398.94962 1921.158 398.94962 1910.1123 C 398.94962 1910.1123 398.94962 1910.1123 398.94962 1910.1123 L 398.94962 1806.1123 C 398.94962 1795.0667 407.90393 1786.1123 418.94962 1786.1123 Z" fill="#3b3b3b"/><circle cx="470.94962" cy="1858.1123" r="44.640842" stroke="#edf05b" stroke-linecap="round" stroke-linejoin="round" stroke-width="13"/><path d="M 408.19336 1843.3306 L 427.74042 1869.2549 L 447.28748 1843.3306 Z" fill="white"/><path d="M 536.948 1875.9644 L 512.34192 1843.3306 L 487.73584 1875.9644 Z" fill="#edf05b"/><path d="M 536.948 1875.9644 L 512.34192 1843.3306 L 487.73584 1875.9644 Z" stroke="#3b3b3b" stroke-linecap="round" stroke-linejoin="round" stroke-width="5"/><path d="M 507.33475 1868.703 L 515.99915 1872.2036 L 511.1973 1884.0885 L 502.5329 1880.5879 Z" fill="#edf05b"/><path d="M 513.81213 1864.9518 L 522.34906 1868.7527 L 517.13538 1880.4628 L 508.59842 1876.6619 Z" fill="#edf05b"/><path d="M 404.65125 1843.3306 L 429.25732 1875.9644 L 453.8634 1843.3306 Z" fill="#edf05b"/><path d="M 404.65125 1843.3306 L 429.25732 1875.9644 L 453.8634 1843.3306 Z" stroke="#3b3b3b" stroke-linecap="round" stroke-linejoin="round" stroke-width="5"/><path d="M 430.5715 1832.3635 L 439.1085 1836.1644 L 433.8948 1847.8745 L 425.35782 1844.0736 Z" fill="#edf05b"/><path d="M 425.03732 1835.7913 L 433.70172 1839.2919 L 428.89987 1851.1768 L 420.23547 1847.6761 Z" fill="#edf05b"/></g></g></svg>
