<?xml version="1.0" encoding="UTF-8"?>
<!DOCTYPE svg PUBLIC "-//W3C//DTD SVG 1.1//EN" "http://www.w3.org/Graphics/SVG/1.1/DTD/svg11.dtd">
<svg version="1.1" xmlns="http://www.w3.org/2000/svg" xmlns:xlink="http://www.w3.org/1999/xlink" x="0" y="0" width="28" height="28" viewBox="0, 0, 28, 28">
  <g id="Layer_1">
    <g>
      <path d="M7.642,7 L20.358,7 C24.579,7 28,9.674 28,12.973 L28,15.027 C28,18.326 24.579,21 20.358,21 L7.642,21 C3.421,21 0,18.326 0,15.027 L0,12.973 C0,9.674 3.421,7 7.642,7 z" fill="#929292"/>
      <path d="M7.642,7 L20.358,7 C24.579,7 28,9.674 28,12.973 L28,15.027 C28,18.326 24.579,21 20.358,21 L7.642,21 C3.421,21 0,18.326 0,15.027 L0,12.973 C0,9.674 3.421,7 7.642,7 z" fill-opacity="0" stroke="#4C4C4C" stroke-width="0.25"/>
    </g>
    <g>
      <path d="M8,22 C3.582,22 0,18.418 0,14 C-0,9.582 3.582,6 8,6 C12.418,6 16,9.582 16,14 C16,18.418 12.418,22 8,22 z" fill="#000000"/>
      <path d="M8,22 C3.582,22 0,18.418 0,14 C-0,9.582 3.582,6 8,6 C12.418,6 16,9.582 16,14 C16,18.418 12.418,22 8,22 z" fill-opacity="0" stroke="#3E3E3E" stroke-width="1"/>
    </g>
  </g>
</svg>
