<?xml version="1.0"?>
<!DOCTYPE svg PUBLIC "-//W3C//DTD SVG 1.1//EN" "http://www.w3.org/Graphics/SVG/1.1/DTD/svg11.dtd">
<svg xmlns="http://www.w3.org/2000/svg" xmlns:xl="http://www.w3.org/1999/xlink" version="1.1" viewBox="412 336 147 147" width="147pt" height="147pt"><metadata xmlns:dc="http://purl.org/dc/elements/1.1/"><dc:date>2007-08-20 23:47Z</dc:date><!-- Produced by OmniGraffle Professional 4.1.2 --></metadata><defs></defs><g stroke="none" stroke-opacity="1" stroke-dasharray="none" fill="none" fill-opacity="1"><title>Canvas 1</title><g><title>Layer 1</title><path d="M 485.80005 337.62198 L 537.80005 337.62198 C 548.84576 337.62198 557.80005 346.5763 557.80005 357.62198 L 557.80005 461.62198 C 557.80005 472.66766 548.84576 481.62198 537.80005 481.62198 L 433.80005 481.62198 C 422.75436 481.62198 413.80005 472.66766 413.80005 461.62198 L 413.80005 357.62198 C 413.80005 346.5763 422.75436 337.62198 433.80005 337.62198 Z" fill="#3b3b3b"/><path d="M 498.80005 394.62192 L 528.96106 394.62192 C 531.72247 394.62192 533.96106 396.8605 533.96106 399.62192 L 533.96106 452.8668 C 533.96106 455.6282 531.72247 457.8668 528.96106 457.8668 L 468.63904 457.8668 C 465.87762 457.8668 463.63904 455.6282 463.63904 452.8668 L 463.63904 399.62192 C 463.63904 396.8605 465.87762 394.62192 468.63904 394.62192 Z" fill="#acacac"/><path d="M 468.97803 357.62192 L 496.47803 357.62192 C 499.23944 357.62192 501.47803 359.8605 501.47803 362.62192 L 501.47803 409.9498 C 501.47803 412.7112 499.23944 414.9498 496.47803 414.9498 L 441.47803 414.9498 C 438.71661 414.9498 436.47803 412.7112 436.47803 409.9498 L 436.47803 362.62192 C 436.47803 359.8605 438.71661 357.62192 441.47803 357.62192 Z" fill="White"/><line x1="476.19925" y1="430.14478" x2="521.40088" y2="430.14478" fill="#3b3b3b"/><line x1="476.19925" y1="430.14478" x2="521.40088" y2="430.14478" stroke="#3b3b3b" stroke-linecap="butt" stroke-linejoin="round" stroke-width="14"/></g></g></svg>
