<?xml version="1.0" encoding="UTF-8"?>
<!DOCTYPE svg PUBLIC "-//W3C//DTD SVG 1.1//EN" "http://www.w3.org/Graphics/SVG/1.1/DTD/svg11.dtd">
<svg version="1.1" xmlns="http://www.w3.org/2000/svg" xmlns:xlink="http://www.w3.org/1999/xlink" x="0px" y="0px" width="612" height="792" viewBox="0, 0, 612, 792">
  <g id="Layer 1">
    <path d="M111.622,228.43 L183.622,228.43 L183.622,300.43 L111.622,300.43 z" fill="#000000"/>
    <path d="M129.78,252.813 L129.78,272.222 L136.431,272.222 L136.431,275.43 L126.367,275.43 L126.367,252.813 z" fill="#FFFFFF"/>
    <path d="M141.334,261.162 L141.334,275.43 L138.038,275.43 L138.038,261.162 z M137.54,255.23 Q137.54,254.365 138.17,253.735 Q138.8,253.105 139.679,253.105 Q140.572,253.105 141.202,253.735 Q141.832,254.351 141.832,255.244 Q141.832,256.138 141.202,256.768 Q140.587,257.397 139.694,257.397 Q138.8,257.397 138.17,256.768 Q137.54,256.138 137.54,255.23 z" fill="#FFFFFF"/>
    <path d="M146.281,261.162 L149.973,269.175 L153.65,261.162 L157.356,261.162 L149.944,276.411 L142.59,261.162 z" fill="#FFFFFF"/>
    <path d="M171.063,269.072 L160.838,269.072 Q160.97,270.83 161.981,271.87 Q162.991,272.896 164.573,272.896 Q165.804,272.896 166.61,272.31 Q167.401,271.724 168.411,270.142 L171.195,271.694 Q170.55,272.793 169.832,273.577 Q169.114,274.36 168.294,274.866 Q167.474,275.371 166.522,275.605 Q165.57,275.84 164.456,275.84 Q161.263,275.84 159.329,273.789 Q157.396,271.724 157.396,268.311 Q157.396,264.927 159.271,262.832 Q161.16,260.767 164.28,260.767 Q167.43,260.767 169.261,262.773 Q171.077,264.766 171.077,268.296 z M167.679,266.377 Q166.99,263.74 164.354,263.74 Q163.753,263.74 163.226,263.923 Q162.698,264.106 162.266,264.451 Q161.834,264.795 161.527,265.278 Q161.219,265.762 161.058,266.377 z" fill="#FFFFFF"/>
  </g>
  <defs/>
</svg>
