<?xml version="1.0" encoding="UTF-8"?>
<!DOCTYPE svg PUBLIC "-//W3C//DTD SVG 1.1//EN" "http://www.w3.org/Graphics/SVG/1.1/DTD/svg11.dtd">
<svg version="1.1" xmlns="http://www.w3.org/2000/svg" xmlns:xlink="http://www.w3.org/1999/xlink" x="0px" y="0px" width="360" height="360" viewBox="0, 0, 360, 360">
  <g id="Layer 2">
    <path d="M178.167,203.667 C152.67,203.667 132,182.997 132,157.5 C132,132.003 152.67,111.333 178.167,111.333 C203.664,111.333 224.333,132.003 224.333,157.5 C224.333,182.997 203.664,203.667 178.167,203.667 z" fill="#000000"/>
    <path d="M184.495,123.151 L176.385,151.417 Q180.089,147.385 182.573,146.049 Q185.057,144.714 187.964,144.714 Q193.589,144.714 196.378,148.768 Q199.167,152.823 199.167,158.12 Q199.167,170.776 189.979,180.714 Q181.823,189.479 171.417,189.479 Q163.682,189.479 155.057,184.932 L169.401,135.198 Q170.432,131.682 170.432,130.37 Q170.432,129.245 169.495,128.589 Q168.182,127.651 165.51,127.792 L166.026,125.917 L181.682,123.151 z M166.495,185.401 Q168.698,186.807 170.479,186.807 Q172.964,186.807 174.651,185.823 Q177.323,184.229 180.253,180.057 Q183.182,175.885 185.151,169.979 Q187.12,164.073 187.12,158.214 Q187.12,154.885 185.62,153.151 Q184.12,151.417 182.151,151.417 Q178.87,151.417 176.432,154.604 Q174.792,156.667 172.87,163.37 z" fill="#FFFFFF"/>
  </g>
  <defs/>
</svg>
