<?xml version="1.0" encoding="utf-8"?>
<!-- Generator: Adobe Illustrator 13.0.2, SVG Export Plug-In . SVG Version: 6.00 Build 14948)  -->
<!DOCTYPE svg PUBLIC "-//W3C//DTD SVG 1.1//EN" "http://www.w3.org/Graphics/SVG/1.1/DTD/svg11.dtd">
<svg version="1.1" id="closeup" xmlns="http://www.w3.org/2000/svg" xmlns:xlink="http://www.w3.org/1999/xlink" x="0px" y="0px"
	 width="128px" height="128px" viewBox="0 0 128 128" enable-background="new 0 0 128 128" xml:space="preserve">
<path fill="#3C3C3C" d="M128,117.199c0,5.965-4.835,10.801-10.8,10.801H10.8C4.835,128,0,123.164,0,117.199V10.8
	C0,4.835,4.835,0,10.8,0h106.4c5.965,0,10.8,4.835,10.8,10.8V117.199z"/>
<path fill="#FFFFFF" d="M91.144,83.944c3.719,12.331-0.775,24.589-10.034,27.382c-9.258,2.791-19.776-4.942-23.495-17.275
	C53.899,81.724,58.39,69.464,67.65,66.674C76.907,63.881,87.426,71.611,91.144,83.944z"/>
<path fill="#FFFFFF" d="M78.962,62.917c0,0,21.809,2.535,18.675,37.75l30.338-23.669c0,0-0.197-23.736-0.007-36.665L78.962,62.917z"
	/>
<ellipse transform="matrix(0.9596 -0.2815 0.2815 0.9596 -11.2195 8.8329)" fill="#FFFFFF" cx="25.136" cy="43.47" rx="14.062" ry="19.806"/>
<path fill="#FFFFFF" d="M31.713,21.287c0,0,20.105,13.598,12.117,35.379l60.314-26.056c0,0-0.32-17.759-14.9-21.277L31.713,21.287z"
	/>
<path fill="#FFFFFF" d="M96.082,8l9.997-2.667c0,0,12.521,5.465,11.406,19.257l-8.449,3.561C109.036,28.151,107.84,12.134,96.082,8z
	"/>
<polygon fill="#FFFFFF" points="75.965,48.376 105.334,35.216 113.231,40.634 83.335,54.499 "/>
</svg>
