<?xml version="1.0" encoding="UTF-8"?>
<!DOCTYPE svg PUBLIC "-//W3C//DTD SVG 1.1//EN" "http://www.w3.org/Graphics/SVG/1.1/DTD/svg11.dtd">
<svg version="1.1" xmlns="http://www.w3.org/2000/svg" xmlns:xlink="http://www.w3.org/1999/xlink" x="0" y="0" width="800" height="600" viewBox="0, 0, 800, 600">
  <g id="Layer_1">
    <g>
      <path d="M190.5,129.5 L326.5,129.5 L326.5,265.5 L190.5,265.5 z" fill="#FFFFFF"/>
      <path d="M190.5,129.5 L326.5,129.5 L326.5,265.5 L190.5,265.5 z" fill-opacity="0" stroke="#000000" stroke-width="8"/>
    </g>
    <g>
      <path d="M198.24,253.17 L232.5,201.5 L266.76,253.17 z" fill="#000000"/>
      <path d="M198.24,253.17 L232.5,201.5 L266.76,253.17 z" fill-opacity="0" stroke="#000000" stroke-width="1"/>
    </g>
    <g>
      <path d="M215.5,168.5 C208.873,168.5 203.5,163.127 203.5,156.5 C203.5,149.873 208.873,144.5 215.5,144.5 C222.127,144.5 227.5,149.873 227.5,156.5 C227.5,163.127 222.127,168.5 215.5,168.5 z" fill="#000000"/>
      <path d="M215.5,168.5 C208.873,168.5 203.5,163.127 203.5,156.5 C203.5,149.873 208.873,144.5 215.5,144.5 C222.127,144.5 227.5,149.873 227.5,156.5 C227.5,163.127 222.127,168.5 215.5,168.5 z" fill-opacity="0" stroke="#000000" stroke-width="1"/>
    </g>
    <path d="M236,254 L315,254 L315,217 L283,168" fill="#000000"/>
  </g>
</svg>
