<?xml version="1.0" encoding="UTF-8"?>
<!DOCTYPE svg PUBLIC "-//W3C//DTD SVG 1.1//EN" "http://www.w3.org/Graphics/SVG/1.1/DTD/svg11.dtd">
<svg version="1.1" xmlns="http://www.w3.org/2000/svg" xmlns:xlink="http://www.w3.org/1999/xlink" x="0" y="0" width="54.5" height="56" viewBox="0, 0, 54.5, 56">
  <g id="Layer_1" transform="translate(-68, -237)">
    <g>
      <path d="M86.412,250.535 L107.611,264.934 L86.412,279.333 z" fill="#000000"/>
      <path d="M68,284 L77,284 L77,293 L68,293 L68,284 z" fill="#000000"/>
      <path d="M68,268.333 L77,268.333 L77,277.333 L68,277.333 L68,268.333 z" fill="#000000"/>
      <path d="M68,252.667 L77,252.667 L77,261.667 L68,261.667 L68,252.667 z" fill="#000000"/>
      <path d="M68,237 L77,237 L77,246 L68,246 L68,237 z" fill="#000000"/>
      <path d="M113.5,284 L122.5,284 L122.5,293 L113.5,293 L113.5,284 z" fill="#000000"/>
      <path d="M113.5,268.333 L122.5,268.333 L122.5,277.333 L113.5,277.333 L113.5,268.333 z" fill="#000000"/>
      <path d="M113.5,252.667 L122.5,252.667 L122.5,261.667 L113.5,261.667 L113.5,252.667 z" fill="#000000"/>
      <path d="M113.5,237 L122.5,237 L122.5,246 L113.5,246 L113.5,237 z" fill="#000000"/>
    </g>
  </g>
</svg>
