<?xml version="1.0" encoding="UTF-8"?>
<!DOCTYPE svg PUBLIC "-//W3C//DTD SVG 1.1//EN" "http://www.w3.org/Graphics/SVG/1.1/DTD/svg11.dtd">
<svg version="1.1" xmlns="http://www.w3.org/2000/svg" xmlns:xlink="http://www.w3.org/1999/xlink" x="0px" y="0px" width="200" height="200" viewBox="0, 0, 200, 200">
  <g id="Layer 1">
    <path d="M30.45,24.663 L169.55,24.663 L169.55,163.763 L30.45,163.763 z" fill="#FFFFFF"/>
    <g>
      <path d="M36,52.086 L164,52.086 L164,132.84 L36,132.84 z" fill="#FFFFFF"/>
      <path d="M36,52.086 L164,52.086 L164,132.84 L36,132.84 z" fill-opacity="0" stroke="#000000" stroke-width="11"/>
    </g>
    <path d="M44.445,115.672 L155,115.672" fill-opacity="0" stroke="#000000" stroke-width="11"/>
    <path d="M44.445,69.043 L155,69.043" fill-opacity="0" stroke="#000000" stroke-width="11"/>
    <g>
      <path d="M54.445,148.329 C48.922,148.329 44.445,143.852 44.445,138.329 C44.445,132.806 48.922,128.329 54.445,128.329 C59.968,128.329 64.445,132.806 64.445,138.329 C64.445,143.852 59.968,148.329 54.445,148.329 z" fill="#000000"/>
      <path d="M54.445,148.329 C48.922,148.329 44.445,143.852 44.445,138.329 C44.445,132.806 48.922,128.329 54.445,128.329 C59.968,128.329 64.445,132.806 64.445,138.329 C64.445,143.852 59.968,148.329 54.445,148.329 z" fill-opacity="0" stroke="#000000" stroke-width="1"/>
    </g>
    <g>
      <path d="M145,148.329 C139.477,148.329 135,143.852 135,138.329 C135,132.806 139.477,128.329 145,128.329 C150.523,128.329 155,132.806 155,138.329 C155,143.852 150.523,148.329 145,148.329 z" fill="#000000"/>
      <path d="M145,148.329 C139.477,148.329 135,143.852 135,138.329 C135,132.806 139.477,128.329 145,128.329 C150.523,128.329 155,132.806 155,138.329 C155,143.852 150.523,148.329 145,148.329 z" fill-opacity="0" stroke="#000000" stroke-width="1"/>
    </g>
    <g>
      <path d="M54.445,56.9 C48.922,56.9 44.445,52.423 44.445,46.9 C44.445,41.378 48.922,36.9 54.445,36.9 C59.968,36.9 64.445,41.378 64.445,46.9 C64.445,52.423 59.968,56.9 54.445,56.9 z" fill="#000000"/>
      <path d="M54.445,56.9 C48.922,56.9 44.445,52.423 44.445,46.9 C44.445,41.378 48.922,36.9 54.445,36.9 C59.968,36.9 64.445,41.378 64.445,46.9 C64.445,52.423 59.968,56.9 54.445,56.9 z" fill-opacity="0" stroke="#000000" stroke-width="1"/>
    </g>
  </g>
  <defs/>
</svg>
