<?xml version="1.0" encoding="UTF-8"?>
<!DOCTYPE svg PUBLIC "-//W3C//DTD SVG 1.1//EN" "http://www.w3.org/Graphics/SVG/1.1/DTD/svg11.dtd">
<svg version="1.1" xmlns="http://www.w3.org/2000/svg" xmlns:xlink="http://www.w3.org/1999/xlink" x="0px" y="0px" width="768" height="1024" viewBox="0, 0, 768, 1024">
  <g id="Layer 1">
    <path d="M168.039,174.68 L379.961,174.68 L379.961,386.602 L168.039,386.602 z" fill="#FFFFFF"/>
    <path d="M278.008,174.68 Q278.008,186.492 280.961,192.82 Q283.914,199.148 288.695,202.031 Q293.477,204.914 302.617,208.148 Q328.352,217.008 337.773,231.984 Q347.195,246.961 347.195,268.195 Q347.195,287.461 336.227,306.867 L330.461,304.477 Q338.758,290.555 338.758,270.023 Q338.758,251.742 321.531,240.703 Q304.305,229.664 278.008,229.664 L278.008,343.148 Q278.008,359.883 262.328,373.242 Q246.648,386.602 227.945,386.602 Q215.148,386.602 207.977,380.555 Q200.805,374.508 200.805,363.82 Q200.805,347.086 216.484,333.727 Q232.164,320.367 251.008,320.367 Q261.133,320.367 267.883,324.445 L267.883,174.68 L278.008,174.68 z" fill="#000000"/>
  </g>
  <defs/>
</svg>
