<?xml version="1.0" encoding="UTF-8"?>
<!DOCTYPE svg PUBLIC "-//W3C//DTD SVG 1.1//EN" "http://www.w3.org/Graphics/SVG/1.1/DTD/svg11.dtd">
<svg version="1.1" xmlns="http://www.w3.org/2000/svg" xmlns:xlink="http://www.w3.org/1999/xlink" x="0px" y="0px" width="1792" height="1792" viewBox="0, 0, 1792, 1792">
  <g id="g3039">
    <path d="M1573.435,1379.962 Q1573.435,1496.962 1494.435,1575.962 Q1415.435,1654.962 1298.435,1654.962 Q1163.435,1654.962 1063.435,1554.962 L286.435,778.962 Q173.435,663.962 173.435,507.962 Q173.435,348.962 283.435,237.962 Q393.435,126.962 552.435,126.962 Q710.435,126.962 825.435,239.962 L1430.435,845.962 Q1440.435,855.962 1440.435,867.962 Q1440.435,883.962 1409.935,914.462 Q1379.435,944.962 1363.435,944.962 Q1350.435,944.962 1340.435,934.962 L734.435,327.962 Q655.435,250.962 553.435,250.962 Q447.435,250.962 374.435,325.962 Q301.435,400.962 301.435,506.962 Q301.435,611.962 377.435,687.962 L1153.435,1464.962 Q1216.435,1527.962 1298.435,1527.962 Q1362.435,1527.962 1404.435,1485.962 Q1446.435,1443.962 1446.435,1379.962 Q1446.435,1297.962 1383.435,1234.962 L802.435,653.962 Q776.435,629.962 742.435,629.962 Q713.435,629.962 694.435,648.962 Q675.435,667.962 675.435,696.962 Q675.435,728.962 700.435,755.962 L1110.435,1165.962 Q1120.435,1175.962 1120.435,1187.962 Q1120.435,1203.962 1089.435,1234.962 Q1058.435,1265.962 1042.435,1265.962 Q1030.435,1265.962 1020.435,1255.962 L610.435,845.962 Q547.435,784.962 547.435,696.962 Q547.435,614.962 604.435,557.962 Q661.435,500.962 743.435,500.962 Q831.435,500.962 892.435,563.962 L1473.435,1144.962 Q1573.435,1242.962 1573.435,1379.962 z" fill="#000000"/>
  </g>
  <defs/>
</svg>
