<?xml version="1.0"?>
<!DOCTYPE svg PUBLIC "-//W3C//DTD SVG 1.1//EN" "http://www.w3.org/Graphics/SVG/1.1/DTD/svg11.dtd">
<svg xmlns="http://www.w3.org/2000/svg" xmlns:xl="http://www.w3.org/1999/xlink" version="1.1" viewBox="186 2678 147 147" width="147pt" height="147pt"><metadata xmlns:dc="http://purl.org/dc/elements/1.1/"><dc:date>2009-07-14 20:24Z</dc:date><!-- Produced by OmniGraffle Professional 4.2.3 --></metadata><defs></defs><g stroke="none" stroke-opacity="1" stroke-dasharray="none" fill="none" fill-opacity="1"><title>Canvas 1</title><g><title>Layer 1</title><path d="M 207.5 2679.5 L 311.5 2679.5 C 322.54568 2679.5 331.5 2688.4543 331.5 2699.5 L 331.5 2803.5 C 331.5 2814.5457 322.54568 2823.5 311.5 2823.5 L 207.5 2823.5 C 196.4543 2823.5 187.5 2814.5457 187.5 2803.5 C 187.5 2803.5 187.5 2803.5 187.5 2803.5 L 187.5 2699.5 C 187.5 2688.4543 196.4543 2679.5 207.5 2679.5 Z" fill="#3b3b3b"/><path d="M 238.5 2704.208 L 313.90588 2752.5 L 238.5 2800.792 Z" fill="#d05e94"/><rect x="213" y="2709.8774" width="55" height="11.174805" fill="white"/><rect x="222.5473" y="2733.9675" width="45.452698" height="11.174805" fill="white"/><rect x="213" y="2781.9475" width="55" height="11.174805" fill="white"/><rect x="222.5473" y="2757.9675" width="45.452698" height="11.174805" fill="white"/></g></g></svg>
