<?xml version="1.0" encoding="UTF-8"?>
<!DOCTYPE svg PUBLIC "-//W3C//DTD SVG 1.1//EN" "http://www.w3.org/Graphics/SVG/1.1/DTD/svg11.dtd">
<svg version="1.1" xmlns="http://www.w3.org/2000/svg" xmlns:xlink="http://www.w3.org/1999/xlink" x="0px" y="0px" width="400" height="400" viewBox="0, 0, 400, 400">
  <g id="Layer 1">
    <path d="M183.755,185.462 C191.076,180.693 199.484,176.053 204.215,179.018 C208.932,181.972 209.246,192.036 208.925,201.131 C208.461,214.134 203.075,231.771 193.393,249.356 C184.641,265.248 173.633,280.569 164,287.846 C155.521,294.252 146.446,297.074 141.083,293.713 C135.734,290.363 132.904,281.753 134,270.781 C135.25,258.246 143.133,239.309 151.906,223.373 C161.566,205.832 173.352,192.243 183.755,185.462 z" fill="#000000"/>
    <path d="M53.312,146.7 C53.533,142.065 54.181,136.929 57.179,135.262 C60.166,133.601 65.025,135.658 69.212,137.815 C75.195,140.897 81.704,147.409 86.738,156.015 C91.287,163.792 93.715,171.712 93.899,178.03 C94.062,183.592 93.416,189.49 90.019,191.379 C86.631,193.263 81.101,190.818 76.29,187.87 C70.794,184.506 65.02,178.424 60.459,170.625 C55.438,162.042 53.001,153.284 53.312,146.7 z" fill="#000000"/>
    <path d="M274,120 C280.099,117.121 287.404,116.101 291.664,118.714 C295.913,121.319 299.796,127.949 300,134.657 C300.293,144.243 293.488,157.676 286.028,169.838 C279.283,180.827 270.852,189.258 262.885,193.793 C255.87,197.787 247.848,200.995 243.017,198.033 C238.204,195.075 237.415,186.49 237.779,178.465 C238.199,169.294 241.897,157.929 248.659,146.909 C256.103,134.78 265.337,124.097 274,120 z" fill="#000000"/>
    <path d="M240.385,244.451 C234.756,241.536 228.708,237.762 228.048,232.806 C227.391,227.868 232.211,222.526 236.836,218.139 C243.449,211.871 254.548,206.839 267.548,204.965 C279.297,203.272 293.028,203.397 300.928,206.723 C307.883,209.65 312.077,214.95 312.824,220.564 C313.568,226.166 310.841,231.735 304.947,236.509 C298.212,241.965 285.104,246.712 273.323,248.41 C260.356,250.278 248.386,248.589 240.385,244.451 z" fill="#000000"/>
    <path d="M328.589,154.935 C332.004,145.089 336.368,134.619 341.761,134.275 C347.138,133.93 352.695,143.727 357.23,153.002 C363.704,166.263 368.634,187.566 370.057,211.804 C371.346,233.712 369.646,258.505 365.68,272.457 C362.191,284.743 357.185,291.973 351.072,292.365 C344.976,292.757 339.573,287.27 334.68,275.59 C329.088,262.247 324.065,236.802 322.774,214.834 C321.354,190.654 323.738,168.927 328.589,154.935 z" fill="#000000"/>
    <path d="M115,171 C107.491,167.96 102.337,162.636 101.724,157.397 C101.115,152.179 104.437,146.676 111,142 C120.381,135.317 139.369,129.717 157.208,127.631 C173.33,125.746 188.169,126.958 198.751,130.412 C208.071,133.452 217.367,137.842 218.061,143.776 C218.752,149.694 210.751,156.111 202.433,161.209 C192.931,167.033 178.742,171.655 162.576,173.545 C144.782,175.624 125.672,175.316 115,171 z" fill="#000000"/>
  </g>
  <defs/>
</svg>
