<?xml version="1.0" encoding="UTF-8"?>
<!DOCTYPE svg PUBLIC "-//W3C//DTD SVG 1.1//EN" "http://www.w3.org/Graphics/SVG/1.1/DTD/svg11.dtd">
<svg version="1.1" xmlns="http://www.w3.org/2000/svg" xmlns:xlink="http://www.w3.org/1999/xlink" x="0px" y="0px" width="360" height="360" viewBox="0, 0, 360, 360">
  <g id="Layer 1">
    <path d="M186.4,162.96 Q186.4,160.56 188,158.16 Q184.32,155.6 179.84,155.6 Q172.8,155.6 168.4,161.44 Q164,167.28 164,177.04 Q164,187.12 168.64,193.2 Q173.28,199.28 180.96,199.28 Q188.8,199.28 192.48,190.8 Q194.72,185.52 196.32,184.08 Q198.56,182.16 203.36,182.16 Q208.8,182.16 212.16,185.44 Q215.52,188.72 215.52,193.84 Q215.52,204.72 204.96,212.72 Q194.4,220.72 179.68,220.72 Q160.8,220.72 149.6,209.12 Q138.4,197.52 138.4,178 Q138.4,158.32 149.92,146.8 Q161.44,135.28 180.96,135.28 Q195.04,135.28 204.24,141.92 Q213.44,148.56 213.44,158.8 Q213.44,165.2 209.28,169.12 Q205.12,173.04 198.56,173.04 Q193.12,173.04 189.76,170.24 Q186.4,167.44 186.4,162.96 z" fill="#000000"/>
  </g>
  <defs/>
</svg>
