<?xml version="1.0" encoding="UTF-8" standalone="no"?>
<!-- Created with Inkscape (http://www.inkscape.org/) -->

<svg
   xmlns:dc="http://purl.org/dc/elements/1.1/"
   xmlns:cc="http://creativecommons.org/ns#"
   xmlns:rdf="http://www.w3.org/1999/02/22-rdf-syntax-ns#"
   xmlns:svg="http://www.w3.org/2000/svg"
   xmlns="http://www.w3.org/2000/svg"
   version="1.1"
   width="25"
   height="24"
   id="svg4721">
  <metadata
     id="metadata4727">
    <rdf:RDF>
      <cc:Work
         rdf:about="">
        <dc:format>image/svg+xml</dc:format>
        <dc:type
           rdf:resource="http://purl.org/dc/dcmitype/StillImage" />
        <dc:title></dc:title>
      </cc:Work>
    </rdf:RDF>
  </metadata>
  <defs
     id="defs4725" />
  <path
     d="m 12.296195,21.167808 c 0.03735,-2.605767 -0.244322,-2.776224 -5.3705291,-3.25 -7.01853097,-0.648669 -7.85138397,-3.114105 -1.615407,-4.781975 4.276359,-1.143751 10.5253571,-6.8613919 10.5253571,-9.6303763 0,-0.7385175 0.672747,-1.9010897 1.494994,-2.5834938 1.204752,-0.9998555 1.981322,-0.92208050137 4,0.4006082 2.947168,1.9310585 3.258074,3.5952371 0.671673,3.5952371 -2.682025,0 -3.159326,0.8891082 -2.047364,3.8137895 1.411586,3.7127533 0.427099,6.4322273 -3.078138,8.5028223 -3.599642,2.126361 -3.917287,4.395678 -0.791165,5.652226 2.088414,0.83944 2.031721,0.908942 -0.789421,0.967776 -2.673575,0.05576 -3.034676,-0.267622 -3,-2.686614 z M 20.835616,2.9178082 c 0,-0.55 -0.45,-1 -1,-1 -0.55,0 -1,0.45 -1,1 0,0.55 0.45,1 1,1 0.55,0 1,-0.45 1,-1 z"
     id="path4731"
     style="fill:#000000" />
</svg>
