<?xml version="1.0"?>
<!DOCTYPE svg PUBLIC "-//W3C//DTD SVG 1.1//EN" "http://www.w3.org/Graphics/SVG/1.1/DTD/svg11.dtd">
<svg xmlns="http://www.w3.org/2000/svg" xmlns:xl="http://www.w3.org/1999/xlink" version="1.1" viewBox="426 1951 145 145" width="145pt" height="145pt"><metadata xmlns:dc="http://purl.org/dc/elements/1.1/"><dc:date>2011-10-07 04:31Z</dc:date><!-- Produced by OmniGraffle Professional 5.3 --></metadata><defs></defs><g stroke="none" stroke-opacity="1" stroke-dasharray="none" fill="none" fill-opacity="1"><title>Canvas 1</title><g><title>Layer 1</title><path d="M 465.1099 1971.79 L 476.92917 1971.79 C 479.35916 1971.79 481.32907 1973.7599 481.32907 1976.19 L 481.32907 1976.19 C 481.32907 1978.62 479.35916 1980.5898 476.92917 1980.5898 L 465.1099 1980.5898 C 462.6799 1980.5898 460.71 1978.62 460.71 1976.19 C 460.71 1976.19 460.71 1976.19 460.71 1976.19 L 460.71 1976.19 C 460.71 1973.7599 462.6799 1971.79 465.1099 1971.79 Z" fill="#cdcdcd"/><path d="M 446.859 1951.87 L 550.859 1951.87 C 561.90472 1951.87 570.859 1960.8243 570.859 1971.87 L 570.859 2075.8701 C 570.859 2086.9158 561.90472 2095.8701 550.859 2095.8701 L 446.859 2095.8701 C 435.81332 2095.8701 426.859 2086.9158 426.859 2075.8701 C 426.859 2075.8701 426.859 2075.8701 426.859 2075.8701 L 426.859 1971.87 C 426.859 1960.8243 435.81332 1951.87 446.859 1951.87 Z" fill="#3b3b3b"/><path d="M 445.234 2018.56 L 554.625 2018.56 C 557.3864 2018.56 559.625 2020.7986 559.625 2023.56 L 559.625 2024.1777 C 559.625 2026.9392 557.3864 2029.1777 554.625 2029.1777 L 445.234 2029.1777 C 442.4726 2029.1777 440.234 2026.9392 440.234 2024.1777 C 440.234 2024.1777 440.234 2024.1777 440.234 2024.1777 L 440.234 2023.56 C 440.234 2020.7986 442.4726 2018.56 445.234 2018.56 Z" fill="white"/><circle cx="498.85898" cy="2023.8689" r="29.283234" fill="#e1dbdb"/></g></g></svg>
