<?xml version="1.0"?>
<!DOCTYPE svg PUBLIC "-//W3C//DTD SVG 1.1//EN" "http://www.w3.org/Graphics/SVG/1.1/DTD/svg11.dtd">
<svg xmlns="http://www.w3.org/2000/svg" xmlns:xl="http://www.w3.org/1999/xlink" version="1.1" viewBox="422.1 1775.1 146.79999 146.79999" width="146.79999pt" height="146.79999pt"><metadata xmlns:dc="http://purl.org/dc/elements/1.1/"><dc:date>2011-07-21 22:34Z</dc:date><!-- Produced by OmniGraffle Professional 5.3 --></metadata><defs></defs><g stroke="none" stroke-opacity="1" stroke-dasharray="none" fill="none" fill-opacity="1"><title>Canvas 1</title><g><title>Layer 1</title><path d="M 461.45044 1796.7811 L 473.26971 1796.7811 C 475.6997 1796.7811 477.66962 1798.751 477.66962 1801.181 L 477.66962 1801.181 C 477.66962 1803.6111 475.6997 1805.5809 473.26971 1805.5809 L 461.45044 1805.5809 C 459.02045 1805.5809 457.05054 1803.6111 457.05054 1801.181 C 457.05054 1801.181 457.05054 1801.181 457.05054 1801.181 L 457.05054 1801.181 C 457.05054 1798.751 459.02045 1796.7811 461.45044 1796.7811 Z" fill="#cdcdcd"/><path d="M 443.2 1776.86 L 547.2 1776.86 C 558.24573 1776.86 567.2 1785.8143 567.2 1796.86 L 567.2 1900.86 C 567.2 1911.9056 558.24573 1920.86 547.2 1920.86 L 443.2 1920.86 C 432.15433 1920.86 423.2 1911.9056 423.2 1900.86 C 423.2 1900.86 423.2 1900.86 423.2 1900.86 L 423.2 1796.86 C 423.2 1785.8143 432.15433 1776.86 443.2 1776.86 Z" fill="#3b3b3b"/><path d="M 441.57538 1843.5511 L 550.9662 1843.5511 C 553.7276 1843.5511 555.9662 1845.7897 555.9662 1848.5511 L 555.9662 1849.1688 C 555.9662 1851.9303 553.7276 1854.1688 550.9662 1854.1688 L 441.57538 1854.1688 C 438.81396 1854.1688 436.57538 1851.9303 436.57538 1849.1688 C 436.57538 1849.1688 436.57538 1849.1688 436.57538 1849.1688 L 436.57538 1848.5511 C 436.57538 1845.7897 438.81396 1843.5511 441.57538 1843.5511 Z" fill="white"/><circle cx="486.33374" cy="1833.7704" r="29.283287" fill="#ff9658"/><circle cx="505.84192" cy="1858.33" r="29.12625" fill="#ff353e"/></g></g></svg>
