<?xml version="1.0"?>
<!DOCTYPE svg PUBLIC "-//W3C//DTD SVG 1.1//EN" "http://www.w3.org/Graphics/SVG/1.1/DTD/svg11.dtd">
<svg xmlns="http://www.w3.org/2000/svg" xmlns:xl="http://www.w3.org/1999/xlink" version="1.1" viewBox="394.20001 1744.2 166.60001 166.60001" width="166.60001pt" height="166.60001pt"><metadata xmlns:dc="http://purl.org/dc/elements/1.1/"><dc:date>2010-05-27 00:28Z</dc:date><!-- Produced by OmniGraffle Professional 5.2.2 --></metadata><defs></defs><g stroke="none" stroke-opacity="1" stroke-dasharray="none" fill="none" fill-opacity="1"><title>Canvas 1</title><g><title>Layer 1</title><path d="M 499.05237 1815.12 L 538.42908 1836.2137 L 499.05237 1857.3075 Z" fill="white"/><path d="M 416.3534 1746.5 L 538.6034 1746.5 C 549.6491 1746.5 558.6034 1755.4543 558.6034 1766.5 L 558.6034 1888.5 C 558.6034 1899.5457 549.6491 1908.5 538.6034 1908.5 L 416.3534 1908.5 C 405.3077 1908.5 396.3534 1899.5457 396.3534 1888.5 C 396.3534 1888.5 396.3534 1888.5 396.3534 1888.5 L 396.3534 1766.5 C 396.3534 1755.4543 405.3077 1746.5 416.3534 1746.5 Z" fill="#3b3b3b"/><rect x="513.66748" y="1773" width="17.435913" height="108.379395" fill="white"/><rect x="423" y="1792" width="72.224" height="71.5" fill="white"/><rect x="432.06915" y="1819.0048" width="54.266174" height="17.196533" fill="#3b3b3b"/></g></g></svg>
