<?xml version="1.0" encoding="UTF-8"?>
<!DOCTYPE svg PUBLIC "-//W3C//DTD SVG 1.1//EN" "http://www.w3.org/Graphics/SVG/1.1/DTD/svg11.dtd">
<svg version="1.1" xmlns="http://www.w3.org/2000/svg" xmlns:xlink="http://www.w3.org/1999/xlink" x="0px" y="0px" width="147" height="147" viewBox="0, 0, 147, 147">
  <g id="Layer 1">
    <path d="M65.57,98.667 C46.647,98.667 31.306,83.326 31.306,64.402 C31.306,45.479 46.647,30.138 65.57,30.138 C84.494,30.138 99.835,45.479 99.835,64.402 C99.835,83.326 84.494,98.667 65.57,98.667 z" fill-opacity="0" stroke="#000000" stroke-width="9"/>
    <path d="M65.57,83.147 C55.218,83.147 46.826,74.755 46.826,64.402 C46.826,54.05 55.218,45.658 65.57,45.658 C75.923,45.658 84.315,54.05 84.315,64.402 C84.315,74.755 75.923,83.147 65.57,83.147 z" fill-opacity="0" stroke="#000000" stroke-width="9"/>
    <path d="M65.57,65.156 L67.712,65.156 C68.609,65.156 69.335,65.821 69.335,66.641 L69.335,85.034 C69.335,85.855 68.609,86.52 67.712,86.52 L63.429,86.52 C62.532,86.52 61.805,85.855 61.805,85.034 L61.805,66.641 C61.805,65.821 62.532,65.156 63.429,65.156 z" fill="#000000"/>
    <path d="M69.382,57.914 C69.382,60.019 67.675,61.725 65.57,61.725 C63.465,61.725 61.759,60.019 61.759,57.914 C61.759,55.809 63.465,54.103 65.57,54.103 C67.675,54.103 69.382,55.809 69.382,57.914 z" fill="#000000"/>
  </g>
  <defs/>
</svg>
