<?xml version="1.0"?>
<!DOCTYPE svg PUBLIC "-//W3C//DTD SVG 1.1//EN" "http://www.w3.org/Graphics/SVG/1.1/DTD/svg11.dtd">
<svg xmlns="http://www.w3.org/2000/svg" xmlns:xl="http://www.w3.org/1999/xlink" version="1.1" viewBox="41 771 146 147" width="146pt" height="147pt"><metadata xmlns:dc="http://purl.org/dc/elements/1.1/"><dc:date>2007-08-30 20:26Z</dc:date><!-- Produced by OmniGraffle Professional 4.1.2 --></metadata><defs></defs><g stroke="none" stroke-opacity="1" stroke-dasharray="none" fill="none" fill-opacity="1"><title>Canvas 1</title><g><title>Layer 1</title><path d="M 114 772.17804 L 166 772.17804 C 177.0457 772.17804 186 781.13232 186 792.17804 L 186 896.17804 C 186 907.22375 177.0457 916.17804 166 916.17804 L 62 916.17804 C 50.954304 916.17804 42 907.22375 42 896.17804 L 41.999996 792.17804 C 41.999996 781.13232 50.9543 772.17804 61.999996 772.17804 Z" fill="#3b3b3b"/><path d="M 113.99998 830.44 L 119.27798 830.44 C 121.487114 830.44 123.27798 832.23083 123.27798 834.44 L 123.27798 883.9815 C 123.27798 886.1907 121.487114 887.9815 119.27798 887.9815 L 108.72198 887.9815 C 106.51284 887.9815 104.72198 886.1907 104.72198 883.9815 L 104.72198 834.44 C 104.72198 832.23083 106.51284 830.44 108.72198 830.44 Z" fill="#d1e66e"/><ellipse cx="113.99998" cy="811.0603" rx="9.278014" ry="9.900361" fill="#d1e66e"/></g></g></svg>
