<?xml version="1.0" encoding="UTF-8"?>
<!DOCTYPE svg PUBLIC "-//W3C//DTD SVG 1.1//EN" "http://www.w3.org/Graphics/SVG/1.1/DTD/svg11.dtd">
<svg version="1.1" xmlns="http://www.w3.org/2000/svg" xmlns:xlink="http://www.w3.org/1999/xlink" x="0px" y="0px" width="147" height="147" viewBox="0, 0, 147, 147">
  <g id="Layer 1">
    <path d="M70.994,82.296 C64.228,82.296 58.744,76.811 58.744,70.046 C58.744,63.28 64.228,57.796 70.994,57.796 C77.759,57.796 83.244,63.28 83.244,70.046 C83.244,76.811 77.759,82.296 70.994,82.296 z" fill="#000000"/>
    <path d="M72.983,59.443 Q73.891,59.443 74.514,60.073 Q75.136,60.703 75.136,61.596 Q75.136,62.49 74.507,63.12 Q73.877,63.75 72.983,63.75 Q72.104,63.75 71.474,63.12 Q70.844,62.49 70.844,61.596 Q70.844,60.703 71.467,60.073 Q72.09,59.443 72.983,59.443 z" fill="#FFFFFF"/>
    <path d="M73.012,66.181 L68.047,66.987 L67.856,67.573 Q68.164,67.558 68.383,67.558 Q68.867,67.558 69.145,67.807 Q69.424,68.056 69.424,68.379 Q69.424,68.891 69.131,69.902 L67.094,76.904 Q66.845,77.739 66.845,78.281 Q66.845,79.101 67.409,79.636 Q67.973,80.171 68.925,80.171 Q71.416,80.171 73.628,76.318 L73.13,76.025 Q72.207,77.446 71.548,77.988 Q71.299,78.208 71.049,78.208 Q70.903,78.208 70.771,78.069 Q70.639,77.929 70.639,77.768 Q70.639,77.49 70.888,76.596 L73.891,66.181 z" fill="#FFFFFF"/>
  </g>
  <defs/>
</svg>
