<?xml version="1.0" encoding="UTF-8"?>
<!DOCTYPE svg PUBLIC "-//W3C//DTD SVG 1.1//EN" "http://www.w3.org/Graphics/SVG/1.1/DTD/svg11.dtd">
<svg version="1.1" xmlns="http://www.w3.org/2000/svg" xmlns:xlink="http://www.w3.org/1999/xlink" x="0px" y="0px" width="163" height="163" viewBox="0, 0, 163, 163">
  <g id="Layer 1">
    <path d="M35.696,29.651 L87.971,29.651 C90.732,29.651 92.971,31.89 92.971,34.651 L92.971,126.63 C92.971,129.392 90.732,131.63 87.971,131.63 L35.696,131.63 C32.935,131.63 30.696,129.392 30.696,126.63 C30.696,126.63 30.696,126.63 30.696,126.63 L30.696,34.651 C30.696,31.89 32.935,29.651 35.696,29.651 z" fill="#000000"/>
    <path d="M107.68,29.651 L130.204,29.651 C132.965,29.651 135.204,31.89 135.204,34.651 L135.204,126.63 C135.204,129.392 132.965,131.63 130.204,131.63 L107.68,131.63 C104.918,131.63 102.68,129.392 102.68,126.63 C102.68,126.63 102.68,126.63 102.68,126.63 L102.68,34.651 C102.68,31.89 104.918,29.651 107.68,29.651 z" fill="#000000"/>
  </g>
  <defs/>
</svg>
