<?xml version="1.0"?>
<!DOCTYPE svg PUBLIC "-//W3C//DTD SVG 1.1//EN" "http://www.w3.org/Graphics/SVG/1.1/DTD/svg11.dtd">
<svg xmlns="http://www.w3.org/2000/svg" xmlns:xl="http://www.w3.org/1999/xlink" version="1.1" viewBox="152 1370 163 163" width="163pt" height="163pt"><metadata xmlns:dc="http://purl.org/dc/elements/1.1/"><dc:date>2011-04-28 23:00Z</dc:date><!-- Produced by OmniGraffle Professional 5.2.3 --></metadata><defs></defs><g stroke="none" stroke-opacity="1" stroke-dasharray="none" fill="none" fill-opacity="1"><title>Canvas 1</title><g><title>Layer 1</title><path d="M 181.65048 1379.4752 L 285.65048 1379.4752 C 296.69617 1379.4752 305.65048 1388.4296 305.65048 1399.4752 L 305.65048 1503.4752 C 305.65048 1514.5209 296.69617 1523.4752 285.65048 1523.4752 L 181.65048 1523.4752 C 170.60478 1523.4752 161.65048 1514.5209 161.65048 1503.4752 C 161.65048 1503.4752 161.65048 1503.4752 161.65048 1503.4752 L 161.65048 1399.4752 C 161.65048 1388.4296 170.60478 1379.4752 181.65048 1379.4752 Z" fill="#3b3b3b"/><path d="M 187.69608 1399.6511 L 239.97083 1399.6511 C 242.73225 1399.6511 244.97083 1401.88965 244.97083 1404.6511 L 244.97083 1496.6301 C 244.97083 1499.3916 242.73225 1501.6301 239.97083 1501.6301 L 187.69608 1501.6301 C 184.93465 1501.6301 182.69608 1499.3916 182.69608 1496.6301 C 182.69608 1496.6301 182.69608 1496.6301 182.69608 1496.6301 L 182.69608 1404.6511 C 182.69608 1401.88965 184.93465 1399.6511 187.69608 1399.6511 Z" fill="white"/><path d="M 259.67957 1399.6511 L 282.20386 1399.6511 C 284.96527 1399.6511 287.20386 1401.88965 287.20386 1404.6511 L 287.20386 1496.6301 C 287.20386 1499.3916 284.96527 1501.6301 282.20386 1501.6301 L 259.67957 1501.6301 C 256.91815 1501.6301 254.67957 1499.3916 254.67957 1496.6301 C 254.67957 1496.6301 254.67957 1496.6301 254.67957 1496.6301 L 254.6796 1404.6511 C 254.6796 1401.88965 256.91818 1399.6511 259.6796 1399.6511 Z" fill="#c6c6c6"/></g></g></svg>
