<?xml version="1.0"?>
<!DOCTYPE svg PUBLIC "-//W3C//DTD SVG 1.1//EN" "http://www.w3.org/Graphics/SVG/1.1/DTD/svg11.dtd">
<svg xmlns="http://www.w3.org/2000/svg" xmlns:xl="http://www.w3.org/1999/xlink" version="1.1" viewBox="352 824 147 147" width="147pt" height="147pt"><metadata xmlns:dc="http://purl.org/dc/elements/1.1/"><dc:date>2007-11-09 00:19Z</dc:date><!-- Produced by OmniGraffle Professional 4.2.1 --></metadata><defs></defs><g stroke="none" stroke-opacity="1" stroke-dasharray="none" fill="none" fill-opacity="1"><title>Canvas 1</title><g><title>Layer 1</title><path d="M 373.5 825.5 L 477.5 825.5 C 488.54568 825.5 497.5 834.4543 497.5 845.5 L 497.5 949.5 C 497.5 960.5457 488.54568 969.5 477.5 969.5 L 373.5 969.5 C 362.45432 969.5 353.5 960.5457 353.5 949.5 L 353.5 845.5 C 353.5 834.4543 362.45432 825.5 373.5 825.5 Z" fill="#3b3b3b"/><path d="M 440.15625 935.5718 C 421.37967 921.09717 402.69421 890.45874 398.42108 867.13885 C 394.14786 843.81897 405.90515 836.6485 424.68176 851.1233 C 443.45834 865.5979 462.1438 896.23633 466.41693 919.5562 C 470.69016 942.8761 458.93286 950.04657 440.15625 935.5718" fill="white"/><path d="M 403.67828 895.5111 L 418.8525 920.1272 C 419.43213 921.06744 419.13977 922.2996 418.1995 922.8792 C 417.9838 923.0122 417.74478 923.1029 417.49518 923.14667 L 403.197 925.6519 C 402.39035 925.7933 401.57904 925.4286 401.1493 924.73145 L 391.61115 909.2584 C 391.18143 908.5613 391.2201 907.6726 391.70877 907.01544 L 400.37085 895.3671 C 401.02997 894.4808 402.28284 894.29663 403.1692 894.95575 C 403.37253 895.10693 403.5453 895.2954 403.67825 895.5111 Z" fill="white"/><path d="M 426.82367 910.31805 C 422.44138 907.17627 418.2508 900.305 417.46371 894.9706 C 416.6766 889.63617 419.59106 887.85876 423.97333 891.00055 C 428.35562 894.14233 432.5462 901.0136 433.33328 906.348 C 434.1204 911.68243 431.20593 913.45984 426.82367 910.31805" fill="#3b3b3b"/></g></g></svg>
