<?xml version="1.0" encoding="UTF-8"?>
<!DOCTYPE svg PUBLIC "-//W3C//DTD SVG 1.1//EN" "http://www.w3.org/Graphics/SVG/1.1/DTD/svg11.dtd">
<svg version="1.1" xmlns="http://www.w3.org/2000/svg" xmlns:xlink="http://www.w3.org/1999/xlink" x="0px" y="0px" width="800" height="600" viewBox="0, 0, 800, 600">
  <g id="Layer 1">
    <path d="M174.674,186.379 C171.881,186.379 169.617,184.115 169.617,181.322 C169.617,178.53 171.881,176.266 174.674,176.266 C177.467,176.266 179.73,178.53 179.73,181.322 C179.73,184.115 177.467,186.379 174.674,186.379 z" fill="#000000"/>
    <path d="M196.824,186.379 C194.032,186.379 191.768,184.115 191.768,181.322 C191.768,178.53 194.032,176.266 196.824,176.266 C199.617,176.266 201.881,178.53 201.881,181.322 C201.881,184.115 199.617,186.379 196.824,186.379 z" fill="#000000"/>
    <path d="M218.975,186.379 C216.182,186.379 213.918,184.115 213.918,181.322 C213.918,178.53 216.182,176.266 218.975,176.266 C221.767,176.266 224.031,178.53 224.031,181.322 C224.031,184.115 221.767,186.379 218.975,186.379 z" fill="#000000"/>
  </g>
  <defs/>
</svg>
