<?xml version="1.0" encoding="utf-8"?>
<!-- Generator: Adobe Illustrator 13.0.2, SVG Export Plug-In . SVG Version: 6.00 Build 14948)  -->
<!DOCTYPE svg PUBLIC "-//W3C//DTD SVG 1.1//EN" "http://www.w3.org/Graphics/SVG/1.1/DTD/svg11.dtd">
<svg version="1.1" id="Layer_4" xmlns="http://www.w3.org/2000/svg" xmlns:xlink="http://www.w3.org/1999/xlink" x="0px" y="0px"
	 width="128px" height="128px" viewBox="0 0 128 128" enable-background="new 0 0 128 128" xml:space="preserve">
<path fill="#3C3C3C" d="M128,117.2c0,5.965-4.835,10.801-10.8,10.801H10.8C4.835,128,0,123.165,0,117.2V10.8C0,4.835,4.835,0,10.8,0
	h106.4c5.965,0,10.8,4.835,10.8,10.8V117.2z"/>
<g>
	<g>
		<path fill="#A7FCF4" d="M63.576,32.677c-26.004,0-45.281,11.482-54.579,27.787c8.555,17.372,28.586,29.813,55.654,29.813
			c26.003,0,45.281-11.481,54.578-27.787l0.002,0.001C110.676,45.119,90.645,32.677,63.576,32.677z M8.995,60.467
			c0-0.001,0.001-0.002,0.002-0.003c0-0.001,0-0.001-0.001-0.002L8.995,60.467z"/>
	</g>
</g>
<circle fill="none" stroke="#3C3C3C" stroke-width="13" cx="64.081" cy="62.058" r="17.591"/>
</svg>
