<?xml version="1.0"?>
<!DOCTYPE svg PUBLIC "-//W3C//DTD SVG 1.1//EN" "http://www.w3.org/Graphics/SVG/1.1/DTD/svg11.dtd">
<svg xmlns="http://www.w3.org/2000/svg" xmlns:xl="http://www.w3.org/1999/xlink" version="1.1" viewBox="74 496 147 146" width="147pt" height="146pt"><metadata xmlns:dc="http://purl.org/dc/elements/1.1/"><dc:date>2007-08-20 23:47Z</dc:date><!-- Produced by OmniGraffle Professional 4.1.2 --></metadata><defs></defs><g stroke="none" stroke-opacity="1" stroke-dasharray="none" fill="none" fill-opacity="1"><title>Canvas 1</title><g><title>Layer 1</title><path d="M 147.400024 497 L 199.40002 497 C 210.44572 497 219.40002 505.95432 219.40002 517 L 219.40002 621 C 219.40002 632.0457 210.44572 641 199.40002 641 L 95.400024 641 C 84.35433 641 75.400024 632.0457 75.400024 621 L 75.400024 517 C 75.400024 505.95432 84.35433 497 95.400024 497 Z" fill="#3b3b3b"/><path d="M 161.55138 556 L 191.71237 556 C 194.4738 556 196.71237 558.2386 196.71237 561 L 196.71237 614.24487 C 196.71237 617.0063 194.4738 619.24487 191.71237 619.24487 L 131.39038 619.24487 C 128.62895 619.24487 126.39038 617.0063 126.39038 614.24487 L 126.39038 561 C 126.39038 558.2386 128.62895 556 131.39038 556 Z" fill="White"/><path d="M 134.3904 519 L 164.55139 519 C 167.31282 519 169.55139 521.2386 169.55139 524 L 169.55139 577.24487 C 169.55139 580.0063 167.31282 582.24487 164.55139 582.24487 L 104.2294 582.24487 C 101.46798 582.24487 99.2294 580.0063 99.2294 577.24487 L 99.2294 524 C 99.2294 521.2386 101.46798 519 104.2294 519 Z" fill="#acacac"/><line x1="134.3896" y1="572.22235" x2="134.3896" y2="529.0224" fill="#3b3b3b"/><line x1="134.3896" y1="572.22235" x2="134.3896" y2="529.0224" stroke="#3b3b3b" stroke-linecap="butt" stroke-linejoin="round" stroke-width="14"/><line x1="111.789597" y1="550.62238" x2="156.9912" y2="550.62238" fill="#3b3b3b"/><line x1="111.789597" y1="550.62238" x2="156.9912" y2="550.62238" stroke="#3b3b3b" stroke-linecap="butt" stroke-linejoin="round" stroke-width="14"/></g></g></svg>
