<?xml version="1.0"?>
<!DOCTYPE svg PUBLIC "-//W3C//DTD SVG 1.1//EN" "http://www.w3.org/Graphics/SVG/1.1/DTD/svg11.dtd">
<svg xmlns="http://www.w3.org/2000/svg" xmlns:xl="http://www.w3.org/1999/xlink" version="1.1" viewBox="89 2920 94 95" width="94pt" height="95pt"><metadata xmlns:dc="http://purl.org/dc/elements/1.1/"><dc:date>2011-03-07 21:28Z</dc:date><!-- Produced by OmniGraffle Professional 5.2.3 --></metadata><defs></defs><g stroke="none" stroke-opacity="1" stroke-dasharray="none" fill="none" fill-opacity="1"><title>Canvas 1</title><g><title>Layer 1</title><path d="M 148.24942 2955.1138 C 154.81461 2961.679 154.81461 2972.323 148.24942 2978.8882 C 141.684265 2985.4534 131.04004 2985.4534 124.474884 2978.8882 C 117.9097 2972.323 117.9097 2961.679 124.474884 2955.1138 C 131.04004 2948.5486 141.684265 2948.5486 148.24942 2955.1138" stroke="#f9ffff" stroke-linecap="butt" stroke-linejoin="bevel" stroke-width="13"/><rect x="130.29498" y="2978.8501" width="12.134613" height="26.25" fill="#f9ffff"/><rect x="130.29498" y="2929" width="12.134613" height="26.25" fill="#f9ffff"/><rect x="147.55136" y="2960.9375" width="26.249908" height="12.1347656" fill="#f9ffff"/><rect x="98.55136" y="2960.9375" width="26.249893" height="12.1347656" fill="#f9ffff"/><path d="M 167.19327 2989.0654 L 158.61281 2997.646 L 140.05133 2979.0845 L 148.63179 2970.5039 Z" fill="#f9ffff"/><path d="M 130.29526 2952.3555 L 121.7148 2960.936 L 103.15331 2942.3745 L 111.733765 2933.794 Z" fill="#f9ffff"/><path d="M 123.2148 2971.564 L 131.79526 2980.1445 L 113.233765 2998.706 L 104.65331 2990.1255 Z" fill="#f9ffff"/><path d="M 160.9908 2935.384 L 169.57126 2943.9646 L 151.00978 2962.5261 L 142.42932 2953.9456 Z" fill="#f9ffff"/></g></g></svg>
