<?xml version="1.0" encoding="UTF-8"?>
<!DOCTYPE svg PUBLIC "-//W3C//DTD SVG 1.1//EN" "http://www.w3.org/Graphics/SVG/1.1/DTD/svg11.dtd">
<svg version="1.1" xmlns="http://www.w3.org/2000/svg" xmlns:xlink="http://www.w3.org/1999/xlink" x="0px" y="0px" width="128" height="128" viewBox="0, 0, 128, 128">
  <g id="Image">
    <path d="M65.184,84.5 C54.138,84.5 45.184,75.546 45.184,64.5 C45.184,53.454 54.138,44.5 65.184,44.5 C76.229,44.5 85.184,53.454 85.184,64.5 C85.184,75.546 76.229,84.5 65.184,84.5 z" fill-opacity="0" stroke="#000000" stroke-width="11"/>
    <path d="M89.164,70.25 L89.164,58.25 L95.164,60.25 L95.164,68.25 z" fill="#000000"/>
    <path d="M77.851,86.451 L86.336,77.966 L89.164,83.623 L83.507,89.28 z" fill="#000000"/>
    <path d="M70,40 L58,40 L60,34 L68,34 z" fill="#000000"/>
    <path d="M42.864,76.966 L51.349,85.451 L45.692,88.28 L40.036,82.623 z" fill="#000000"/>
    <path d="M58.251,88.78 L70.251,88.78 L68.251,94.78 L60.251,94.78 z" fill="#000000"/>
    <path d="M41.035,58.25 L41.035,70.25 L35.035,68.25 L35.035,60.25 z" fill="#000000"/>
    <path d="M51.849,42.828 L43.364,51.314 L40.536,45.657 L46.192,40 z" fill="#000000"/>
    <path d="M86.085,51.314 L77.6,42.828 L83.256,40 L88.913,45.657 z" fill="#000000"/>
  </g>
  <defs/>
</svg>
