<?xml version="1.0" encoding="UTF-8"?>
<!DOCTYPE svg PUBLIC "-//W3C//DTD SVG 1.1//EN" "http://www.w3.org/Graphics/SVG/1.1/DTD/svg11.dtd">
<svg version="1.1" xmlns="http://www.w3.org/2000/svg" xmlns:xlink="http://www.w3.org/1999/xlink" x="0px" y="0px" width="360" height="360" viewBox="0, 0, 360, 360">
  <g id="Layer 1">
    <path d="M115.076,102.929 L212.424,102.929 C221.027,102.929 228,109.716 228,118.089 L228,212.84 C228,221.213 221.027,228 212.424,228 L115.076,228 C106.474,228 99.5,221.213 99.5,212.84 L99.5,118.089 C99.5,109.716 106.474,102.929 115.076,102.929 z" fill="#000000"/>
    <path d="M201.03,165.704 L194.63,150.824 Q193.19,152.904 191.75,154.984 Q190.31,157.064 188.63,158.664 Q186.95,160.264 184.95,161.304 Q182.95,162.344 180.55,162.344 Q177.35,162.344 173.03,160.424 Q168.71,158.504 164.23,156.584 Q159.59,154.504 155.11,152.984 Q150.63,151.464 146.47,151.464 Q142.47,151.464 139.35,152.664 Q136.23,153.864 133.75,155.784 Q131.27,157.704 129.51,160.184 Q127.75,162.664 126.47,165.224 L132.87,180.104 Q133.83,178.024 135.03,175.944 Q136.23,173.864 137.91,172.264 Q139.59,170.664 141.67,169.624 Q143.75,168.584 146.31,168.584 Q151.91,168.584 156.39,170.264 Q160.87,171.944 164.71,174.184 Q168.71,176.424 172.63,177.944 Q176.55,179.464 181.03,179.464 Q184.71,179.464 187.67,178.264 Q190.63,177.064 193.03,175.144 Q195.43,173.224 197.35,170.744 Q199.27,168.264 201.03,165.704 z" fill="#FFFFFF"/>
  </g>
  <defs/>
</svg>
