<?xml version="1.0" encoding="UTF-8"?>
<!DOCTYPE svg PUBLIC "-//W3C//DTD SVG 1.1//EN" "http://www.w3.org/Graphics/SVG/1.1/DTD/svg11.dtd">
<svg version="1.1" xmlns="http://www.w3.org/2000/svg" xmlns:xlink="http://www.w3.org/1999/xlink" x="0px" y="0px" width="360" height="360" viewBox="0, 0, 360, 360">
  <g id="Layer 1">
    <path d="M115.076,102.929 L212.424,102.929 C221.027,102.929 228,109.716 228,118.089 L228,212.84 C228,221.213 221.027,228 212.424,228 L115.076,228 C106.474,228 99.5,221.213 99.5,212.84 L99.5,118.089 C99.5,109.716 106.474,102.929 115.076,102.929 z" fill="#000000"/>
    <path d="M156.165,165.506 C155.707,176.164 146.967,184.442 136.645,183.996 L125.709,183.524 C112.613,181.538 107.853,174.539 107.853,163.424 L107.853,163.424 C108.313,152.765 108.435,145.516 127.374,145.961 L140.504,146.867 C153.018,149.812 156.625,154.848 156.165,165.506 L156.165,165.506 z" fill-opacity="0" stroke="#FFFFFF" stroke-width="5"/>
    <path d="M171.12,171.231 C172.376,183.031 179.384,187.152 189.714,188.424 L200.659,188.5 C213.839,187.169 218.942,180.417 219.497,169.315 L219.497,169.315 C219.571,158.645 218.386,153.854 200.874,151.929 L187.714,152.125 C176.642,152.87 171.214,158.313 171.142,168.982 L171.12,171.231 z" fill-opacity="0" stroke="#FFFFFF" stroke-width="5"/>
    <path d="M156.184,162.976 C156.184,162.976 158.848,161.741 163.417,162.015 C167.987,162.29 170.389,163.246 171.395,164.382" fill-opacity="0" stroke="#FFFFFF" stroke-width="5"/>
  </g>
  <defs/>
</svg>
