<?xml version="1.0"?>
<!DOCTYPE svg PUBLIC "-//W3C//DTD SVG 1.1//EN" "http://www.w3.org/Graphics/SVG/1.1/DTD/svg11.dtd">
<svg xmlns="http://www.w3.org/2000/svg" xmlns:xl="http://www.w3.org/1999/xlink" version="1.1" viewBox="418 849 147 147" width="147pt" height="147pt"><metadata xmlns:dc="http://purl.org/dc/elements/1.1/"><dc:date>2008-04-10 18:38Z</dc:date><!-- Produced by OmniGraffle Professional 4.2.1 --></metadata><defs></defs><g stroke="none" stroke-opacity="1" stroke-dasharray="none" fill="none" fill-opacity="1"><title>Canvas 1</title><g><title>Layer 1</title><path d="M 439.549 850.93396 L 543.549 850.93396 C 554.59473 850.93396 563.549 859.88824 563.549 870.93396 L 563.549 974.93396 C 563.549 985.9797 554.59473 994.93396 543.549 994.93396 L 439.549 994.93396 C 428.50333 994.93396 419.549 985.9797 419.549 974.93396 L 419.549 870.93396 C 419.549 859.88824 428.50333 850.93396 439.549 850.93396 Z" fill="#3b3b3b"/><line x1="456.299" y1="978.934" x2="456.299" y2="866.934" fill="#d37650"/><line x1="456.299" y1="978.934" x2="456.299" y2="866.934" stroke="white" stroke-linecap="butt" stroke-linejoin="round" stroke-width="14"/><line x1="491.799" y1="978.934" x2="491.799" y2="866.934" fill="#d37650"/><line x1="491.799" y1="978.934" x2="491.799" y2="866.934" stroke="white" stroke-linecap="butt" stroke-linejoin="round" stroke-width="14"/><line x1="526.799" y1="978.934" x2="526.799" y2="866.934" fill="#d37650"/><line x1="526.799" y1="978.934" x2="526.799" y2="866.934" stroke="white" stroke-linecap="butt" stroke-linejoin="round" stroke-width="14"/><line x1="435.2" y1="957.77594" x2="547.2" y2="957.77594" fill="#d37650"/><line x1="435.2" y1="957.77594" x2="547.2" y2="957.77594" stroke="white" stroke-linecap="butt" stroke-linejoin="round" stroke-width="14"/><line x1="435.2" y1="923.27594" x2="547.2" y2="923.27594" fill="#d0d350"/><line x1="435.2" y1="923.27594" x2="547.2" y2="923.27594" stroke="white" stroke-linecap="butt" stroke-linejoin="round" stroke-width="14"/><line x1="435.2" y1="887.74896" x2="547.2" y2="887.74896" fill="#d37650"/><line x1="435.2" y1="887.74896" x2="547.2" y2="887.74896" stroke="white" stroke-linecap="butt" stroke-linejoin="round" stroke-width="14"/></g></g></svg>
