<?xml version="1.0" encoding="UTF-8"?>
<!DOCTYPE svg PUBLIC "-//W3C//DTD SVG 1.1//EN" "http://www.w3.org/Graphics/SVG/1.1/DTD/svg11.dtd">
<svg version="1.1" xmlns="http://www.w3.org/2000/svg" xmlns:xlink="http://www.w3.org/1999/xlink" x="0px" y="0px" width="146" height="146" viewBox="0, 0, 146, 146">
  <g id="Layer 2">
    <path d="M15.508,77.213 L52.721,125.514 L95.221,125.014 L117.721,76.514 C117.721,76.514 128.168,60.243 120.93,48.752 C113.221,36.514 108.139,47.752 108.139,47.752 C108.139,47.752 108.846,67.166 105.033,72.59 C101.221,78.014 100.221,72.014 100.221,72.014 C100.221,72.014 106.911,43.525 98.365,33.184 C88.721,21.514 83.449,32.662 83.449,32.662 C83.449,32.662 85.373,61.151 82.297,70.332 C79.221,79.514 77.721,70.514 77.721,70.514 C77.721,70.514 80.011,36.407 73.828,26.368 C66.221,14.014 60.043,24.957 60.043,24.957 C60.221,26.014 58.891,67.643 58.891,67.643 C58.891,67.643 51.648,42.133 43.625,32.948 C34.5,22.5 33.379,34.727 33.379,34.727 C33.379,34.727 49.689,87.463 46.205,72.239 C42.721,57.014 48.189,80.139 46.705,81.076 C45.221,82.014 39.725,77.244 26.221,68.014 C12.717,58.784 15.508,77.213 15.508,77.213 z" fill="#000000"/>
  </g>
  <defs/>
</svg>
