<?xml version="1.0"?>
<!DOCTYPE svg PUBLIC "-//W3C//DTD SVG 1.1//EN" "http://www.w3.org/Graphics/SVG/1.1/DTD/svg11.dtd">
<svg xmlns="http://www.w3.org/2000/svg" xmlns:xl="http://www.w3.org/1999/xlink" version="1.1" viewBox="277 487 147 147" width="147pt" height="147pt"><metadata xmlns:dc="http://purl.org/dc/elements/1.1/"><dc:date>2007-06-27 07:15Z</dc:date><!-- Produced by OmniGraffle Professional 4.1.2 --></metadata><defs></defs><g stroke="none" stroke-opacity="1" stroke-dasharray="none" fill="none" fill-opacity="1"><title>Canvas 1</title><g><title>Layer 1</title><path d="M 350.27802 488.3675 L 402.27802 488.3675 C 413.3237 488.3675 422.27802 497.3218 422.27802 508.3675 L 422.27802 612.3675 C 422.27802 623.4132 413.3237 632.3675 402.27802 632.3675 L 298.27802 632.3675 C 287.23233 632.3675 278.27802 623.4132 278.27802 612.3675 L 278.27802 508.3675 C 278.27802 497.3218 287.23233 488.3675 298.27802 488.3675 Z" fill="#3b3b3b"/><path d="M 350.27802 539.3675 C 339.3681 513.2813 308.4418 519.26965 308.27802 549.45758 C 308.1142 566.43817 323.04355 572.42572 332.88748 579.1524 C 342.40302 585.633 349.29355 594.4925 350.27802 598.102 C 351.26248 594.4925 358.80905 585.30542 367.66855 578.82483 C 377.3487 571.68817 392.44183 565.94592 392.27802 549.45758 C 392.11423 519.02356 360.61423 514.18433 350.27802 539.3675 Z" fill="#ffcd60"/></g></g></svg>
