<?xml version="1.0" encoding="UTF-8"?>
<!DOCTYPE svg PUBLIC "-//W3C//DTD SVG 1.1//EN" "http://www.w3.org/Graphics/SVG/1.1/DTD/svg11.dtd">
<svg version="1.1" xmlns="http://www.w3.org/2000/svg" xmlns:xlink="http://www.w3.org/1999/xlink" x="0" y="0" width="44.297" height="43.682" viewBox="0, 0, 44.297, 43.682">
  <g id="Layer_1" transform="translate(-479.803, -205.749)">
    <path d="M524.1,218.327 L493.372,218.327 Q497.269,222.668 498.909,227.59 L496.448,227.59 Q491.663,220.617 483.152,217.507 L483.152,227.59 L479.803,227.59 L479.803,205.749 L483.152,205.749 L483.152,215.832 Q491.663,212.722 496.448,205.749 L498.909,205.749 Q497.269,210.637 493.372,214.978 L524.1,214.978 z M524.1,249.431 L520.75,249.431 L520.75,239.348 Q512.239,242.458 507.454,249.431 L504.993,249.431 Q506.634,244.509 510.53,240.168 L479.803,240.168 L479.803,236.818 L510.53,236.818 Q506.634,232.478 504.993,227.59 L507.454,227.59 Q512.239,234.562 520.75,237.673 L520.75,227.59 L524.1,227.59 z" fill="#000000"/>
  </g>
</svg>
