<?xml version="1.0" encoding="UTF-8"?>
<!DOCTYPE svg PUBLIC "-//W3C//DTD SVG 1.1//EN" "http://www.w3.org/Graphics/SVG/1.1/DTD/svg11.dtd">
<svg version="1.1" xmlns="http://www.w3.org/2000/svg" xmlns:xlink="http://www.w3.org/1999/xlink" x="0px" y="0px" width="128" height="128" viewBox="0, 0, 128, 128">
  <g id="Image">
    <path d="M59.86,105.967 C57.597,103.432 51.947,98.489 47.305,94.983 C33.549,84.595 31.677,83.092 26.092,77.949 C15.796,68.468 11.423,58.943 11.438,46.028 C11.446,39.723 11.875,37.294 13.641,33.578 C16.637,27.273 21.049,22.587 26.69,19.722 C30.686,17.693 32.657,16.791 39.329,16.754 C46.309,16.715 47.778,17.529 51.884,19.785 C56.881,22.53 62.025,28.398 63.088,32.566 L63.745,35.14 L65.364,31.594 C74.516,11.56 103.734,11.86 113.902,32.092 C117.128,38.511 117.482,52.216 114.621,59.936 C110.89,70.006 103.882,77.684 87.683,89.449 C77.058,97.164 65.034,108.838 64.197,110.478 C63.226,112.381 64.151,110.776 59.86,105.967 z" fill="#000000"/>
  </g>
  <defs/>
</svg>
