<?xml version="1.0"?>
<!DOCTYPE svg PUBLIC "-//W3C//DTD SVG 1.1//EN" "http://www.w3.org/Graphics/SVG/1.1/DTD/svg11.dtd">
<svg xmlns="http://www.w3.org/2000/svg" xmlns:xl="http://www.w3.org/1999/xlink" version="1.1" viewBox="67 521 146 160" width="146pt" height="160pt"><metadata xmlns:dc="http://purl.org/dc/elements/1.1/"><dc:date>2007-06-27 07:15Z</dc:date><!-- Produced by OmniGraffle Professional 4.1.2 --></metadata><defs></defs><g stroke="none" stroke-opacity="1" stroke-dasharray="none" fill="none" fill-opacity="1"><title>Canvas 1</title><g><title>Layer 1</title><path d="M 140 531 L 192 531 C 203.0457 531 212 539.9543 212 551 L 212 655 C 212 666.0457 203.0457 675 192 675 L 88 675 C 76.954308 675 68 666.0457 68 655 L 68 551 C 68 539.9543 76.954308 531 88 531 Z" fill="#3b3b3b"/><line x1="139.99951" y1="573.6325" x2="139.99951" y2="632.3675" fill="#3b3b3b"/><line x1="139.99951" y1="573.6325" x2="139.99951" y2="632.3675" stroke="#ffcd60" stroke-linecap="butt" stroke-linejoin="round" stroke-width="8"/><line x1="121.50345" y1="556.53424" x2="142.60104" y2="577.63177" fill="#3b3b3b"/><line x1="121.50345" y1="556.53424" x2="142.60104" y2="577.63177" stroke="#ffcd60" stroke-linecap="butt" stroke-linejoin="round" stroke-width="8"/><line x1="158.95505" y1="556.53424" x2="137.85745" y2="577.63177" fill="#3b3b3b"/><line x1="158.95505" y1="556.53424" x2="137.85745" y2="577.63177" stroke="#ffcd60" stroke-linecap="butt" stroke-linejoin="round" stroke-width="8"/><line x1="142.60104" y1="624.20422" x2="121.50345" y2="645.30176" fill="#3b3b3b"/><line x1="142.60104" y1="624.20422" x2="121.50345" y2="645.30176" stroke="#ffcd60" stroke-linecap="butt" stroke-linejoin="round" stroke-width="8"/><line x1="136.85745" y1="624.20422" x2="157.95505" y2="645.30176" fill="#3b3b3b"/><line x1="136.85745" y1="624.20422" x2="157.95505" y2="645.30176" stroke="#ffcd60" stroke-linecap="butt" stroke-linejoin="round" stroke-width="8"/><line x1="155.81599" y1="644.90033" x2="166.18349" y2="644.90033" fill="#3b3b3b"/><line x1="155.81599" y1="644.90033" x2="166.18349" y2="644.90033" stroke="#ffcd60" stroke-linecap="butt" stroke-linejoin="round" stroke-width="8"/><line x1="113.772" y1="644.90033" x2="124.139496" y2="644.90033" fill="#3b3b3b"/><line x1="113.772" y1="644.90033" x2="124.139496" y2="644.90033" stroke="#ffcd60" stroke-linecap="butt" stroke-linejoin="round" stroke-width="8"/><line x1="154.81599" y1="558.0993" x2="165.18349" y2="558.0993" fill="#3b3b3b"/><line x1="154.81599" y1="558.0993" x2="165.18349" y2="558.0993" stroke="#ffcd60" stroke-linecap="butt" stroke-linejoin="round" stroke-width="8"/><line x1="113.772" y1="558.0993" x2="124.139496" y2="558.0993" fill="#3b3b3b"/><line x1="113.772" y1="558.0993" x2="124.139496" y2="558.0993" stroke="#ffcd60" stroke-linecap="butt" stroke-linejoin="round" stroke-width="8"/></g></g></svg>
