<?xml version="1.0"?>
<!DOCTYPE svg PUBLIC "-//W3C//DTD SVG 1.1//EN" "http://www.w3.org/Graphics/SVG/1.1/DTD/svg11.dtd">
<svg xmlns="http://www.w3.org/2000/svg" xmlns:xl="http://www.w3.org/1999/xlink" version="1.1" viewBox="163 824 147 147" width="147pt" height="147pt"><metadata xmlns:dc="http://purl.org/dc/elements/1.1/"><dc:date>2007-11-09 00:19Z</dc:date><!-- Produced by OmniGraffle Professional 4.2.1 --></metadata><defs></defs><g stroke="none" stroke-opacity="1" stroke-dasharray="none" fill="none" fill-opacity="1"><title>Canvas 1</title><g><title>Layer 1</title><path d="M 184.5 825.5 L 288.5 825.5 C 299.54568 825.5 308.5 834.4543 308.5 845.5 L 308.5 949.5 C 308.5 960.5457 299.54568 969.5 288.5 969.5 L 184.5 969.5 C 173.4543 969.5 164.5 960.5457 164.5 949.5 L 164.5 845.5 C 164.5 834.4543 173.4543 825.5 184.5 825.5 Z" fill="#3b3b3b"/><line x1="187.5128" y1="925.863" x2="258.01282" y2="925.863" fill="#3b3b3b"/><line x1="187.5128" y1="925.863" x2="258.01282" y2="925.863" stroke="white" stroke-linecap="butt" stroke-linejoin="round" stroke-width="14"/><path d="M 252.51283 901 L 285.48724 925.863 L 252.51283 950.72595 Z" fill="white"/><line x1="214.98721" y1="869.363" x2="285.48721" y2="869.363" fill="#3b3b3b"/><line x1="214.98721" y1="869.363" x2="285.48721" y2="869.363" stroke="white" stroke-linecap="butt" stroke-linejoin="round" stroke-width="14"/><path d="M 220.4872 894.22595 L 187.5128 869.363 L 220.4872 844.5 Z" fill="white"/></g></g></svg>
