<?xml version="1.0" encoding="UTF-8"?>
<!DOCTYPE svg PUBLIC "-//W3C//DTD SVG 1.1//EN" "http://www.w3.org/Graphics/SVG/1.1/DTD/svg11.dtd">
<svg version="1.1" xmlns="http://www.w3.org/2000/svg" xmlns:xlink="http://www.w3.org/1999/xlink" x="0" y="0" width="193" height="186" viewBox="0, 0, 193, 186">
  <g id="Layer_1" transform="translate(-285.5, -303)">
    <path d="M306.125,455 L457.875,455 L457.875,489 L306.125,489 L306.125,455 z" fill="#000000"/>
    <path d="M285.5,403 L319.5,403 L319.5,437 L285.5,437 L285.5,403 z" fill="#000000"/>
    <path d="M338.5,403 L372.5,403 L372.5,437 L338.5,437 L338.5,403 z" fill="#000000"/>
    <path d="M391.5,403 L425.5,403 L425.5,437 L391.5,437 L391.5,403 z" fill="#000000"/>
    <path d="M312,353 L346,353 L346,387 L312,387 L312,353 z" fill="#000000"/>
    <path d="M365,353 L399,353 L399,387 L365,387 L365,353 z" fill="#000000"/>
    <path d="M418,353 L452,353 L452,387 L418,387 L418,353 z" fill="#000000"/>
    <path d="M444.5,403 L478.5,403 L478.5,437 L444.5,437 L444.5,403 z" fill="#000000"/>
    <path d="M285.5,303 L319.5,303 L319.5,337 L285.5,337 L285.5,303 z" fill="#000000"/>
    <path d="M338.5,303 L372.5,303 L372.5,337 L338.5,337 L338.5,303 z" fill="#000000"/>
    <path d="M391.5,303 L425.5,303 L425.5,337 L391.5,337 L391.5,303 z" fill="#000000"/>
    <path d="M444.5,303 L478.5,303 L478.5,337 L444.5,337 L444.5,303 z" fill="#000000"/>
  </g>
</svg>
