<?xml version="1.0" encoding="UTF-8"?>
<!DOCTYPE svg PUBLIC "-//W3C//DTD SVG 1.1//EN" "http://www.w3.org/Graphics/SVG/1.1/DTD/svg11.dtd">
<svg version="1.1" xmlns="http://www.w3.org/2000/svg" xmlns:xlink="http://www.w3.org/1999/xlink" x="0px" y="0px" width="360" height="360" viewBox="0, 0, 360, 360">
  <g id="Layer 2">
    <path d="M156.25,89.782 C156.25,89.782 165.349,86.338 175.849,86.338 C186.349,86.338 195.751,89.782 195.751,89.782 L195.751,145.588 C195.751,145.588 190.599,142.838 176.349,142.838 C160.349,142.838 156.25,145.588 156.25,145.588 z" fill="#000000"/>
    <path d="M133.348,87.588" fill="#000000"/>
    <path d="M133.348,145.588" fill="#FFFFFF"/>
    <path d="M113.597,89.568 C113.597,89.568 122.696,86.125 133.196,86.125 C143.696,86.125 153.098,89.568 153.098,89.568 L153.098,145.375 C153.098,145.375 147.946,142.625 133.696,142.625 C117.696,142.625 113.597,145.375 113.597,145.375 z" fill="#000000"/>
  </g>
  <defs/>
</svg>
