<?xml version="1.0" encoding="utf-8"?>
<!-- Generator: Adobe Illustrator 13.0.1, SVG Export Plug-In . SVG Version: 6.00 Build 14948)  -->
<!DOCTYPE svg PUBLIC "-//W3C//DTD SVG 1.1//EN" "http://www.w3.org/Graphics/SVG/1.1/DTD/svg11.dtd">
<svg version="1.1" id="Layer_3" xmlns="http://www.w3.org/2000/svg" xmlns:xlink="http://www.w3.org/1999/xlink" x="0px" y="0px"
	 width="128px" height="128px" viewBox="0 0 128 128" enable-background="new 0 0 128 128" xml:space="preserve">
<path fill="#3C3C3C" d="M128,117.2c0,5.965-4.835,10.801-10.8,10.801H10.8C4.835,128,0,123.165,0,117.2V10.8C0,4.835,4.835,0,10.8,0
	h106.4c5.965,0,10.8,4.835,10.8,10.8V117.2z"/>
<path fill="#D6FF6A" d="M63.24,34.601c-18.474,0-33.455,14.974-33.455,33.448c0,2.091,0.198,4.137,0.562,6.122h32.682
	c3.695,0,6.689-2.995,6.689-6.689c0-3.693-2.994-6.69-6.689-6.69c-0.004,0-0.007,0-0.007,0h-18.49
	c2.91-7.495,10.186-12.809,18.708-12.809c11.087,0,20.072,8.984,20.072,20.066c0,6.062-2.689,11.489-6.935,15.171l9.477,9.478
	c6.661-6.113,10.835-14.895,10.835-24.648C96.689,49.575,81.718,34.601,63.24,34.601z"/>
<rect x="61.026" y="7.977" fill="#D6FF6A" width="5.555" height="11.752"/>
<rect x="61.026" y="108.225" fill="#D6FF6A" width="5.555" height="11.752"/>
<rect x="25.583" y="22.658" transform="matrix(0.7072 -0.7071 0.7071 0.7072 -11.8701 28.4088)" fill="#D6FF6A" width="5.556" height="11.752"/>
<rect x="96.469" y="93.544" transform="matrix(0.7071 -0.7071 0.7071 0.7071 -41.2323 99.2971)" fill="#D6FF6A" width="5.555" height="11.753"/>
<rect x="7.804" y="61.2" fill="#D6FF6A" width="11.752" height="5.555"/>
<rect x="108.052" y="61.2" fill="#D6FF6A" width="11.752" height="5.555"/>
<rect x="25.584" y="93.544" transform="matrix(-0.7071 -0.7071 0.7071 -0.7071 -21.8859 189.7754)" fill="#D6FF6A" width="5.555" height="11.752"/>
<rect x="96.469" y="22.658" transform="matrix(-0.7071 -0.7071 0.7071 -0.7071 149.2478 118.8888)" fill="#D6FF6A" width="5.555" height="11.752"/>
</svg>
