<?xml version="1.0" encoding="utf-8"?>
<!-- Generator: Adobe Illustrator 15.0.0, SVG Export Plug-In . SVG Version: 6.00 Build 0)  -->
<!DOCTYPE svg PUBLIC "-//W3C//DTD SVG 1.1//EN" "http://www.w3.org/Graphics/SVG/1.1/DTD/svg11.dtd">
<svg version="1.1" id="Layer_1" xmlns="http://www.w3.org/2000/svg" xmlns:xlink="http://www.w3.org/1999/xlink" x="0px" y="0px"
	 width="28px" height="28px" viewBox="0 0 28 28" enable-background="new 0 0 28 28" xml:space="preserve">
<path d="M22.438,14.184h-0.863v-3.447c0-3.809-3.088-6.896-6.895-6.896c-3.81,0-6.896,3.088-6.896,6.896v3.447H6.921
	c-0.951,0-1.724,0.773-1.724,1.724v10.345c0,0.95,0.772,1.724,1.724,1.724h15.517c0.951,0,1.724-0.773,1.724-1.724V15.908
	C24.161,14.957,23.389,14.184,22.438,14.184z M15.964,21.347v4.268h-2.591v-4.279c-0.643-0.425-1.067-1.152-1.067-1.98
	c0-1.312,1.062-2.375,2.374-2.375c1.311,0,2.373,1.063,2.373,2.375C17.053,20.191,16.618,20.924,15.964,21.347z M18.989,14.184
	h-8.62v-3.447c0-2.377,1.934-4.311,4.311-4.311c2.376,0,4.31,1.934,4.31,4.311V14.184z"/>
</svg>
