<?xml version="1.0" encoding="UTF-8"?>
<!DOCTYPE svg PUBLIC "-//W3C//DTD SVG 1.1//EN" "http://www.w3.org/Graphics/SVG/1.1/DTD/svg11.dtd">
<svg version="1.1" xmlns="http://www.w3.org/2000/svg" xmlns:xlink="http://www.w3.org/1999/xlink" x="0" y="0" width="86.329" height="100.6" viewBox="0, 0, 86.329, 100.6">
  <g id="Layer_1" transform="translate(-8.2, -2.8)">
    <path d="M25.2,19.8 L25.2,86.4" fill-opacity="0" stroke="#000000" stroke-width="8"/>
    <path d="M51.264,19.8 L51.264,86.4" fill-opacity="0" stroke="#000000" stroke-width="8"/>
    <path d="M77.529,19.8 L77.529,86.4" fill-opacity="0" stroke="#000000" stroke-width="8"/>
    <path d="M77.8,77.205 C71.449,77.205 66.3,72.057 66.3,65.705 C66.3,59.354 71.449,54.206 77.8,54.206 C84.151,54.206 89.3,59.354 89.3,65.705 C89.3,72.057 84.151,77.205 77.8,77.205 z" fill="#000000" id="path3893"/>
    <path d="M51.264,51.255 C44.913,51.255 39.764,46.107 39.764,39.755 C39.764,33.404 44.913,28.255 51.264,28.255 C57.616,28.255 62.764,33.404 62.764,39.755 C62.764,46.107 57.616,51.255 51.264,51.255 z" fill="#000000" id="path3893"/>
    <path d="M25.2,67.006 C18.849,67.006 13.7,61.857 13.7,55.505 C13.7,49.154 18.849,44.006 25.2,44.006 C31.551,44.006 36.7,49.154 36.7,55.505 C36.7,61.857 31.551,67.006 25.2,67.006 z" fill="#000000" id="path3893"/>
  </g>
</svg>
