<?xml version="1.0" encoding="UTF-8"?>
<!DOCTYPE svg PUBLIC "-//W3C//DTD SVG 1.1//EN" "http://www.w3.org/Graphics/SVG/1.1/DTD/svg11.dtd">
<svg version="1.1" xmlns="http://www.w3.org/2000/svg" xmlns:xlink="http://www.w3.org/1999/xlink" x="0" y="0" width="492" height="444" viewBox="0, 0, 492, 444">
  <g id="Layer_1">
    <path d="M246,441.107 C124.991,441.107 26.893,343.009 26.893,222 C26.893,100.991 124.991,2.893 246,2.893 C367.009,2.893 465.107,100.991 465.107,222 C465.107,343.009 367.009,441.107 246,441.107 z" fill="#53585F"/>
    <path d="M240.527,324.188 L290.259,289.365 L304.602,309.85 L254.87,344.673 z" fill="#FFFFFF"/>
    <path d="M260.005,270.365 L309.739,235.542 L324.082,256.027 L274.349,290.85 z" fill="#FFFFFF"/>
    <path d="M279.484,216.542 L329.216,181.719 L343.561,202.204 L293.828,237.027 z" fill="#FFFFFF"/>
    <path d="M298.963,162.72 L348.696,127.896 L363.039,148.381 L313.306,183.205 z" fill="#FFFFFF"/>
    <path d="M243.603,163.232 L293.335,128.408 L307.678,148.893 L257.946,183.717 z" fill="#FFFFFF"/>
    <path d="M188.242,163.744 L237.974,128.922 L252.317,149.407 L202.585,184.229 z" fill="#FFFFFF"/>
    <path d="M132.881,164.257 L182.614,129.434 L196.957,149.919 L147.224,184.742 z" fill="#FFFFFF"/>
  </g>
</svg>
