<?xml version="1.0" encoding="UTF-8"?>
<!DOCTYPE svg PUBLIC "-//W3C//DTD SVG 1.1//EN" "http://www.w3.org/Graphics/SVG/1.1/DTD/svg11.dtd">
<svg version="1.1" xmlns="http://www.w3.org/2000/svg" xmlns:xlink="http://www.w3.org/1999/xlink" x="0" y="0" width="492" height="444" viewBox="0, 0, 492, 444">
  <g id="Layer_1">
    <path d="M240.527,324.188 L290.259,289.365 L304.602,309.85 L254.87,344.673 z" fill="#FFFFFF"/>
    <path d="M260.005,270.365 L309.739,235.542 L324.082,256.027 L274.349,290.85 z" fill="#FFFFFF"/>
    <path d="M279.484,216.542 L329.216,181.719 L343.561,202.204 L293.828,237.027 z" fill="#FFFFFF"/>
    <path d="M298.963,162.72 L348.696,127.896 L363.039,148.381 L313.306,183.205 z" fill="#FFFFFF"/>
    <path d="M243.603,163.232 L293.335,128.408 L307.678,148.893 L257.946,183.717 z" fill="#FFFFFF"/>
    <path d="M188.242,163.744 L237.974,128.922 L252.317,149.407 L202.585,184.229 z" fill="#FFFFFF"/>
    <path d="M132.881,164.257 L182.614,129.434 L196.957,149.919 L147.224,184.742 z" fill="#FFFFFF"/>
    <path d="M86.203,14.5 L416.797,14.5 C440.105,14.5 459,33.395 459,56.703 L459,387.297 C459,410.605 440.105,429.5 416.797,429.5 L86.203,429.5 C62.895,429.5 44,410.605 44,387.297 L44,56.703 C44,33.395 62.895,14.5 86.203,14.5 z" fill="#404040"/>
    <path d="M247.154,326.163 C222.827,326.163 203.105,306.441 203.105,282.113 C203.105,257.785 222.827,238.064 247.154,238.064 C271.482,238.064 291.204,257.785 291.204,282.113 C291.204,306.441 271.482,326.163 247.154,326.163 z" fill="#B0DCDC"/>
    <path d="M247.154,385.32 C190.155,385.32 143.948,339.113 143.948,282.113 C143.948,225.114 190.155,178.907 247.154,178.907 C304.154,178.907 350.361,225.114 350.361,282.113 C350.361,339.113 304.154,385.32 247.154,385.32 z" fill-opacity="0" stroke="#BFBFBF" stroke-width="28"/>
    <path d="M285.178,181.079 C252.178,181.079 225.427,154.328 225.427,121.328 C225.427,88.328 252.178,61.577 285.178,61.577 C318.178,61.577 344.929,88.328 344.929,121.328 C344.929,154.328 318.178,181.079 285.178,181.079 z" fill-opacity="0" stroke="#BFBFBF" stroke-width="28"/>
  </g>
</svg>
