<?xml version="1.0" encoding="UTF-8"?>
<!DOCTYPE svg PUBLIC "-//W3C//DTD SVG 1.1//EN" "http://www.w3.org/Graphics/SVG/1.1/DTD/svg11.dtd">
<svg version="1.1" xmlns="http://www.w3.org/2000/svg" xmlns:xlink="http://www.w3.org/1999/xlink" x="0px" y="0px" width="360" height="360" viewBox="0, 0, 360, 360">
  <g id="Layer 1">
    <path d="M246.5,248.833 L130.5,247.5 C121.111,247.5 113.5,239.889 113.5,230.5 L113.5,130.5 C113.5,121.111 121.111,113.5 130.5,113.5" fill-opacity="0" stroke="#000000" stroke-width="11"/>
    <path d="M128.5,113.5 L247.667,113.5" fill-opacity="0" stroke="#000000" stroke-width="11"/>
    <path d="M178.242,160.717 L172.242,180.874 Q178.289,171.592 181.054,168.358 Q185.132,163.624 187.781,162.171 Q190.429,160.717 193.101,160.717 Q196.148,160.717 197.507,162.546 Q198.867,164.374 198.867,166.577 Q198.867,168.874 197.601,173.327 L195.492,180.874 Q201.585,171.499 204.257,168.405 Q208.382,163.624 211.429,161.936 Q213.539,160.717 215.929,160.717 Q218.414,160.717 220.078,162.382 Q221.742,164.046 221.742,166.717 Q221.742,169.717 220.335,174.499 L215.132,191.983 Q213.96,195.874 213.96,196.999 Q213.96,197.374 214.265,197.702 Q214.57,198.03 214.945,198.03 Q215.46,198.03 215.835,197.702 Q217.523,196.342 219.398,193.717 Q219.82,193.155 220.664,191.983 L222.257,193.014 Q219.023,199.061 215.156,201.874 Q211.289,204.686 208.007,204.686 Q205.148,204.686 203.414,203.116 Q201.679,201.546 201.679,199.436 Q201.679,197.421 202.851,193.342 L208.148,175.061 Q209.226,171.264 209.226,170.327 Q209.226,169.999 208.898,169.694 Q208.57,169.389 208.242,169.389 Q207.632,169.389 207.023,169.671 Q206.132,170.139 204.281,172.108 Q202.429,174.077 198.96,179.163 Q195.492,184.249 194.156,187.108 Q192.82,189.967 191.507,194.514 L188.648,204.171 L176.789,204.171 L185.554,173.561 Q186.257,171.077 186.257,170.139 Q186.257,169.811 185.953,169.53 Q185.648,169.249 185.32,169.249 Q183.585,169.249 179.835,173.796 Q174.117,180.827 169.429,190.717 L165.632,204.171 L153.679,204.171 L162.492,174.03 Q163.804,169.577 163.804,167.702 Q163.804,166.952 163.429,166.413 Q163.054,165.874 162.21,165.569 Q161.367,165.264 158.976,165.264 L159.445,163.483 L175.429,160.717 z" fill="#000000"/>
  </g>
  <defs/>
</svg>
