<?xml version="1.0"?>
<!DOCTYPE svg PUBLIC "-//W3C//DTD SVG 1.1//EN" "http://www.w3.org/Graphics/SVG/1.1/DTD/svg11.dtd">
<svg xmlns="http://www.w3.org/2000/svg" xmlns:xl="http://www.w3.org/1999/xlink" version="1.1" viewBox="311 1366 163 163" width="163pt" height="163pt"><metadata xmlns:dc="http://purl.org/dc/elements/1.1/"><dc:date>2011-05-03 18:32Z</dc:date><!-- Produced by OmniGraffle Professional 5.2.3 --></metadata><defs></defs><g stroke="none" stroke-opacity="1" stroke-dasharray="none" fill="none" fill-opacity="1"><title>Canvas 1</title><g><title>Layer 1</title><path d="M 340.18762 1375.4048 L 444.18762 1375.4048 C 455.2333 1375.4048 464.18762 1384.3591 464.18762 1395.4048 L 464.18762 1499.4048 C 464.18762 1510.4504 455.2333 1519.4048 444.18762 1519.4048 L 340.18762 1519.4048 C 329.14194 1519.4048 320.18762 1510.4504 320.18762 1499.4048 C 320.18762 1499.4048 320.18762 1499.4048 320.18762 1499.4048 L 320.18762 1395.4048 C 320.18762 1384.3591 329.14194 1375.4048 340.18762 1375.4048 Z" fill="#3b3b3b"/><circle cx="397.41785" cy="1451.48" r="38.163177" fill="white"/><line x1="376.70258" y1="1472.65186" x2="395.25873" y2="1453.9985" fill="#3b3b3b"/><line x1="376.70258" y1="1472.65186" x2="395.25873" y2="1453.9985" stroke="#3b3b3b" stroke-linecap="round" stroke-linejoin="round" stroke-width="11"/><circle cx="350.64066" cy="1485.8586" r="10.309624" fill="white"/><circle cx="339.76636" cy="1449.80945" r="10.3095455" fill="white"/><circle cx="351.89838" cy="1415.2167" r="10.3095455" fill="white"/><circle cx="382.63965" cy="1396.23206" r="10.3095455" fill="white"/><circle cx="421.56213" cy="1398.6987" r="10.3095455" fill="white"/></g></g></svg>
