<?xml version="1.0"?>
<!DOCTYPE svg PUBLIC "-//W3C//DTD SVG 1.1//EN" "http://www.w3.org/Graphics/SVG/1.1/DTD/svg11.dtd">
<svg xmlns="http://www.w3.org/2000/svg" xmlns:xl="http://www.w3.org/1999/xlink" version="1.1" viewBox="347 1549 145 145" width="145pt" height="145pt"><metadata xmlns:dc="http://purl.org/dc/elements/1.1/"><dc:date>2011-10-07 04:31Z</dc:date><!-- Produced by OmniGraffle Professional 5.3 --></metadata><defs></defs><g stroke="none" stroke-opacity="1" stroke-dasharray="none" fill="none" fill-opacity="1"><title>Canvas 1</title><g><title>Layer 1</title><path d="M 367.262 1549.51 L 471.262 1549.51 C 482.30768 1549.51 491.262 1558.4644 491.262 1569.51 L 491.262 1673.51 C 491.262 1684.5557 482.30768 1693.51 471.262 1693.51 L 367.262 1693.51 C 356.2163 1693.51 347.262 1684.5557 347.262 1673.51 C 347.262 1673.51 347.262 1673.51 347.262 1673.51 L 347.262 1569.51 C 347.262 1558.4644 356.2163 1549.51 367.262 1549.51 Z" fill="#3b3b3b"/><circle cx="424.49216" cy="1625.5933" r="38.163277" fill="#d0d350"/><line x1="403.77646" y1="1646.7617" x2="422.3326" y2="1628.1084" fill="#3b3b3b"/><line x1="403.77646" y1="1646.7617" x2="422.3326" y2="1628.1084" stroke="#3b3b3b" stroke-linecap="round" stroke-linejoin="round" stroke-width="11"/><circle cx="377.71454" cy="1659.9696" r="10.3095455" fill="#7dd66d"/><circle cx="366.84055" cy="1623.9196" r="10.3095455" fill="#7dd66d"/><circle cx="378.97253" cy="1589.3296" r="10.3095455" fill="#7dd66d"/><circle cx="409.71353" cy="1570.3396" r="10.3095455" fill="#e8e33f"/><circle cx="448.63654" cy="1572.8096" r="10.3095455" fill="white"/></g></g></svg>
