<?xml version="1.0"?>
<!DOCTYPE svg PUBLIC "-//W3C//DTD SVG 1.1//EN" "http://www.w3.org/Graphics/SVG/1.1/DTD/svg11.dtd">
<svg xmlns="http://www.w3.org/2000/svg" xmlns:xl="http://www.w3.org/1999/xlink" version="1.1" viewBox="322.20001 2977.2 166.60001 165.60001" width="166.60001pt" height="165.60001pt"><metadata xmlns:dc="http://purl.org/dc/elements/1.1/"><dc:date>2010-05-27 00:58Z</dc:date><!-- Produced by OmniGraffle Professional 5.2.2 --></metadata><defs></defs><g stroke="none" stroke-opacity="1" stroke-dasharray="none" fill="none" fill-opacity="1"><title>Canvas 1</title><g><title>Layer 1</title><path d="M 426.54196 3056.6201 L 465.91867 3077.7139 L 426.54196 3098.8076 Z" fill="white"/><path d="M 344 2979 L 466.25 2979 C 477.29568 2979 486.25 2987.9543 486.25 2999 L 486.25 3121 C 486.25 3132.0457 477.29568 3141 466.25 3141 L 344 3141 C 332.95432 3141 324 3132.0457 324 3121 C 324 3121 324 3121 324 3121 L 324 2999 C 324 2987.9543 332.95432 2979 344 2979 Z" fill="#3b3b3b"/><rect x="369.34296" y="3015.5" width="27" height="18" fill="white"/><rect x="369.34296" y="3051.5" width="27" height="18" fill="white"/><rect x="369.34296" y="3087.5" width="27" height="18" fill="white"/><rect x="404.84296" y="3015.5" width="27" height="18" fill="white"/><rect x="404.84296" y="3051.5" width="27" height="18" fill="white"/><rect x="404.84296" y="3087.5" width="27" height="18" fill="white"/><rect x="440.84296" y="3015.5" width="27" height="18" fill="white"/><rect x="440.84296" y="3051.5" width="27" height="18" fill="white"/><rect x="440.84296" y="3087.5" width="27" height="18" fill="white"/><rect x="342.40704" y="3015.5" width="17.435913" height="18" fill="white"/><rect x="342.40704" y="3051.5" width="17.435913" height="18" fill="white"/><rect x="342.40704" y="3087.5" width="17.435913" height="18" fill="white"/></g></g></svg>
