<?xml version="1.0"?>
<!DOCTYPE svg PUBLIC "-//W3C//DTD SVG 1.1//EN" "http://www.w3.org/Graphics/SVG/1.1/DTD/svg11.dtd">
<svg xmlns="http://www.w3.org/2000/svg" xmlns:xl="http://www.w3.org/1999/xlink" version="1.1" viewBox="160.2 3256.2 166.60001 165.60001" width="166.60001pt" height="165.60001pt"><metadata xmlns:dc="http://purl.org/dc/elements/1.1/"><dc:date>2010-05-29 09:51Z</dc:date><!-- Produced by OmniGraffle Professional 5.2.2 --></metadata><defs></defs><g stroke="none" stroke-opacity="1" stroke-dasharray="none" fill="none" fill-opacity="1"><title>Canvas 1</title><g><title>Layer 1</title><path d="M 264.699 3326.6201 L 304.07571 3347.7139 L 264.699 3368.8076 Z" fill="white"/><path d="M 182 3258 L 304.25 3258 C 315.29568 3258 324.25 3266.9543 324.25 3278 L 324.25 3400 C 324.25 3411.0457 315.29568 3420 304.25 3420 L 182 3420 C 170.9543 3420 162 3411.0457 162 3400 C 162 3400 162 3400 162 3400 L 162 3278 C 162 3266.9543 170.9543 3258 182 3258 Z" fill="#3b3b3b"/><rect x="207.5" y="3366.8198" width="98.575684" height="17.196289" fill="white"/><rect x="207.5" y="3330.8198" width="98.575684" height="17.196289" fill="white"/><rect x="207.5" y="3294.5" width="98.575684" height="17.196289" fill="white"/><rect x="180.5" y="3294" width="17.435913" height="18" fill="white"/><rect x="180.5" y="3330" width="17.435913" height="18" fill="white"/><rect x="180.5" y="3366" width="17.435913" height="18" fill="white"/></g></g></svg>
