<?xml version="1.0"?>
<!DOCTYPE svg PUBLIC "-//W3C//DTD SVG 1.1//EN" "http://www.w3.org/Graphics/SVG/1.1/DTD/svg11.dtd">
<svg xmlns="http://www.w3.org/2000/svg" xmlns:xl="http://www.w3.org/1999/xlink" version="1.1" viewBox="268 363 146 146" width="146pt" height="146pt"><metadata xmlns:dc="http://purl.org/dc/elements/1.1/"><dc:date>2007-08-30 16:44Z</dc:date><!-- Produced by OmniGraffle Professional 4.1.2 --></metadata><defs></defs><g stroke="none" stroke-opacity="1" stroke-dasharray="none" fill="none" fill-opacity="1"><title>Canvas 1</title><g><title>Layer 1</title><path d="M 341 364 L 393 364 C 404.04568 364 413 372.95432 413 384 L 413 488 C 413 499.04568 404.04568 508 393 508 L 289 508 C 277.95432 508 269 499.04568 269 488 L 269 384 C 269 372.95432 277.95432 364 289 364 Z" fill="#3b3b3b"/><path d="M 364.5 468.50003 L 339.637 501.47446 L 314.77399 468.50003 Z" fill="White"/><line x1="308.5" y1="436" x2="379" y2="436" fill="#3b3b3b"/><line x1="308.5" y1="436" x2="379" y2="436" stroke="White" stroke-linecap="butt" stroke-linejoin="round" stroke-width="14"/><line x1="341" y1="474" x2="341" y2="403.5" fill="#3b3b3b"/><line x1="341" y1="474" x2="341" y2="403.5" stroke="White" stroke-linecap="butt" stroke-linejoin="round" stroke-width="14"/><path d="M 373.5 411.137 L 406.47443 436 L 373.5 460.863 Z" fill="White"/><path d="M 314.77399 403.5 L 339.637 370.52557 L 364.5 403.5 Z" fill="White"/><path d="M 308.5 460.863 L 275.5256 436 L 308.50003 411.137 Z" fill="White"/></g></g></svg>
