<?xml version="1.0" encoding="UTF-8"?>
<!DOCTYPE svg PUBLIC "-//W3C//DTD SVG 1.1//EN" "http://www.w3.org/Graphics/SVG/1.1/DTD/svg11.dtd">
<svg version="1.1" xmlns="http://www.w3.org/2000/svg" xmlns:xlink="http://www.w3.org/1999/xlink" x="0" y="0" width="195.028" height="194.483" viewBox="0, 0, 195.028, 194.483">
  <g id="Layer_1" transform="translate(-514.486, -145.759)">
    <path d="M597.426,340.241 L592.784,305.841 L569.572,331.65 L575.276,297.41 L545.488,315.229 L561.031,284.192 L527.314,292.44 L551.315,267.363 L516.664,265.306 L546.991,248.418 L514.486,236.239 L548.443,229.04 L520.972,207.82 L555.542,210.95 L535.547,182.577 L567.658,195.757 L556.914,162.75 L583.714,184.811 L583.176,150.103 L602.284,179.083 L612,145.759 L621.716,179.083 L640.823,150.103 L640.285,184.81 L667.085,162.75 L656.341,195.757 L688.453,182.576 L668.458,210.95 L703.028,207.82 L675.557,229.039 L709.514,236.238 L677.009,248.418 L707.336,265.306 L672.685,267.363 L696.687,292.44 L662.969,284.192 L678.513,315.229 L648.724,297.41 L654.429,331.649 L631.216,305.841 L626.575,340.241 L612,308.738 z" fill="#000000"/>
    <path d="M567.744,220.804 L557.12,220.804 L557.12,266.5 L565.568,266.5 L565.568,234.5 L565.696,234.5 L576.96,266.5 L587.456,266.5 L587.456,220.804 L579.008,220.804 L579.008,252.1 L578.88,252.1 z" fill="#FFFFFF"/>
    <path d="M619.392,220.804 L593.856,220.804 L593.856,266.5 L620.032,266.5 L620.032,258.948 L603.072,258.948 L603.072,246.66 L618.432,246.66 L618.432,239.108 L603.072,239.108 L603.072,228.356 L619.392,228.356 z" fill="#FFFFFF"/>
    <path d="M621.952,220.804 L630.272,266.5 L640.576,266.5 L645.696,233.348 L645.824,233.348 L650.944,266.5 L661.248,266.5 L669.568,220.804 L660.736,220.804 L655.68,254.596 L655.552,254.596 L650.176,220.804 L641.344,220.804 L635.968,254.596 L635.84,254.596 L630.784,220.804 z" fill="#FFFFFF"/>
  </g>
</svg>
