<?xml version="1.0" encoding="utf-8"?>
<!-- Generator: Adobe Illustrator 13.0.2, SVG Export Plug-In . SVG Version: 6.00 Build 14948)  -->
<!DOCTYPE svg PUBLIC "-//W3C//DTD SVG 1.1//EN" "http://www.w3.org/Graphics/SVG/1.1/DTD/svg11.dtd">
<svg version="1.1" id="Layer_5" xmlns="http://www.w3.org/2000/svg" xmlns:xlink="http://www.w3.org/1999/xlink" x="0px" y="0px"
	 width="128px" height="128px" viewBox="0 0 128 128" enable-background="new 0 0 128 128" xml:space="preserve">
<path fill="#3C3C3C" d="M128,117.199c0,5.965-4.835,10.801-10.8,10.801H10.8C4.835,128,0,123.164,0,117.199V10.8
	C0,4.835,4.835,0,10.8,0h106.4c5.965,0,10.8,4.835,10.8,10.8V117.199z"/>
<g>
	<path fill="#D5FF6D" d="M32.154,62.927c0-5.468,1.348-10.761,4.043-15.879c2.695-5.117,6.513-9.023,11.455-11.719
		c4.941-2.695,10.459-4.043,16.553-4.043c9.413,0,17.129,3.057,23.145,9.17c6.015,6.114,9.023,13.838,9.023,23.174
		c0,9.414-3.038,17.218-9.111,23.408c-6.074,6.191-13.721,9.287-22.939,9.287c-5.704,0-11.143-1.289-16.318-3.867
		c-5.176-2.578-9.111-6.357-11.807-11.338S32.154,70.075,32.154,62.927z M49.029,63.806c0,6.173,1.465,10.898,4.395,14.18
		s6.542,4.922,10.84,4.922c4.297,0,7.9-1.641,10.811-4.922c2.909-3.281,4.365-8.047,4.365-14.297c0-6.094-1.456-10.781-4.365-14.062
		c-2.91-3.281-6.514-4.922-10.811-4.922c-4.297,0-7.91,1.641-10.84,4.922S49.029,57.634,49.029,63.806z"/>
</g>
</svg>
