<?xml version="1.0" encoding="UTF-8"?>
<!DOCTYPE svg PUBLIC "-//W3C//DTD SVG 1.1//EN" "http://www.w3.org/Graphics/SVG/1.1/DTD/svg11.dtd">
<svg version="1.1" xmlns="http://www.w3.org/2000/svg" xmlns:xlink="http://www.w3.org/1999/xlink" x="0px" y="0px" width="360" height="360" viewBox="0, 0, 360, 360">
  <g id="Layer 2">
    <path d="M125,127 L221.337,127 L221.337,186.335 L125,186.335 z" fill="#000000"/>
    <path d="M146.001,138.001 C140.109,138.001 135.333,133.225 135.333,127.334 C135.333,121.443 140.109,116.667 146.001,116.667 C151.892,116.667 156.668,121.443 156.668,127.334 C156.668,133.225 151.892,138.001 146.001,138.001 z" fill="#000000"/>
    <path d="M200.001,138.001 C194.109,138.001 189.333,133.225 189.333,127.334 C189.333,121.443 194.109,116.667 200.001,116.667 C205.892,116.667 210.668,121.443 210.668,127.334 C210.668,133.225 205.892,138.001 200.001,138.001 z" fill="#000000"/>
    <path d="M146.001,196.335 C140.109,196.335 135.333,191.559 135.333,185.667 C135.333,179.776 140.109,175 146.001,175 C151.892,175 156.668,179.776 156.668,185.667 C156.668,191.559 151.892,196.335 146.001,196.335 z" fill="#000000"/>
    <path d="M200.001,196.335 C194.109,196.335 189.333,191.559 189.333,185.667 C189.333,179.776 194.109,175 200.001,175 C205.892,175 210.668,179.776 210.668,185.667 C210.668,191.559 205.892,196.335 200.001,196.335 z" fill="#000000"/>
  </g>
  <defs/>
</svg>
