<?xml version="1.0" encoding="UTF-8"?>
<!DOCTYPE svg PUBLIC "-//W3C//DTD SVG 1.1//EN" "http://www.w3.org/Graphics/SVG/1.1/DTD/svg11.dtd">
<svg version="1.1" xmlns="http://www.w3.org/2000/svg" xmlns:xlink="http://www.w3.org/1999/xlink" x="0px" y="0px" width="56.693" height="56.693" viewBox="0, 0, 56.693, 56.693">
  <g id="Layer 1">
    <path d="M20.037,23.295 C19.615,22.872 18.939,22.844 18.482,23.229 L17.094,24.403 C8.047,31.961 4.698,32.725 4.694,32.727 C4.267,32.797 3.915,33.098 3.784,33.508 C3.651,33.918 3.76,34.369 4.065,34.674 L6.13,36.74 C6.486,37.094 7.031,37.178 7.475,36.945 L11.024,35.091 L8.758,37.92 C8.39,38.377 8.427,39.035 8.841,39.449 L10.563,41.172 C10.91,41.518 11.437,41.606 11.878,41.393 L14.665,40.039 L13.304,42.812 C13.087,43.253 13.175,43.783 13.522,44.13 L14.411,45.017 C14.803,45.41 15.421,45.464 15.877,45.15 L19.004,42.976 L17.006,46.404 C16.743,46.855 16.818,47.427 17.188,47.795 L18.009,48.617 C18.429,49.037 19.097,49.068 19.553,48.691 L23.555,45.388 L21.04,50.554 C20.826,50.995 20.915,51.523 21.262,51.868 L23.471,54.077 C23.77,54.376 24.209,54.475 24.616,54.354 C25.019,54.231 25.327,53.887 25.414,53.473 C25.418,53.453 25.901,51.291 29.952,45.834 L35.054,39.797 C35.439,39.34 35.411,38.664 34.988,38.242 L20.037,23.295 z" fill="#000000"/>
    <path d="M38.931,25.246 L50.831,17.767 C53.675,14.923 53.675,10.294 50.83,7.449 C47.986,4.606 43.357,4.606 40.477,7.488 L33.068,19.293 L33.068,19.292 C33.068,19.292 31.493,21.422 30.186,21.118 L28.369,19.299 C26.254,17.186 24.223,17.961 23.403,18.703 L22.168,19.939 C21.718,20.388 21.718,21.115 22.168,21.564 L36.582,35.978 C37.03,36.427 37.757,36.427 38.206,35.978 L39.481,34.701 C40.185,33.922 40.96,31.89 38.846,29.777 L37.156,28.088 C36.882,26.898 38.612,25.491 38.931,25.246 z M44.408,11.346 L44.409,11.344 C45.107,10.645 46.237,10.647 46.936,11.344 C47.632,12.042 47.632,13.172 46.936,13.869 C46.237,14.568 45.107,14.568 44.408,13.871 C43.71,13.174 43.71,12.043 44.408,11.346 z" fill="#000000"/>
  </g>
  <defs/>
</svg>
