<?xml version="1.0" encoding="UTF-8"?>
<!DOCTYPE svg PUBLIC "-//W3C//DTD SVG 1.1//EN" "http://www.w3.org/Graphics/SVG/1.1/DTD/svg11.dtd">
<svg version="1.1" xmlns="http://www.w3.org/2000/svg" xmlns:xlink="http://www.w3.org/1999/xlink" x="0" y="0" width="128" height="128" viewBox="0, 0, 128, 128">
  <g id="Image">
    <path d="M64,4 L124,64 L64,124 L4,64 L64,4 z M73.232,38.592 L50.048,38.592 L50.048,90 L61.352,90 L61.352,71.568 L73.232,71.568 Q78.056,71.568 81.44,70.164 Q84.824,68.76 86.948,66.456 Q89.072,64.152 90.044,61.164 Q91.016,58.176 91.016,55.08 Q91.016,51.912 90.044,48.96 Q89.072,46.008 86.948,43.704 Q84.824,41.4 81.44,39.996 Q78.056,38.592 73.232,38.592 z M70.136,47.376 Q72.08,47.376 73.88,47.664 Q75.68,47.952 77.048,48.78 Q78.416,49.608 79.244,51.12 Q80.072,52.632 80.072,55.08 Q80.072,57.528 79.244,59.04 Q78.416,60.552 77.048,61.38 Q75.68,62.208 73.88,62.496 Q72.08,62.784 70.136,62.784 L61.352,62.784 L61.352,47.376 L70.136,47.376 z" fill="#000000"/>
  </g>
</svg>
