<?xml version="1.0"?>
<!DOCTYPE svg PUBLIC "-//W3C//DTD SVG 1.1//EN" "http://www.w3.org/Graphics/SVG/1.1/DTD/svg11.dtd">
<svg xmlns="http://www.w3.org/2000/svg" xmlns:xl="http://www.w3.org/1999/xlink" version="1.1" viewBox="60 322 147 147" width="147pt" height="147pt"><metadata xmlns:dc="http://purl.org/dc/elements/1.1/"><dc:date>2007-05-05 05:04Z</dc:date><!-- Produced by OmniGraffle Professional 4.1.2 --></metadata><defs></defs><g stroke="none" stroke-opacity="1" stroke-dasharray="none" fill="none" fill-opacity="1"><title>Canvas 1</title><g><title>Layer 1</title><path d="M 133.12927 323.68878 L 185.12927 323.68878 C 196.17497 323.68878 205.12927 332.6431 205.12927 343.68878 L 205.12927 447.68878 C 205.12927 458.73447 196.17497 467.68878 185.12927 467.68878 L 81.129272 467.68878 C 70.08358 467.68878 61.129272 458.73447 61.129272 447.68878 L 61.129272 343.68878 C 61.129272 332.6431 70.08358 323.68878 81.129272 323.68878 Z" fill="#3b3b3b"/><line x1="107.165955" y1="391.70038" x2="107.165955" y2="354" fill="#3b3b3b"/><line x1="107.165955" y1="391.70038" x2="107.165955" y2="354" stroke="White" stroke-linecap="round" stroke-linejoin="round" stroke-width="8"/><path d="M 133.12927 366 L 166.12927 366 C 171.09984 366 175.12927 370.02945 175.12927 375 L 175.12927 403 C 175.12927 407.97055 171.09984 412 166.12927 412 L 100.12927 412 C 95.158707 412 91.12927 407.97055 91.12927 403 L 91.12927 375 C 91.12927 370.02945 95.158707 366 100.12927 366 Z" fill="White"/><line x1="107.16597" y1="424.74585" x2="107.16597" y2="392.00037" fill="#3b3b3b"/><line x1="107.16597" y1="424.74585" x2="107.16597" y2="392.00037" stroke="White" stroke-linecap="round" stroke-linejoin="round" stroke-width="8"/><line x1="157.278015" y1="425" x2="157.278015" y2="392" fill="#3b3b3b"/><line x1="157.278015" y1="425" x2="157.278015" y2="392" stroke="White" stroke-linecap="round" stroke-linejoin="round" stroke-width="8"/></g></g></svg>
