<?xml version="1.0"?>
<!DOCTYPE svg PUBLIC "-//W3C//DTD SVG 1.1//EN" "http://www.w3.org/Graphics/SVG/1.1/DTD/svg11.dtd">
<svg xmlns="http://www.w3.org/2000/svg" xmlns:xl="http://www.w3.org/1999/xlink" version="1.1" viewBox="233 304 147 147" width="147pt" height="147pt"><metadata xmlns:dc="http://purl.org/dc/elements/1.1/"><dc:date>2007-06-27 07:15Z</dc:date><!-- Produced by OmniGraffle Professional 4.1.2 --></metadata><defs></defs><g stroke="none" stroke-opacity="1" stroke-dasharray="none" fill="none" fill-opacity="1"><title>Canvas 1</title><g><title>Layer 1</title><path d="M 306.55603 305.3675 L 358.55603 305.3675 C 369.60172 305.3675 378.55603 314.3218 378.55603 325.3675 L 378.55603 429.3675 C 378.55603 440.41318 369.60172 449.3675 358.55603 449.3675 L 254.55603 449.3675 C 243.51033 449.3675 234.55603 440.41318 234.55603 429.3675 L 234.55603 325.3675 C 234.55603 314.3218 243.51033 305.3675 254.55603 305.3675 Z" fill="#3b3b3b"/><path d="M 324.38861 327.7853 L 332.9126 330.88779 C 334.9885 331.64334 336.05884 333.93872 335.30328 336.01462 C 335.30328 336.01462 335.30328 336.01462 335.30328 336.01462 L 312.73633 398.01688 C 311.98077 400.09277 309.6854 401.16312 307.6095 400.40756 C 307.6095 400.40756 307.6095 400.40756 307.6095 400.40756 L 290.56152 394.2026 C 288.48563 393.44705 287.41528 391.15167 288.17084 389.07578 C 288.17084 389.07578 288.17084 389.07578 288.17084 389.07578 L 310.7378 327.07352 C 311.49335 324.99762 313.78873 323.92728 315.86462 324.68283 Z" fill="#ffcd60"/><path d="M 283.89221 398.63092 L 286.94519 430.56686 L 309.81192 408.06494 Z" fill="#ffcd60"/></g></g></svg>
