<?xml version="1.0" encoding="UTF-8"?>
<!DOCTYPE svg PUBLIC "-//W3C//DTD SVG 1.1//EN" "http://www.w3.org/Graphics/SVG/1.1/DTD/svg11.dtd">
<svg version="1.1" xmlns="http://www.w3.org/2000/svg" xmlns:xlink="http://www.w3.org/1999/xlink" x="0px" y="0px" width="147" height="146" viewBox="0, 0, 147, 146">
  <g id="Layer 1">
    <path d="M16.883,16.583 L129.717,16.583 L129.717,129.417 L16.883,129.417 z" fill="#FFFFFF"/>
    <path d="M86.133,29.506 L93.59,32.22 C95.406,32.881 96.342,34.889 95.681,36.705 C95.681,36.705 95.681,36.705 95.681,36.705 L75.939,90.945 C75.279,92.761 73.27,93.697 71.454,93.036 C71.454,93.036 71.454,93.036 71.454,93.036 L56.541,87.608 C54.725,86.947 53.788,84.939 54.449,83.123 L74.191,28.883 C74.852,27.067 76.86,26.131 78.676,26.792 C78.676,26.792 78.676,26.792 78.676,26.792 z" fill="#000000"/>
    <path d="M50.707,91.482 L53.377,119.42 L73.381,99.735 z" fill="#000000"/>
  </g>
  <defs/>
</svg>
