<?xml version="1.0" encoding="UTF-8"?>
<!DOCTYPE svg PUBLIC "-//W3C//DTD SVG 1.1//EN" "http://www.w3.org/Graphics/SVG/1.1/DTD/svg11.dtd">
<svg version="1.1" xmlns="http://www.w3.org/2000/svg" xmlns:xlink="http://www.w3.org/1999/xlink" x="0px" y="0px" width="147" height="147" viewBox="0, 0, 147, 147">
  <g id="Layer 1">
    <path d="M44.499,39.754 L102.501,39.754 L102.501,97.755 L44.499,97.755 z" fill="#FFFFFF"/>
    <path d="M69.637,86.792 L79.688,86.792 L79.688,96.167 L69.637,96.167 z M57.712,59.642 Q57.712,55.517 58.95,52.142 Q60.187,48.767 62.55,46.367 Q64.912,43.967 68.25,42.654 Q71.588,41.342 75.713,41.342 Q79.162,41.342 82.125,42.354 Q85.088,43.367 87.3,45.279 Q89.512,47.192 90.787,50.042 Q92.062,52.892 92.062,56.492 Q92.062,59.117 91.5,61.029 Q90.938,62.942 90,64.329 Q89.062,65.717 87.862,66.804 Q86.662,67.892 85.463,68.942 Q84.037,70.142 82.838,71.267 Q81.637,72.392 80.737,73.779 Q79.838,75.167 79.35,77.042 Q78.862,78.917 78.862,81.617 L70.762,81.617 Q70.762,78.317 71.1,76.029 Q71.438,73.742 72.188,72.017 Q72.938,70.292 74.025,68.979 Q75.112,67.667 76.612,66.392 Q77.812,65.342 78.9,64.442 Q79.987,63.542 80.85,62.454 Q81.713,61.367 82.2,60.017 Q82.688,58.667 82.688,56.792 Q82.688,54.542 81.9,52.929 Q81.112,51.317 79.987,50.342 Q78.862,49.367 77.588,48.917 Q76.312,48.467 75.338,48.467 Q70.688,48.467 68.475,51.504 Q66.262,54.542 66.262,59.642 z" fill="#000000"/>
  </g>
  <defs/>
</svg>
