<?xml version="1.0" encoding="UTF-8"?>
<!DOCTYPE svg PUBLIC "-//W3C//DTD SVG 1.1//EN" "http://www.w3.org/Graphics/SVG/1.1/DTD/svg11.dtd">
<svg version="1.1" xmlns="http://www.w3.org/2000/svg" xmlns:xlink="http://www.w3.org/1999/xlink" x="0" y="0" width="800" height="600" viewBox="0, 0, 800, 600">
  <g id="Layer_1">
    <path d="M384.5,96.5" fill-opacity="0" stroke="#000000" stroke-width="1"/>
    <path d="M288,257.454 L443.569,84 C505.593,139.629 533.194,224.143 515.957,305.656 L288,257.454 z" fill="#EECC00"/>
    <path d="M192.5,93.637" fill-opacity="0" stroke="#000000" stroke-width="1"/>
    <path d="M288.181,257.752 L215.75,36.298 C294.938,10.398 381.929,28.753 443.904,84.437 L288.181,257.752 z" fill="#00EE22"/>
    <path d="M288.125,257.877 L60.125,209.877 C77.289,128.348 136.68,62.189 215.891,36.359 L288.125,257.877 z" fill="#00EEEE"/>
    <path d="M288.252,257.702 L132.682,431.156 C70.658,375.527 43.058,291.014 60.294,209.5 L288.252,257.702 z" fill="#672BFF"/>
    <path d="M288.223,257.75 L360.654,479.204 C281.466,505.104 194.475,486.75 132.5,431.066 L288.223,257.75 z" fill="#FF2BE1"/>
    <path d="M288.125,257.5 L516.125,305.5 C498.961,387.029 439.57,453.188 360.359,479.018 L288.125,257.5 z" fill="#EE0000"/>
  </g>
</svg>
