<?xml version="1.0" encoding="utf-8"?>
<!-- Generator: Adobe Illustrator 20.0.0, SVG Export Plug-In . SVG Version: 6.00 Build 0)  -->
<svg version="1.1" xmlns="http://www.w3.org/2000/svg" xmlns:xlink="http://www.w3.org/1999/xlink" x="0px" y="0px"
	 viewBox="0 0 126 121" xml:space="preserve">

<g id="Ebene_1" >
	<path d="M69.8,57.7c1.1-2.2,2.4-5,3.4-7.6c0.9-2.3-0.1-5.5-2.2-6.8c-13.3-8.9-58.5-34.5-63.6,23
		c-0.2,2.5-0.7,2.5-0.9,0c-0.9-8.6-1.3-27.8,10.1-38.1c1.9-1.7,5.1-4.1,7.2-5.4c7.4-4.8,26-13.2,52.7,1.1c2.2,1.2,4.3,0.2,4.8-2.2
		l1.9-8.7c0.5-2.4,2-2.7,3.3-0.5l21.9,36.2c1.3,2.1,0.4,4.3-2.1,4.8l-34.1,7.4C69.8,61.3,68.8,59.9,69.8,57.7z M103.9,102.6
		c-7.4,4.8-26,13.2-52.7-1.1c-2.2-1.2-4.6-0.3-5.4,2l-2.3,6.6c-0.8,2.4-2.4,2.5-3.6,0.3L22.5,77.2c-1.2-2.2-0.2-4.6,2.2-5.3
		l28.9-8.8c2.4-0.7,3.8,0.6,3.1,3c-0.7,2.7-1.7,6.2-2.5,9.2c-0.7,2.4,0.5,5.5,2.6,6.9c13.5,8.6,59,33.2,64-23.5
		c0.2-2.5,0.6-2.5,0.8,0c0.7,8.8,0.9,28.2-10.6,38.6C109.2,98.8,106,101.2,103.9,102.6z" fill="#000000"/>
</g>
</svg>
