<?xml version="1.0"?>
<!DOCTYPE svg PUBLIC "-//W3C//DTD SVG 1.1//EN" "http://www.w3.org/Graphics/SVG/1.1/DTD/svg11.dtd">
<svg xmlns="http://www.w3.org/2000/svg" xmlns:xl="http://www.w3.org/1999/xlink" version="1.1" viewBox="393.20001 1546.19995 166.60001 165.60001" width="166.60001pt" height="165.60001pt"><metadata xmlns:dc="http://purl.org/dc/elements/1.1/"><dc:date>2010-05-27 00:17Z</dc:date><!-- Produced by OmniGraffle Professional 5.2.2 --></metadata><defs></defs><g stroke="none" stroke-opacity="1" stroke-dasharray="none" fill="none" fill-opacity="1"><title>Canvas 1</title><g><title>Layer 1</title><path d="M 498.44876 1616.625 L 537.8255 1637.71875 L 498.44876 1658.8125 Z" fill="white"/><path d="M 415.75 1548 L 538 1548 C 549.0457 1548 558 1556.9543 558 1568 L 558 1690 C 558 1701.0457 549.0457 1710 538 1710 L 415.75 1710 C 404.70432 1710 395.75 1701.0457 395.75 1690 C 395.75 1690 395.75 1690 395.75 1690 L 395.75 1568 C 395.75 1556.9543 404.70432 1548 415.75 1548 Z" fill="#3b3b3b"/><rect x="423" y="1665.9055" width="108.5" height="16.969482" fill="white"/><rect x="441.276" y="1575.5" width="72.224" height="71.5" fill="white"/><rect x="450.34528" y="1602.5018" width="54.266235" height="17.196533" fill="#3b3b3b"/></g></g></svg>
