<?xml version="1.0" encoding="UTF-8"?>
<!DOCTYPE svg PUBLIC "-//W3C//DTD SVG 1.1//EN" "http://www.w3.org/Graphics/SVG/1.1/DTD/svg11.dtd">
<svg version="1.1" xmlns="http://www.w3.org/2000/svg" xmlns:xlink="http://www.w3.org/1999/xlink" x="0px" y="0px" width="145" height="145" viewBox="0, 0, 145, 145">
  <g id="Layer 1">
    <path d="M102.75,72.577 C102.75,89.346 89.157,102.939 72.388,102.939 C55.619,102.939 42.026,89.346 42.026,72.577 C42.026,55.809 55.619,42.215 72.388,42.215 C89.157,42.215 102.75,55.809 102.75,72.577 z" fill-opacity="0" stroke="#000000" stroke-width="13" stroke-linecap="round" stroke-linejoin="round"/>
    <path d="M32.96,102.04 L103.671,31.329 C105.623,29.377 108.789,29.377 110.742,31.329 C110.742,31.329 110.742,31.329 110.742,31.329 L111.816,32.404 C113.769,34.357 113.769,37.522 111.816,39.475 L41.105,110.186 C39.153,112.139 35.987,112.139 34.034,110.186 C34.034,110.186 34.034,110.186 34.034,110.186 L32.96,109.111 C31.007,107.159 31.007,103.993 32.96,102.04 z" fill="#000000"/>
  </g>
  <defs/>
</svg>
