<?xml version="1.0" encoding="utf-8"?>
<!-- Generator: Adobe Illustrator 15.0.0, SVG Export Plug-In . SVG Version: 6.00 Build 0)  -->
<!DOCTYPE svg PUBLIC "-//W3C//DTD SVG 1.1//EN" "http://www.w3.org/Graphics/SVG/1.1/DTD/svg11.dtd">
<svg version="1.1" id="Layer_1" xmlns="http://www.w3.org/2000/svg" xmlns:xlink="http://www.w3.org/1999/xlink" x="0px" y="0px"
	 width="26px" height="26px" viewBox="0 0 26 26" enable-background="new 0 0 26 26" xml:space="preserve">
<rect fill="none" width="26" height="26"/>
<path fill="#000000" d="M21,0H7C5.344,0,4,1.344,4,3v5h2V3c0-0.552,0.449-1,1-1h14c0.551,0,1,0.448,1,1v20c0,0.552-0.449,1-1,1H7
	c-0.551,0-1-0.448-1-1v-5H4v5c0,1.656,1.344,3,3,3h14c1.656,0,3-1.344,3-3V3C24,1.344,22.656,0,21,0z"/>
<g>
	<path fill="#000000" d="M9,19.5c0,0-1,0.281-1-1c0-0.29,0-1.257,0-2.5H2c-0.552,0-1-0.449-1-1v-4c0-0.551,0.448-1,1-1h6
		c0-1.196,0-2.155,0-2.531C8,6.125,9,6.5,9,6.5l7.5,6.5L9,19.5z"/>
</g>
</svg>
