<?xml version="1.0"?>
<!DOCTYPE svg PUBLIC "-//W3C//DTD SVG 1.1//EN" "http://www.w3.org/Graphics/SVG/1.1/DTD/svg11.dtd">
<svg xmlns="http://www.w3.org/2000/svg" xmlns:xl="http://www.w3.org/1999/xlink" version="1.1" viewBox="113 1541 144 144" width="12pc" height="12pc"><metadata xmlns:dc="http://purl.org/dc/elements/1.1/"><dc:date>2011-09-12 01:42Z</dc:date><!-- Produced by OmniGraffle Professional 5.3 --></metadata><defs></defs><g stroke="none" stroke-opacity="1" stroke-dasharray="none" fill="none" fill-opacity="1"><title>Canvas 1</title><g><title>Layer 1</title><path d="M 133 1541 L 237 1541 C 248.0457 1541 257 1549.9543 257 1561 L 257 1665 C 257 1676.0457 248.0457 1685 237 1685 L 133 1685 C 121.95431 1685 113 1676.0457 113 1665 C 113 1665 113 1665 113 1665 L 113 1561 C 113 1549.9543 121.95431 1541 133 1541 Z" fill="#3b3b3b"/><path d="M 147.03064 1571.0306 L 222.96936 1571.0306 C 225.1785 1571.0306 226.96936 1572.8215 226.96936 1575.0306 L 226.96936 1650.9694 C 226.96936 1653.1785 225.1785 1654.9694 222.96936 1654.9694 L 147.03064 1654.9694 C 144.8215 1654.9694 143.03064 1653.1785 143.03064 1650.9694 C 143.03064 1650.9694 143.03064 1650.9694 143.03064 1650.9694 L 143.03064 1575.0306 C 143.03064 1572.8215 144.8215 1571.0306 147.03064 1571.0306 Z" fill="white"/><circle cx="185" cy="1613" r="24.363796" stroke="#3b3b3b" stroke-linecap="round" stroke-linejoin="round" stroke-width="15"/></g></g></svg>
