<?xml version="1.0" encoding="UTF-8"?>
<!DOCTYPE svg PUBLIC "-//W3C//DTD SVG 1.1//EN" "http://www.w3.org/Graphics/SVG/1.1/DTD/svg11.dtd">
<svg version="1.1" xmlns="http://www.w3.org/2000/svg" xmlns:xlink="http://www.w3.org/1999/xlink" x="0" y="0" width="120" height="119.667" viewBox="0, 0, 120, 119.667">
  <g id="Layer_1" transform="translate(-154.666, -142.333)">
    <path d="M261.197,164 C268.636,164 274.667,168.925 274.667,175 L274.666,251 C274.667,257.075 268.636,262 261.197,262 L168.136,262 C160.697,262 154.667,257.075 154.667,251 L154.666,175 C154.667,168.925 160.697,164 168.136,164 L261.197,164 z M182.666,240 L164.666,240 L164.666,249 L182.666,249 L182.666,240 z M228.667,182 L228.666,182 C210.994,182 196.667,196.327 196.667,214 C196.667,231.673 210.994,246 228.667,246 C246.34,246 260.667,231.673 260.667,214 C260.667,196.327 246.34,182 228.667,182 z M182.666,219 L164.666,219 L164.666,228 L182.666,228 L182.666,219 z M182.666,198 L164.666,198 L164.666,207 L182.666,207 L182.666,198 z M182.666,178 L164.666,178 L164.666,186.999 L182.666,186.999 L182.666,178 z" fill="#000000"/>
    <path d="M228.667,229 C220.383,229 213.667,222.284 213.667,214 C213.667,205.716 220.383,199 228.667,199 C236.951,199 243.667,205.716 243.667,214 C243.667,222.284 236.951,229 228.667,229 z" fill="#000000" id="path3373"/>
    <path d="M185.097,142.333 L244.236,142.333 C247.097,142.333 249.417,146.171 249.417,150.905 L249.417,160.428 C249.417,165.162 247.097,169 244.236,169 L185.097,169 C182.236,169 179.917,165.162 179.917,160.428 L179.917,150.905 C179.917,146.171 182.236,142.333 185.097,142.333 z" fill="#000000"/>
  </g>
</svg>
