<?xml version="1.0"?>
<!DOCTYPE svg PUBLIC "-//W3C//DTD SVG 1.1//EN" "http://www.w3.org/Graphics/SVG/1.1/DTD/svg11.dtd">
<svg xmlns="http://www.w3.org/2000/svg" xmlns:xl="http://www.w3.org/1999/xlink" version="1.1" viewBox="404 475 147 147" width="147pt" height="147pt"><metadata xmlns:dc="http://purl.org/dc/elements/1.1/"><dc:date>2008-04-10 18:58Z</dc:date><!-- Produced by OmniGraffle Professional 4.2.1 --></metadata><defs></defs><g stroke="none" stroke-opacity="1" stroke-dasharray="none" fill="none" fill-opacity="1"><title>Canvas 1</title><g><title>Layer 1</title><path d="M 425.549 476.93396 L 529.549 476.93396 C 540.59473 476.93396 549.549 485.88828 549.549 496.93396 L 549.549 600.93396 C 549.549 611.97968 540.59473 620.93396 529.549 620.93396 L 425.549 620.93396 C 414.50333 620.93396 405.549 611.97968 405.549 600.93396 L 405.549 496.93396 C 405.549 485.88828 414.50333 476.93396 425.549 476.93396 Z" fill="#3b3b3b"/><line x1="442.299" y1="604.9339" x2="442.299" y2="492.9339" fill="#d37650"/><line x1="442.299" y1="604.9339" x2="442.299" y2="492.9339" stroke="#d0d350" stroke-linecap="butt" stroke-linejoin="round" stroke-width="14"/><line x1="477.799" y1="604.9339" x2="477.799" y2="492.9339" fill="#d37650"/><line x1="477.799" y1="604.9339" x2="477.799" y2="492.9339" stroke="#d0d350" stroke-linecap="butt" stroke-linejoin="round" stroke-width="14"/><line x1="512.799" y1="604.9339" x2="512.799" y2="492.9339" fill="#d37650"/><line x1="512.799" y1="604.9339" x2="512.799" y2="492.9339" stroke="#d0d350" stroke-linecap="butt" stroke-linejoin="round" stroke-width="14"/><line x1="421.19998" y1="583.776" x2="533.19995" y2="583.776" fill="#d37650"/><line x1="421.19998" y1="583.776" x2="533.19995" y2="583.776" stroke="#d0d350" stroke-linecap="butt" stroke-linejoin="round" stroke-width="14"/><line x1="421.19998" y1="549.276" x2="533.19995" y2="549.276" fill="#d0d350"/><line x1="421.19998" y1="549.276" x2="533.19995" y2="549.276" stroke="#d0d350" stroke-linecap="butt" stroke-linejoin="round" stroke-width="14"/><line x1="421.19998" y1="513.74902" x2="533.19995" y2="513.74902" fill="#d37650"/><line x1="421.19998" y1="513.74902" x2="533.19995" y2="513.74902" stroke="#d0d350" stroke-linecap="butt" stroke-linejoin="round" stroke-width="14"/><path d="M 447.638 514.026 L 507.96002 514.026 C 510.72144 514.026 512.96002 516.2646 512.96002 519.026 L 512.96002 578.526 C 512.96002 581.2874 510.72144 583.526 507.96002 583.526 L 447.638 583.526 C 444.8766 583.526 442.638 581.2874 442.638 578.526 L 442.638 519.026 C 442.638 516.2646 444.8766 514.026 447.638 514.026 Z" fill="white"/></g></g></svg>
