<?xml version="1.0"?>
<!DOCTYPE svg PUBLIC "-//W3C//DTD SVG 1.1//EN" "http://www.w3.org/Graphics/SVG/1.1/DTD/svg11.dtd">
<svg xmlns="http://www.w3.org/2000/svg" xmlns:xl="http://www.w3.org/1999/xlink" version="1.1" viewBox="240 474 147 147" width="147pt" height="147pt"><metadata xmlns:dc="http://purl.org/dc/elements/1.1/"><dc:date>2008-04-10 19:06Z</dc:date><!-- Produced by OmniGraffle Professional 4.2.1 --></metadata><defs></defs><g stroke="none" stroke-opacity="1" stroke-dasharray="none" fill="none" fill-opacity="1"><title>Canvas 1</title><g><title>Layer 1</title><path d="M 261.6 475.93396 L 365.6 475.93396 C 376.6457 475.93396 385.6 484.88828 385.6 495.93396 L 385.6 599.93396 C 385.6 610.97968 376.6457 619.93396 365.6 619.93396 L 261.6 619.93396 C 250.5543 619.93396 241.6 610.97968 241.6 599.93396 L 241.6 495.93396 C 241.6 484.88828 250.5543 475.93396 261.6 475.93396 Z" fill="#3b3b3b"/><line x1="278.35" y1="604.9339" x2="278.35" y2="492.9339" fill="#3b3b3b"/><line x1="278.35" y1="604.9339" x2="278.35" y2="492.9339" stroke="#acacac" stroke-linecap="butt" stroke-linejoin="round" stroke-width="14"/><line x1="313.85" y1="604.9339" x2="313.85" y2="492.9339" fill="#3b3b3b"/><line x1="313.85" y1="604.9339" x2="313.85" y2="492.9339" stroke="#acacac" stroke-linecap="butt" stroke-linejoin="round" stroke-width="14"/><line x1="348.85" y1="604.9339" x2="348.85" y2="492.9339" fill="#3b3b3b"/><line x1="348.85" y1="604.9339" x2="348.85" y2="492.9339" stroke="#acacac" stroke-linecap="butt" stroke-linejoin="round" stroke-width="14"/><line x1="257.04001" y1="582.776" x2="369.04" y2="582.776" fill="#3b3b3b"/><line x1="257.04001" y1="582.776" x2="369.04" y2="582.776" stroke="#acacac" stroke-linecap="butt" stroke-linejoin="round" stroke-width="14"/><line x1="257.04001" y1="548.276" x2="369.04" y2="548.276" fill="#3b3b3b"/><line x1="257.04001" y1="548.276" x2="369.04" y2="548.276" stroke="#acacac" stroke-linecap="butt" stroke-linejoin="round" stroke-width="14"/><line x1="257.04001" y1="512.74902" x2="369.04" y2="512.74902" fill="#3b3b3b"/><line x1="257.04001" y1="512.74902" x2="369.04" y2="512.74902" stroke="#acacac" stroke-linecap="butt" stroke-linejoin="round" stroke-width="14"/><path d="M 296.24924 525.4259 L 331.45084 525.4259 C 334.21225 525.4259 336.45084 527.6645 336.45084 530.4259 L 336.45084 565.09912 C 336.45084 567.86053 334.21225 570.09912 331.45084 570.09912 L 296.24924 570.09912 C 293.48782 570.09912 291.24924 567.86053 291.24924 565.09912 L 291.24924 530.4259 C 291.24924 527.6645 293.48782 525.4259 296.24924 525.4259 C 296.24924 525.4259 296.24924 525.4259 296.24924 525.4259 Z" fill="white"/></g></g></svg>
