<?xml version="1.0" encoding="UTF-8"?>
<!DOCTYPE svg PUBLIC "-//W3C//DTD SVG 1.1//EN" "http://www.w3.org/Graphics/SVG/1.1/DTD/svg11.dtd">
<svg version="1.1" xmlns="http://www.w3.org/2000/svg" xmlns:xlink="http://www.w3.org/1999/xlink" x="0" y="0" width="123" height="88" viewBox="0, 0, 123, 88">
  <g id="Layer_1" transform="translate(-130, -283)">
    <path d="M242,293 C248.075,293 253,297.925 253,304 L253,360 C253,366.075 248.075,371 242,371 L141,371 C134.925,371 130,366.075 130,360 L130,304 C130,297.925 134.925,293 141,293 L242,293 z M191.5,305 C176.588,305 164.5,317.088 164.5,332 C164.5,346.912 176.588,359 191.5,359 C206.412,359 218.5,346.912 218.5,332 C218.5,317.088 206.412,305 191.5,305 z" fill="#000000"/>
    <path d="M191.5,347 C183.216,347 176.5,340.284 176.5,332 C176.5,323.716 183.216,317 191.5,317 C199.784,317 206.5,323.716 206.5,332 C206.5,340.284 199.784,347 191.5,347 z" fill="#000000"/>
    <path d="M173.5,283 L209.5,283 C213.918,283 217.5,286.582 217.5,291 L217.5,293 C217.5,297.418 213.918,301 209.5,301 L173.5,301 C169.082,301 165.5,297.418 165.5,293 L165.5,291 C165.5,286.582 169.082,283 173.5,283 z" fill="#000000"/>
  </g>
</svg>
