<?xml version="1.0" encoding="UTF-8"?>
<!DOCTYPE svg PUBLIC "-//W3C//DTD SVG 1.1//EN" "http://www.w3.org/Graphics/SVG/1.1/DTD/svg11.dtd">
<svg version="1.1" xmlns="http://www.w3.org/2000/svg" xmlns:xlink="http://www.w3.org/1999/xlink" x="0px" y="0px" width="996" height="996" viewBox="0, 0, 996, 996">
  <g id="Image">
    <g>
      <path d="M62,677.996 L542,677.996 L542,713 L62,713 z" fill="#000000"/>
      <path d="M133.327,695.043 L162.775,712.044 L122.725,781.414 L93.277,764.412 z" fill="#000000"/>
      <path d="M481.556,608.671 L511.004,625.673 L470.954,695.043 L441.505,678.041 z" fill="#000000"/>
      <path d="M93.277,625.673 L122.725,608.671 L162.775,678.041 L133.327,695.043 z" fill="#000000"/>
      <path d="M441.505,712.044 L470.954,695.043 L511.004,764.412 L481.556,781.414 z" fill="#000000"/>
    </g>
    <g>
      <path d="M167.167,894.138 L407.167,478.445 L437.481,495.947 L197.481,911.64 z" fill="#000000"/>
      <path d="M217.593,840.89 L247.042,823.888 L287.092,893.257 L257.644,910.259 z" fill="#000000"/>
      <path d="M316.908,496.129 L346.356,479.128 L386.407,548.497 L356.958,565.499 z" fill="#000000"/>
      <path d="M137.493,840.89 L137.493,806.886 L217.593,806.886 L217.593,840.89 z" fill="#000000"/>
      <path d="M386.407,582.501 L386.407,548.497 L466.507,548.497 L466.507,582.501 z" fill="#000000"/>
    </g>
    <g>
      <path d="M195.696,476.407 L435.696,892.099 L405.382,909.601 L165.382,493.909 z" fill="#000000"/>
      <path d="M216.597,546.701 L216.597,580.705 L136.497,580.705 L136.497,546.701 z" fill="#000000"/>
      <path d="M465.511,805.09 L465.511,839.094 L385.411,839.094 L385.411,805.09 z" fill="#000000"/>
      <path d="M256.648,477.332 L286.096,494.334 L246.046,563.703 L216.597,546.701 z" fill="#000000"/>
      <path d="M355.962,822.092 L385.411,839.094 L345.36,908.463 L315.912,891.461 z" fill="#000000"/>
    </g>
  </g>
  <defs/>
</svg>
