<?xml version="1.0"?>
<!DOCTYPE svg PUBLIC "-//W3C//DTD SVG 1.1//EN" "http://www.w3.org/Graphics/SVG/1.1/DTD/svg11.dtd">
<svg xmlns="http://www.w3.org/2000/svg" xmlns:xl="http://www.w3.org/1999/xlink" version="1.1" viewBox="185 158 146 147" width="146pt" height="147pt"><metadata xmlns:dc="http://purl.org/dc/elements/1.1/"><dc:date>2007-08-29 04:25Z</dc:date><!-- Produced by OmniGraffle Professional 4.1.2 --></metadata><defs></defs><g stroke="none" stroke-opacity="1" stroke-dasharray="none" fill="none" fill-opacity="1"><title>Canvas 1</title><g><title>Layer 1</title><path d="M 258 159.5853 L 310 159.5853 C 321.04568 159.5853 330 168.5396 330 179.5853 L 330 283.5853 C 330 294.63098 321.04568 303.5853 310 303.5853 L 206 303.5853 C 194.9543 303.5853 186 294.63098 186 283.5853 L 186 179.5853 C 186 168.5396 194.9543 159.5853 206 159.5853 Z" fill="#3b3b3b"/><rect x="254.98651" y="173.08578" width="6.0269775" height="117" fill="#acacac"/><path d="M 310.16922 204.94554 L 208.84425 263.44556 L 205.83076 258.22604 L 307.15573 199.72603 Z" fill="#acacac"/><path d="M 208.84425 199.72603 L 310.16922 258.22601 L 307.15573 263.44556 L 205.83076 204.94554 Z" fill="#acacac"/><path d="M 284.5585 181.12854 L 260.03052 201.70996 L 256.15646 197.09302 L 280.68445 176.5116 Z" fill="#acacac"/><path d="M 235.31555 176.5116 L 259.84354 197.09302 L 255.96945 201.70996 L 231.44148 181.12854 Z" fill="#acacac"/><path d="M 260.40253 269.20255 L 235.87456 289.78397 L 232.00049 285.16702 L 256.52847 264.5856 Z" fill="#acacac"/><path d="M 257.87454 263.5856 L 282.40253 284.16702 L 278.52847 288.78397 L 254.00049 268.20255 Z" fill="#acacac"/><path d="M 289.05316 245.72823 L 294.61322 277.26077 L 288.6778 278.30737 L 283.11774 246.7748 Z" fill="#acacac"/><path d="M 282.49982 246.5736 L 312.58783 235.62245 L 314.64917 241.28596 L 284.56116 252.2371 Z" fill="#acacac"/><path d="M 314.03247 224.4135 L 282.49991 218.85345 L 283.54651 212.91805 L 315.07907 218.47809 Z" fill="#acacac"/><path d="M 295.49524 188.3308 L 289.93518 219.86336 L 283.99976 218.81679 L 289.55981 187.28423 Z" fill="#acacac"/><path d="M 232.5325 251.08049 L 200.99994 245.52045 L 202.04651 239.58504 L 233.57907 245.14508 Z" fill="#acacac"/><path d="M 233.50023 244.63179 L 227.94019 276.16437 L 222.00478 275.11777 L 227.56482 243.58522 Z" fill="#acacac"/><path d="M 227.94019 185.93523 L 233.50023 217.46779 L 227.56482 218.51436 L 222.00478 186.9818 Z" fill="#acacac"/><path d="M 201.35083 222.58958 L 231.43884 211.63844 L 233.50018 217.30196 L 203.41217 228.2531 Z" fill="#acacac"/></g></g></svg>
