<?xml version="1.0" encoding="UTF-8"?>
<!DOCTYPE svg PUBLIC "-//W3C//DTD SVG 1.1//EN" "http://www.w3.org/Graphics/SVG/1.1/DTD/svg11.dtd">
<svg version="1.1" xmlns="http://www.w3.org/2000/svg" xmlns:xlink="http://www.w3.org/1999/xlink" x="0px" y="0px" width="163" height="163" viewBox="0, 0, 163, 163">
  <g id="Layer 1">
    <path d="M33.994,28.525 L128.394,28.525 C131.156,28.525 133.394,30.763 133.394,33.525 L133.394,92.854 C133.394,95.616 131.156,97.854 128.394,97.854 L33.994,97.854 C31.233,97.854 28.994,95.616 28.994,92.854 C28.994,92.854 28.994,92.854 28.994,92.854 L28.994,33.525 C28.994,30.763 31.233,28.525 33.994,28.525 C33.994,28.525 33.994,28.525 33.994,28.525 z" fill="#000000"/>
    <path d="M33.994,108.015 L128.394,108.015 C131.156,108.015 133.394,110.253 133.394,113.015 L133.394,128.213 C133.394,130.974 131.156,133.213 128.394,133.213 L33.994,133.213 C31.233,133.213 28.994,130.974 28.994,128.213 C28.994,128.213 28.994,128.213 28.994,128.213 L28.994,113.015 C28.994,110.253 31.233,108.015 33.994,108.015 z" fill="#000000"/>
  </g>
  <defs/>
</svg>
