<?xml version="1.0"?>
<!DOCTYPE svg PUBLIC "-//W3C//DTD SVG 1.1//EN" "http://www.w3.org/Graphics/SVG/1.1/DTD/svg11.dtd">
<svg xmlns="http://www.w3.org/2000/svg" xmlns:xl="http://www.w3.org/1999/xlink" version="1.1" viewBox="101 1207 163 163" width="163pt" height="163pt"><metadata xmlns:dc="http://purl.org/dc/elements/1.1/"><dc:date>2011-04-28 23:00Z</dc:date><!-- Produced by OmniGraffle Professional 5.2.3 --></metadata><defs></defs><g stroke="none" stroke-opacity="1" stroke-dasharray="none" fill="none" fill-opacity="1"><title>Canvas 1</title><g><title>Layer 1</title><path d="M 130.19418 1216.5145 L 234.19418 1216.5145 C 245.23988 1216.5145 254.19418 1225.4689 254.19418 1236.5145 L 254.19418 1340.5145 C 254.19418 1351.5602 245.23988 1360.5145 234.19418 1360.5145 L 130.19418 1360.5145 C 119.14849 1360.5145 110.194183 1351.5602 110.194183 1340.5145 C 110.194183 1340.5145 110.194183 1340.5145 110.194183 1340.5145 L 110.194183 1236.5145 C 110.194183 1225.4689 119.14849 1216.5145 130.19418 1216.5145 Z" fill="#3b3b3b"/><path d="M 134.9942 1235.5249 L 229.3942 1235.5249 C 232.15562 1235.5249 234.3942 1237.7634 234.3942 1240.5249 L 234.3942 1299.8545 C 234.3942 1302.616 232.15562 1304.8545 229.3942 1304.8545 L 134.9942 1304.8545 C 132.23277 1304.8545 129.9942 1302.616 129.9942 1299.8545 C 129.9942 1299.8545 129.9942 1299.8545 129.9942 1299.8545 L 129.9942 1240.5249 C 129.9942 1237.7634 132.23277 1235.5249 134.9942 1235.5249 C 134.9942 1235.5249 134.9942 1235.5249 134.9942 1235.5249 Z" fill="white"/><path d="M 134.9942 1315.0145 L 229.3942 1315.0145 C 232.15562 1315.0145 234.3942 1317.25305 234.3942 1320.0145 L 234.3942 1335.2128 C 234.3942 1337.97424 232.15562 1340.2128 229.3942 1340.2128 L 134.9942 1340.2128 C 132.23277 1340.2128 129.9942 1337.97424 129.9942 1335.2128 C 129.9942 1335.2128 129.9942 1335.2128 129.9942 1335.2128 L 129.9942 1320.0145 C 129.9942 1317.25305 132.23277 1315.0145 134.9942 1315.0145 Z" fill="#c6c6c6"/></g></g></svg>
