<?xml version="1.0" encoding="UTF-8"?>
<!DOCTYPE svg PUBLIC "-//W3C//DTD SVG 1.1//EN" "http://www.w3.org/Graphics/SVG/1.1/DTD/svg11.dtd">
<svg version="1.1" xmlns="http://www.w3.org/2000/svg" xmlns:xlink="http://www.w3.org/1999/xlink" x="0px" y="0px" width="264" height="250" viewBox="0, 0, 264, 250">
  <g id="Layer 2">
    <path d="M118.358,73.293 L132,26.207 L145.642,73.293 z" fill="#000000"/>
    <path d="M145.642,75.73 L180.332,26.207 L164.694,84.614 z" fill="#000000"/>
    <path d="M163.873,79.858 L209.375,61.619 L180.67,101.358 z" fill="#000000"/>
    <path d="M186.932,122.578 L229.319,147.205 L180.332,149.051 z" fill="#000000"/>
    <path d="M167.435,165 L174.124,213.563 L142.511,176.097 z" fill="#000000"/>
    <path d="M122.702,176.097 L91.088,213.563 L97.778,165 z" fill="#000000"/>
    <path d="M83.68,149.051 L34.693,147.205 L77.079,122.578 z" fill="#000000"/>
    <path d="M83.014,101.358 L54.308,61.619 L99.811,79.858 z" fill="#000000"/>
    <path d="M180.332,101.725 L240.714,98.572 L185.061,122.208 z" fill="#000000"/>
    <path d="M180.637,149.051 L220.297,194.691 L167.408,165.388 z" fill="#000000"/>
    <path d="M142.511,175.05 L132,234.594 L121.489,175.05 z" fill="#000000"/>
    <path d="M102.138,84.614 L86.5,26.207 L121.19,75.73 z" fill="#000000"/>
    <path d="M78.951,122.208 L23.297,98.572 L83.68,101.725 z" fill="#000000"/>
    <path d="M99.811,165.388 L46.922,194.691 L86.582,149.051 z" fill="#000000"/>
    <path d="M132,180 C101.21,180 76.25,155.04 76.25,124.25 C76.25,93.46 101.21,68.5 132,68.5 C162.79,68.5 187.75,93.46 187.75,124.25 C187.75,155.04 162.79,180 132,180 z" fill="#FFFFFF"/>
    <path d="M132,169.75 C106.871,169.75 86.5,149.379 86.5,124.25 C86.5,99.121 106.871,78.75 132,78.75 C157.129,78.75 177.5,99.121 177.5,124.25 C177.5,149.379 157.129,169.75 132,169.75 z" fill="#000000"/>
  </g>
  <defs/>
</svg>
