<?xml version="1.0" encoding="UTF-8"?>
<!DOCTYPE svg PUBLIC "-//W3C//DTD SVG 1.1//EN" "http://www.w3.org/Graphics/SVG/1.1/DTD/svg11.dtd">
<svg version="1.1" xmlns="http://www.w3.org/2000/svg" xmlns:xlink="http://www.w3.org/1999/xlink" x="0px" y="0px" width="360" height="360" viewBox="0, 0, 360, 360">
  <g id="Layer 1">
    <path d="M141.5,144.711 L218.5,144.711 L218.5,221.711 L141.5,221.711 z" fill="#FFFFFF"/>
    <path d="M164.859,216 L164.859,212.156 Q170.484,211.969 171.539,211.406 Q172.594,210.844 172.969,209.531 Q173.484,207.516 173.484,197.391 L173.484,169.312 Q173.484,157.828 173.344,156.469 L166.641,156.469 Q161.578,156.469 157.734,156.797 Q156.188,156.938 155.953,157.172 Q155.625,157.453 155.391,158.812 Q154.781,162.094 154.688,166.172 L150.797,166.172 Q150.609,156.562 150.562,155.344 Q150.422,153.281 150.094,150.891 L150.516,150.422 Q152.719,150.656 155.203,150.75 Q159.234,150.891 170.719,150.891 L189.656,150.891 Q201.469,150.891 205.453,150.75 Q207.609,150.656 209.812,150.422 L210.281,150.891 Q209.859,153.75 209.766,155.906 Q209.719,156.281 209.578,166.172 L205.688,166.172 Q205.594,162.516 205.078,159.188 Q204.797,157.5 204.469,157.172 Q204.188,156.938 202.969,156.844 Q199.125,156.469 193.734,156.469 L187.031,156.469 Q186.891,158.109 186.891,169.312 L186.891,197.391 Q186.891,207.516 187.406,209.578 Q187.734,210.797 188.812,211.383 Q189.891,211.969 195.516,212.156 L195.516,216 Q186.422,215.578 180.188,215.578 Q173.531,215.578 164.859,216 z" fill="#000000"/>
  </g>
  <defs/>
</svg>
