<?xml version="1.0" encoding="UTF-8"?>
<!DOCTYPE svg PUBLIC "-//W3C//DTD SVG 1.1//EN" "http://www.w3.org/Graphics/SVG/1.1/DTD/svg11.dtd">
<svg version="1.1" xmlns="http://www.w3.org/2000/svg" xmlns:xlink="http://www.w3.org/1999/xlink" x="0" y="0" width="106.763" height="108.279" viewBox="0, 0, 106.763, 108.279">
  <g id="Layer_1" transform="translate(-5.636, -4.82)">
    <path d="M67.554,38.946 C70.796,39.264 73.488,40.717 75.867,42.867 C81.178,48.178 81.178,56.79 75.867,62.101 L28.853,109.115 C23.542,114.426 14.93,114.426 9.619,109.115 C4.308,103.804 4.308,95.192 9.619,89.881 L56.633,42.867 C60.229,39.545 62.82,38.946 67.554,38.946 z M19,92 C15.686,92 13,94.686 13,98 C13,101.314 15.686,104 19,104 C22.314,104 25,101.314 25,98 C25,94.686 22.314,92 19,92 z" fill="#000000"/>
    <path d="M83.893,4.82 C89.546,4.791 92.205,6.013 97.203,8.104 L80.8,16.576 L77.389,35.783 L95.025,44.119 L112.399,35.146 C111.48,50.733 98.796,60.755 83.893,61.5 C68.093,61.5 55.285,48.812 55.285,33.16 C55.285,17.508 68.093,4.82 83.893,4.82 z" fill="#000000"/>
  </g>
</svg>
