<?xml version="1.0" encoding="utf-8"?>
<!-- Generator: Adobe Illustrator 15.0.0, SVG Export Plug-In . SVG Version: 6.00 Build 0)  -->
<!DOCTYPE svg PUBLIC "-//W3C//DTD SVG 1.1//EN" "http://www.w3.org/Graphics/SVG/1.1/DTD/svg11.dtd">
<svg version="1.1" id="Layer_1" xmlns="http://www.w3.org/2000/svg" xmlns:xlink="http://www.w3.org/1999/xlink" x="0px" y="0px"
	 width="28px" height="28px" viewBox="0 0 28 28" enable-background="new 0 0 28 28" xml:space="preserve">
<path d="M26.212,13.956H13.98V10.46h0.001c0-3.86-3.129-6.99-6.99-6.99c-3.861,0-6.99,3.13-6.99,6.99H0v2.103
	c0,0.723,0.587,1.393,1.311,1.393s1.311-0.67,1.311-1.393V10.46h0.001c0-2.409,1.961-4.369,4.369-4.369
	c2.409,0,4.369,1.959,4.369,4.369l-0.001,3.496h-0.874c-0.965,0-1.748,0.783-1.748,1.747v10.486c0,0.963,0.782,1.747,1.748,1.747
	h15.727c0.965,0,1.748-0.784,1.748-1.747V15.702C27.96,14.738,27.177,13.956,26.212,13.956z M19.602,21.223v4.279h-2.597v-4.291
	c-0.646-0.426-1.072-1.155-1.072-1.986c0-1.314,1.066-2.381,2.381-2.381c1.315,0,2.381,1.066,2.381,2.381
	C20.694,20.064,20.258,20.799,19.602,21.223z"/>
</svg>
