<?xml version="1.0"?>
<!DOCTYPE svg PUBLIC "-//W3C//DTD SVG 1.1//EN" "http://www.w3.org/Graphics/SVG/1.1/DTD/svg11.dtd">
<svg xmlns="http://www.w3.org/2000/svg" xmlns:xl="http://www.w3.org/1999/xlink" version="1.1" viewBox="261 1381 145 145" width="145pt" height="145pt"><metadata xmlns:dc="http://purl.org/dc/elements/1.1/"><dc:date>2011-07-28 05:51Z</dc:date><!-- Produced by OmniGraffle Professional 5.3 --></metadata><defs></defs><g stroke="none" stroke-opacity="1" stroke-dasharray="none" fill="none" fill-opacity="1"><title>Canvas 1</title><g><title>Layer 1</title><path d="M 281.958 1381.0474 L 385.958 1381.0474 C 397.0037 1381.0474 405.958 1390.0017 405.958 1401.0474 L 405.958 1505.0474 C 405.958 1516.093 397.0037 1525.0474 385.958 1525.0474 L 281.958 1525.0474 C 270.91232 1525.0474 261.95801 1516.093 261.95801 1505.0474 C 261.95801 1505.0474 261.95801 1505.0474 261.95801 1505.0474 L 261.95801 1401.0474 C 261.95801 1390.0017 270.91232 1381.0474 281.958 1381.0474 Z" fill="#3b3b3b"/><path d="M 294.358 1409.6641 L 298.75803 1409.6641 C 301.51944 1409.6641 303.75803 1411.9026 303.75803 1414.6641 L 303.75803 1419.064 C 303.75803 1421.8254 301.51944 1424.064 298.75803 1424.064 L 294.358 1424.064 C 291.59659 1424.064 289.358 1421.8254 289.358 1419.064 C 289.358 1419.064 289.358 1419.064 289.358 1419.064 L 289.358 1414.6641 C 289.358 1411.9026 291.59659 1409.6641 294.358 1409.6641 Z" fill="#edf05b"/><path d="M 321.88333 1409.6641 L 372.25137 1409.6641 C 375.01279 1409.6641 377.25137 1411.9026 377.25137 1414.6641 L 377.25137 1419.064 C 377.25137 1421.8254 375.01279 1424.064 372.25137 1424.064 L 321.88333 1424.064 C 319.12192 1424.064 316.88333 1421.8254 316.88333 1419.064 C 316.88333 1419.064 316.88333 1419.064 316.88333 1419.064 L 316.88333 1414.6641 C 316.88333 1411.9026 319.12192 1409.6641 321.88333 1409.6641 Z" fill="#edf05b"/><path d="M 294.358 1445.35815 L 298.75803 1445.35815 C 301.51944 1445.35815 303.75803 1447.5967 303.75803 1450.35815 L 303.75803 1454.75806 C 303.75803 1457.5195 301.51944 1459.7581 298.75803 1459.7581 L 294.358 1459.7581 C 291.59659 1459.7581 289.358 1457.5195 289.358 1454.75806 C 289.358 1454.75806 289.358 1454.75806 289.358 1454.75806 L 289.358 1450.35815 C 289.358 1447.5967 291.59659 1445.35815 294.358 1445.35815 Z" fill="#edf05b"/><path d="M 321.88333 1445.35815 L 372.25137 1445.35815 C 375.01279 1445.35815 377.25137 1447.5967 377.25137 1450.35815 L 377.25137 1454.75806 C 377.25137 1457.5195 375.01279 1459.7581 372.25137 1459.7581 L 321.88333 1459.7581 C 319.12192 1459.7581 316.88333 1457.5195 316.88333 1454.75806 C 316.88333 1454.75806 316.88333 1454.75806 316.88333 1454.75806 L 316.88333 1450.35815 C 316.88333 1447.5967 319.12192 1445.35815 321.88333 1445.35815 Z" fill="#edf05b"/><path d="M 293.78604 1481.0524 L 298.18607 1481.0524 C 300.94748 1481.0524 303.18607 1483.2909 303.18607 1486.0524 L 303.18607 1490.4523 C 303.18607 1493.21375 300.94748 1495.4523 298.18607 1495.4523 L 293.78604 1495.4523 C 291.02463 1495.4523 288.78604 1493.21375 288.78604 1490.4523 C 288.78604 1490.4523 288.78604 1490.4523 288.78604 1490.4523 L 288.78604 1486.0524 C 288.78604 1483.2909 291.02463 1481.0524 293.78604 1481.0524 Z" fill="#edf05b"/><path d="M 321.31137 1481.0524 L 371.67941 1481.0524 C 374.44083 1481.0524 376.67941 1483.2909 376.67941 1486.0524 L 376.67941 1490.4523 C 376.67941 1493.21375 374.44083 1495.4523 371.67941 1495.4523 L 321.31137 1495.4523 C 318.54996 1495.4523 316.31137 1493.21375 316.31137 1490.4523 C 316.31137 1490.4523 316.31137 1490.4523 316.31137 1490.4523 L 316.31137 1486.0524 C 316.31137 1483.2909 318.54996 1481.0524 321.31137 1481.0524 Z" fill="#edf05b"/></g></g></svg>
