<?xml version="1.0"?>
<!DOCTYPE svg PUBLIC "-//W3C//DTD SVG 1.1//EN" "http://www.w3.org/Graphics/SVG/1.1/DTD/svg11.dtd">
<svg xmlns="http://www.w3.org/2000/svg" xmlns:xl="http://www.w3.org/1999/xlink" version="1.1" viewBox="256 1207 145 145" width="145pt" height="145pt"><metadata xmlns:dc="http://purl.org/dc/elements/1.1/"><dc:date>2011-07-28 05:51Z</dc:date><!-- Produced by OmniGraffle Professional 5.3 --></metadata><defs></defs><g stroke="none" stroke-opacity="1" stroke-dasharray="none" fill="none" fill-opacity="1"><title>Canvas 1</title><g><title>Layer 1</title><path d="M 276.53513 1207.375 L 380.53513 1207.375 C 391.5808 1207.375 400.53513 1216.32935 400.53513 1227.375 L 400.53513 1331.375 C 400.53513 1342.42065 391.5808 1351.375 380.53513 1351.375 L 276.53513 1351.375 C 265.48944 1351.375 256.53513 1342.42065 256.53513 1331.375 C 256.53513 1331.375 256.53513 1331.375 256.53513 1331.375 L 256.53513 1227.375 C 256.53513 1216.32935 265.48944 1207.375 276.53513 1207.375 Z" fill="#3b3b3b"/><path d="M 289.93512 1235.9917 L 312.08447 1235.9917 C 314.84589 1235.9917 317.08447 1238.2302 317.08447 1240.9917 L 317.08447 1262.7651 C 317.08447 1265.5266 314.84589 1267.7651 312.08447 1267.7651 L 289.93512 1267.7651 C 287.1737 1267.7651 284.93512 1265.5266 284.93512 1262.7651 C 284.93512 1262.7651 284.93512 1262.7651 284.93512 1262.7651 L 284.93512 1240.9917 C 284.93512 1238.2302 287.1737 1235.9917 289.93512 1235.9917 Z" fill="#edf05b"/><path d="M 345.10712 1235.9917 L 367.25647 1235.9917 C 370.01788 1235.9917 372.25647 1238.2302 372.25647 1240.9917 L 372.25647 1262.7651 C 372.25647 1265.5266 370.01788 1267.7651 367.25647 1267.7651 L 345.10712 1267.7651 C 342.3457 1267.7651 340.10712 1265.5266 340.10712 1262.7651 C 340.10712 1262.7651 340.10712 1262.7651 340.10712 1262.7651 L 340.10712 1240.9917 C 340.10712 1238.2302 342.3457 1235.9917 345.10712 1235.9917 Z" fill="#edf05b"/><path d="M 345.67914 1288.5664 L 367.8285 1288.5664 C 370.5899 1288.5664 372.8285 1290.8049 372.8285 1293.5664 L 372.8285 1315.33984 C 372.8285 1318.1013 370.5899 1320.33984 367.8285 1320.33984 L 345.67914 1320.33984 C 342.91772 1320.33984 340.67914 1318.1013 340.67914 1315.33984 C 340.67914 1315.33984 340.67914 1315.33984 340.67914 1315.33984 L 340.67914 1293.5664 C 340.67914 1290.8049 342.91772 1288.5664 345.67914 1288.5664 Z" fill="#edf05b"/><path d="M 289.93512 1288.5664 L 312.08447 1288.5664 C 314.84589 1288.5664 317.08447 1290.8049 317.08447 1293.5664 L 317.08447 1315.33984 C 317.08447 1318.1013 314.84589 1320.33984 312.08447 1320.33984 L 289.93512 1320.33984 C 287.1737 1320.33984 284.93512 1318.1013 284.93512 1315.33984 C 284.93512 1315.33984 284.93512 1315.33984 284.93512 1315.33984 L 284.93512 1293.5664 C 284.93512 1290.8049 287.1737 1288.5664 289.93512 1288.5664 Z" fill="#edf05b"/></g></g></svg>
