<?xml version="1.0" encoding="UTF-8"?>
<!DOCTYPE svg PUBLIC "-//W3C//DTD SVG 1.1//EN" "http://www.w3.org/Graphics/SVG/1.1/DTD/svg11.dtd">
<svg version="1.1" xmlns="http://www.w3.org/2000/svg" xmlns:xlink="http://www.w3.org/1999/xlink" x="0px" y="0px" width="360" height="360" viewBox="0, 0, 360, 360">
  <g id="Layer 2">
    <path d="M178.167,203.667 C152.67,203.667 132,182.997 132,157.5 C132,132.003 152.67,111.333 178.167,111.333 C203.664,111.333 224.333,132.003 224.333,157.5 C224.333,182.997 203.664,203.667 178.167,203.667 z" fill="#000000"/>
    <path d="M170.081,182.979 L168.393,182.979 Q168.534,179.135 168.534,177.167 Q168.534,171.823 167.714,161.721 Q166.893,151.62 165.862,148.245 Q165.065,145.76 163.753,144.635 Q162.862,143.885 161.456,143.885 Q160.659,143.885 159.534,144.073 L159.534,142.385 L175.143,138.214 Q179.831,151.01 179.69,170.979 Q186.581,164.417 189.182,160.339 Q191.784,156.26 191.784,153.542 Q191.784,151.385 190.167,149.159 Q188.549,146.932 188.151,145.995 Q187.753,145.057 187.753,143.932 Q187.753,141.495 189.346,139.854 Q190.94,138.214 193.378,138.214 Q195.956,138.214 197.362,139.854 Q199.331,142.151 199.331,145.292 Q199.331,148.526 198.182,151.643 Q197.034,154.76 194.245,159.003 Q191.456,163.245 188.034,166.714 Q181.753,173.089 170.081,182.979 z" fill="#FFFFFF"/>
  </g>
  <defs/>
</svg>
