<?xml version="1.0" encoding="UTF-8"?>
<!DOCTYPE svg PUBLIC "-//W3C//DTD SVG 1.1//EN" "http://www.w3.org/Graphics/SVG/1.1/DTD/svg11.dtd">
<svg version="1.1" xmlns="http://www.w3.org/2000/svg" xmlns:xlink="http://www.w3.org/1999/xlink" x="0" y="0" width="100.44" height="100.44" viewBox="0, 0, 93, 93">
  <g id="Image" transform="translate(0, 0)">
    <path d="M39,9 L39,21 L54,21 L54,9 L72,9 L72,21 L84,21 L84,39 L72,39 L72,54 L84,54 L84,72 L72,72 L72,84 L54,84 L54,72 L39,72 L39,84 L21,84 L21,72 L9,72 L9,54 L21,54 L21,39 L9,39 L9,21 L21,21 L21,9 L39,9 z M54,39 L39,39 L39,54 L54,54 L54,39 z" fill="#000000"/>
    <path d="M39,9 L39,21 L54,21 L54,9 L72,9 L72,21 L84,21 L84,39 L72,39 L72,54 L84,54 L84,72 L72,72 L72,84 L54,84 L54,72 L39,72 L39,84 L21,84 L21,72 L9,72 L9,54 L21,54 L21,39 L9,39 L9,21 L21,21 L21,9 L39,9 z M54,39 L39,39 L39,54 L54,54 L54,39 z" fill-opacity="0" stroke="#FFFFFF" stroke-width="4"/>
  </g>
</svg>
