<?xml version="1.0" encoding="UTF-8"?>
<!DOCTYPE svg PUBLIC "-//W3C//DTD SVG 1.1//EN" "http://www.w3.org/Graphics/SVG/1.1/DTD/svg11.dtd">
<svg version="1.1" xmlns="http://www.w3.org/2000/svg" xmlns:xlink="http://www.w3.org/1999/xlink" x="0" y="0" width="125.96" height="100.947" viewBox="0, 0, 47, 37.667">
  <g id="Image" transform="translate(-24, -44.333)">
    <path d="M48,44.333 C53.621,44.998 55.442,51.855 56.379,56.495 C57.822,54.628 59.65,53.522 62,53.333 C66.971,53.333 71,59.751 71,67.667 C70.948,69.312 71.016,68.647 70.885,69.667 L71,69.667 L71,82 L48,82 L48,82 L47.999,82 L33.002,82 L33,82 L32.998,82 L24,82 L24,69.667 L24.051,69.667 C24.616,64.676 27.621,60.004 33,59.667 C35.316,59.729 37.549,60.757 39.014,62.576 C39.183,56.975 40.683,45.106 48,44.333 z" fill="#000000"/>
  </g>
</svg>
