<?xml version="1.0" encoding="UTF-8"?>
<!DOCTYPE svg PUBLIC "-//W3C//DTD SVG 1.1//EN" "http://www.w3.org/Graphics/SVG/1.1/DTD/svg11.dtd">
<svg version="1.1" xmlns="http://www.w3.org/2000/svg" xmlns:xlink="http://www.w3.org/1999/xlink" x="0" y="0" width="75.264" height="100.464" viewBox="0, 0, 71.68, 95.68">
  <g id="Image" transform="translate(0, 0)">
    <path d="M6.92,38.96 L23.24,38.96 Q23.24,35.6 23.9,32.18 Q24.56,28.76 26.12,25.94 Q27.68,23.12 30.26,21.38 Q32.84,19.64 36.56,19.64 Q42.08,19.64 45.62,23.06 Q49.16,26.48 49.16,32.6 Q49.16,36.44 47.42,39.44 Q45.68,42.44 43.1,44.84 Q40.52,47.24 37.4,49.22 Q34.28,51.2 31.52,53.12 Q26.12,56.84 21.26,60.44 Q16.4,64.04 12.8,68.3 Q9.2,72.56 7.1,77.96 Q5,83.36 5,90.68 L66.68,90.68 L66.68,76.04 L26.96,76.04 Q30.08,71.72 34.16,68.48 Q38.24,65.24 42.56,62.42 Q46.88,59.6 51.14,56.72 Q55.4,53.84 58.76,50.3 Q62.12,46.76 64.16,42.2 Q66.2,37.64 66.2,31.28 Q66.2,25.16 63.86,20.24 Q61.52,15.32 57.56,11.96 Q53.6,8.6 48.38,6.8 Q43.16,5 37.4,5 Q29.84,5 24.02,7.58 Q18.2,10.16 14.36,14.78 Q10.52,19.4 8.6,25.58 Q6.68,31.76 6.92,38.96 z" fill="#000000"/>
    <path d="M6.92,38.96 L23.24,38.96 Q23.24,35.6 23.9,32.18 Q24.56,28.76 26.12,25.94 Q27.68,23.12 30.26,21.38 Q32.84,19.64 36.56,19.64 Q42.08,19.64 45.62,23.06 Q49.16,26.48 49.16,32.6 Q49.16,36.44 47.42,39.44 Q45.68,42.44 43.1,44.84 Q40.52,47.24 37.4,49.22 Q34.28,51.2 31.52,53.12 Q26.12,56.84 21.26,60.44 Q16.4,64.04 12.8,68.3 Q9.2,72.56 7.1,77.96 Q5,83.36 5,90.68 L66.68,90.68 L66.68,76.04 L26.96,76.04 Q30.08,71.72 34.16,68.48 Q38.24,65.24 42.56,62.42 Q46.88,59.6 51.14,56.72 Q55.4,53.84 58.76,50.3 Q62.12,46.76 64.16,42.2 Q66.2,37.64 66.2,31.28 Q66.2,25.16 63.86,20.24 Q61.52,15.32 57.56,11.96 Q53.6,8.6 48.38,6.8 Q43.16,5 37.4,5 Q29.84,5 24.02,7.58 Q18.2,10.16 14.36,14.78 Q10.52,19.4 8.6,25.58 Q6.68,31.76 6.92,38.96 z" fill-opacity="0" stroke="#FFFFFF" stroke-width="3"/>
  </g>
</svg>
