<?xml version="1.0" encoding="UTF-8"?>
<!DOCTYPE svg PUBLIC "-//W3C//DTD SVG 1.1//EN" "http://www.w3.org/Graphics/SVG/1.1/DTD/svg11.dtd">
<svg version="1.1" xmlns="http://www.w3.org/2000/svg" xmlns:xlink="http://www.w3.org/1999/xlink" x="0" y="0" width="100.17" height="100.17" viewBox="0, 0, 159, 159">
  <g id="Image" transform="translate(0, 0)">
    <path d="M79,96 C69.887,96 62.5,88.613 62.5,79.5 C62.5,70.387 69.887,63 79,63 C88.113,63 95.5,70.387 95.5,79.5 C95.5,88.613 88.113,96 79,96 z" fill="#000000"/>
    <path d="M79.5,118 C58.237,118 41,100.763 41,79.5 C41,58.237 58.237,41 79.5,41 C100.763,41 118,58.237 118,79.5 C118,100.763 100.763,118 79.5,118 z" fill-opacity="0" stroke="#000000" stroke-width="20"/>
    <path d="M79.5,128.5 C52.438,128.5 30.5,106.562 30.5,79.5 C30.5,52.438 52.438,30.5 79.5,30.5 C106.562,30.5 128.5,52.438 128.5,79.5 C128.5,106.562 106.562,128.5 79.5,128.5 z" fill-opacity="0" stroke="#FFFFFF" stroke-width="4"/>
    <path d="M79.5,107.75 C63.898,107.75 51.25,95.102 51.25,79.5 C51.25,63.898 63.898,51.25 79.5,51.25 C95.102,51.25 107.75,63.898 107.75,79.5 C107.75,95.102 95.102,107.75 79.5,107.75 z" fill-opacity="0" stroke="#FFFFFF" stroke-width="4"/>
    <path d="M79,95.542 C70.14,95.542 62.958,88.36 62.958,79.5 C62.958,70.64 70.14,63.458 79,63.458 C87.86,63.458 95.042,70.64 95.042,79.5 C95.042,88.36 87.86,95.542 79,95.542 z" fill-opacity="0" stroke="#FFFFFF" stroke-width="4"/>
  </g>
</svg>
