<?xml version="1.0" encoding="UTF-8"?>
<!DOCTYPE svg PUBLIC "-//W3C//DTD SVG 1.1//EN" "http://www.w3.org/Graphics/SVG/1.1/DTD/svg11.dtd">
<svg version="1.1" xmlns="http://www.w3.org/2000/svg" xmlns:xlink="http://www.w3.org/1999/xlink" x="0" y="0" width="182.547" height="100.501" viewBox="0, 0, 54.008, 29.734">
  <g id="Image" transform="translate(-29.996, -52.047)">
    <path d="M84.004,60.291 Q83.073,60.291 82.205,61.77 Q81.336,63.25 79.94,69.239 Q78.048,77.342 76.497,79.562 Q74.946,81.781 73.178,81.781 Q71.44,81.781 69.889,79.562 Q68.338,77.342 66.446,69.239 Q65.019,63.25 64.166,61.77 Q63.313,60.291 62.382,60.291 Q61.452,60.291 60.598,61.77 Q59.745,63.25 58.349,69.239 Q56.457,77.342 54.891,79.562 Q53.324,81.781 51.587,81.781 Q49.85,81.781 48.299,79.562 Q46.748,77.342 44.824,69.239 Q43.428,63.25 42.575,61.77 Q41.722,60.291 40.791,60.291 Q39.861,60.291 39.008,61.77 Q38.155,63.25 36.728,69.239 Q34.835,77.342 33.284,79.562 Q31.733,81.781 29.996,81.781 L29.996,73.537 Q30.927,73.537 31.78,72.058 Q32.633,70.578 34.029,64.589 Q35.921,56.486 37.488,54.266 Q39.054,52.047 40.791,52.047 Q42.529,52.047 44.08,54.266 Q45.631,56.486 47.554,64.589 Q48.95,70.578 49.803,72.058 Q50.656,73.537 51.587,73.537 Q52.517,73.537 53.371,72.058 Q54.224,70.578 55.651,64.589 Q57.543,56.486 59.094,54.266 Q60.645,52.047 62.382,52.047 Q64.15,52.047 65.701,54.266 Q67.252,56.486 69.145,64.589 Q70.541,70.578 71.409,72.058 Q72.278,73.537 73.178,73.537 Q74.108,73.537 74.977,72.058 Q75.845,70.578 77.241,64.589 Q79.134,56.486 80.685,54.266 Q82.236,52.047 84.004,52.047 z" fill="#000000"/>
  </g>
</svg>
