<?xml version="1.0" encoding="utf-8"?>
<!-- Generator: Adobe Illustrator 13.0.0, SVG Export Plug-In . SVG Version: 6.00 Build 14948)  -->
<!DOCTYPE svg PUBLIC "-//W3C//DTD SVG 1.1//EN" "http://www.w3.org/Graphics/SVG/1.1/DTD/svg11.dtd">
<svg version="1.1" id="Calque_1" xmlns="http://www.w3.org/2000/svg" xmlns:xlink="http://www.w3.org/1999/xlink" x="0px" y="0px"
	 width="39px" height="18.8px" viewBox="0 0 39 18.8" enable-background="new 0 0 39 18.8" xml:space="preserve">
<g id="_x31_6th">
	<g id="Calque_9_1_">
		<path fill="#1A171B" stroke="#1A171B" stroke-linecap="square" d="M20.367,14.378c0.045,0.146,0.021,0.312-0.066,0.49
			c-0.359,0.729-1.798,1.627-3.646,2.197c-2.291,0.711-4.344,0.66-4.584-0.113c-0.24-0.775,1.422-1.979,3.713-2.688
			C18.073,13.552,20.125,13.604,20.367,14.378z"/>
		<path fill="none" stroke="#1A171B" stroke-linecap="round" d="M20.332,14.343V1.406c0,0,2.393,0.436,3.043,1.269
			c0.648,0.833,1.146,3.063,0.875,3.458"/>
	</g>
	<path fill="none" stroke="#1A171B" stroke-linecap="round" d="M20.375,3.695c0,0,1.344-0.188,1.875,1.156
		c0.529,1.344,0.332,2.531,0.332,2.531"/>
</g>
<rect x="4.875" y="-0.663" fill="none" width="29" height="20"/>
</svg>
