<?xml version="1.0" encoding="utf-8"?>
<!-- Generator: Adobe Illustrator 13.0.0, SVG Export Plug-In . SVG Version: 6.00 Build 14948)  -->
<!DOCTYPE svg PUBLIC "-//W3C//DTD SVG 1.1//EN" "http://www.w3.org/Graphics/SVG/1.1/DTD/svg11.dtd">
<svg version="1.1" id="Calque_1" xmlns="http://www.w3.org/2000/svg" xmlns:xlink="http://www.w3.org/1999/xlink" x="0px" y="0px"
	 width="39px" height="18.8px" viewBox="0 0 39 18.8" enable-background="new 0 0 39 18.8" xml:space="preserve">
<g id="Calque_2">
	<rect x="-0.167" y="-0.35" fill="none" width="40" height="20"/>
	<path fill="none" stroke="#000000" stroke-linecap="square" d="M2.167,17.568c0-2.283,0-4.565,0-6.848
		c0-1.904,0.009-3.904,0.009-5.8c0-2.999,3.614-3.553,6.042-3.555c3.304-0.002,6.608-0.009,9.913-0.015
		c1.491-0.003,2.982-0.005,4.472-0.008h0.875c2.789,0,5.578,0.019,8.366,0.023c2.375,0.003,5.816,0.66,5.816,3.599
		c0,2.999,0.006,3.991,0.006,5.955c0,2.217,0,4.433,0,6.649"/>
</g>
</svg>
