<?xml version="1.0" encoding="utf-8"?>
<!-- Generator: Adobe Illustrator 13.0.0, SVG Export Plug-In . SVG Version: 6.00 Build 14948)  -->
<!DOCTYPE svg PUBLIC "-//W3C//DTD SVG 1.1//EN" "http://www.w3.org/Graphics/SVG/1.1/DTD/svg11.dtd">
<svg version="1.1" id="Calque_1" xmlns="http://www.w3.org/2000/svg" xmlns:xlink="http://www.w3.org/1999/xlink" x="0px" y="0px"
	 width="39px" height="18.8px" viewBox="0 0 39 18.8" enable-background="new 0 0 39 18.8" xml:space="preserve">
<g id="Calque_1_1_">
	<rect x="-0.167" y="-0.35" fill="none" width="40" height="20"/>
</g>
<g id="Calque_2">
	<path d="M19.666,17.07l0.499-0.002c0.002,0,5.332-0.012,7.009-0.012l0,0c0.025-0.026,0.066-0.076,0.11-0.145l0,0
		c0.12-0.188,0.271-0.513,0.425-0.928l0,0c0.31-0.832,0.641-2.021,0.987-3.349l0,0c0.696-2.656,1.446-5.854,2.283-8.041l0,0
		c0.602-1.422,1.036-2.56,2.188-2.687l0,0c2.409,0,5.485-0.049,5.492-0.049l0,0l0.498-0.006l0.017,0.998l-0.5,0.008
		c0,0-3.085,0.05-5.507,0.05l0,0c-0.019-0.008-0.169,0.037-0.383,0.313l0,0c-0.209,0.264-0.443,0.697-0.674,1.241l0,0
		c-0.466,1.09-0.924,2.617-1.36,4.239l0,0c-0.884,3.258-1.657,6.848-2.444,8.429l0,0c-0.249,0.431-0.427,0.861-1.057,0.927l0,0
		c-1.583,0-7.075,0.011-7.081,0.011l0,0v0.002l-0.499,0.002L19.666,17.07L19.666,17.07z"/>
</g>
<g id="Calque_2_1_">
	<path d="M19.666,18.067c-0.006,0-5.499-0.013-7.082-0.013l0,0c-0.554-0.045-0.751-0.412-0.967-0.758l0,0
		c-0.21-0.374-0.399-0.857-0.597-1.44l0,0c-0.389-1.16-0.786-2.706-1.204-4.338l0,0c-0.821-3.247-1.774-6.9-2.677-8.174l0,0
		C6.887,2.972,6.686,2.896,6.667,2.908l0,0c-2.424,0-5.507-0.049-5.509-0.049l0,0l-0.5-0.008l0.017-1l0.5,0.008
		c0.006,0,3.081,0.05,5.493,0.05l0,0C7.723,2.01,8.151,2.992,8.701,4.204l0,0c0.514,1.25,0.992,2.896,1.446,4.61l0,0
		c0.896,3.399,1.768,7.164,2.41,8.108l0,0c0.043,0.07,0.078,0.111,0.1,0.134l0,0c1.673,0,7.011,0.012,7.011,0.012l0,0h0.5
		l-0.004,0.999H19.666L19.666,18.067z"/>
</g>
</svg>
